STARTFONT 2.3
FONT -FontForge-Rajdhani-Book-R-Normal--14-140-72-72-P-85-ISO10646-1
SIZE 14 72 72  2
FONTBOUNDINGBOX 35 18 -6 -5
COMMENT "Generated by fontforge, http://fontforge.sourceforge.net"
COMMENT "Copyright (c) 2014 Indian Type Foundry (info@indiantypefoundry.com)"
STARTPROPERTIES 41
FOUNDRY "FontForge"
FAMILY_NAME "Rajdhani"
WEIGHT_NAME "Book"
SLANT "R"
SETWIDTH_NAME "Normal"
ADD_STYLE_NAME ""
PIXEL_SIZE 14
POINT_SIZE 140
RESOLUTION_X 72
RESOLUTION_Y 72
SPACING "P"
AVERAGE_WIDTH 85
CHARSET_REGISTRY "ISO10646"
CHARSET_ENCODING "1"
FONTNAME_REGISTRY ""
CHARSET_COLLECTIONS "ISO8859-2 ISO8859-9 ISO8859-4 ISO10646-1"
BITS_PER_PIXEL 2
FONT_NAME "Rajdhani-Regular"
FACE_NAME "Rajdhani Regular"
COPYRIGHT "Copyright (c) 2014 Indian Type Foundry (info@indiantypefoundry.com)"
FONT_VERSION "1.201;PS 1.0;hotconv 1.0.78;makeotf.lib2.5.61930; ttfautohint (v1.1) -l 7 -r 28 -G 50 -x 13 -D latn -f deva -w G"
FONT_ASCENT 11
FONT_DESCENT 3
UNDERLINE_POSITION -1
UNDERLINE_THICKNESS 1
X_HEIGHT 6
CAP_HEIGHT 8
DEFAULT_CHAR 3
RAW_ASCENT 800
RAW_DESCENT 200
NORM_SPACE 4
RELATIVE_WEIGHT 40
RELATIVE_SETWIDTH 50
SUPERSCRIPT_X 0
SUPERSCRIPT_Y 4
SUPERSCRIPT_SIZE 8
SUBSCRIPT_X 0
SUBSCRIPT_Y 1
SUBSCRIPT_SIZE 8
AVG_LOWERCASE_WIDTH 63
AVG_UPPERCASE_WIDTH 73
ENDPROPERTIES
CHARS 1043
STARTCHAR NULL.dup1
ENCODING 0
SWIDTH 0 0
DWIDTH 0 0
BBX 1 1 0 0
BITMAP
00
ENDCHAR
STARTCHAR CR
ENCODING 13
SWIDTH 0 0
DWIDTH 0 0
BBX 1 1 0 0
BITMAP
00
ENDCHAR
STARTCHAR space
ENCODING 32
SWIDTH 267 0
DWIDTH 4 0
BBX 1 1 0 0
BITMAP
00
ENDCHAR
STARTCHAR exclam
ENCODING 33
SWIDTH 237 0
DWIDTH 3 0
BBX 1 9 1 0
BITMAP
80
80
80
80
80
80
00
80
80
ENDCHAR
STARTCHAR quotedbl
ENCODING 34
SWIDTH 330 0
DWIDTH 5 0
BBX 3 3 1 6
BITMAP
88
88
44
ENDCHAR
STARTCHAR numbersign
ENCODING 35
SWIDTH 677 0
DWIDTH 9 0
BBX 8 9 1 0
BITMAP
0108
0508
2EA9
0820
1420
1050
BAE8
2080
5080
ENDCHAR
STARTCHAR dollar
ENCODING 36
SWIDTH 504 0
DWIDTH 7 0
BBX 5 12 1 -2
BITMAP
0800
6A40
8080
8040
8000
6A40
0080
4080
8080
6A40
0800
0400
ENDCHAR
STARTCHAR percent
ENCODING 37
SWIDTH 717 0
DWIDTH 10 0
BBX 10 9 0 0
BITMAP
2A0400
514800
515400
2A2000
005000
008680
005450
021450
020A80
ENDCHAR
STARTCHAR ampersand
ENCODING 38
SWIDTH 597 0
DWIDTH 8 0
BBX 7 9 1 0
BITMAP
1A40
2080
2040
2000
7800
8AA4
8140
8090
6A60
ENDCHAR
STARTCHAR quotesingle
ENCODING 39
SWIDTH 186 0
DWIDTH 3 0
BBX 1 3 1 6
BITMAP
80
80
40
ENDCHAR
STARTCHAR parenleft
ENCODING 40
SWIDTH 283 0
DWIDTH 4 0
BBX 3 11 0 -2
BITMAP
18
20
50
50
50
50
50
50
50
20
18
ENDCHAR
STARTCHAR parenright
ENCODING 41
SWIDTH 283 0
DWIDTH 4 0
BBX 2 11 1 -2
BITMAP
90
20
20
20
20
20
20
20
20
20
90
ENDCHAR
STARTCHAR asterisk
ENCODING 42
SWIDTH 406 0
DWIDTH 6 0
BBX 4 4 1 5
BITMAP
10
95
14
44
ENDCHAR
STARTCHAR plus
ENCODING 43
SWIDTH 523 0
DWIDTH 7 0
BBX 6 5 1 2
BITMAP
0800
0800
AE90
0800
0800
ENDCHAR
STARTCHAR comma
ENCODING 44
SWIDTH 191 0
DWIDTH 3 0
BBX 1 3 1 -1
BITMAP
80
80
40
ENDCHAR
STARTCHAR hyphen
ENCODING 45
SWIDTH 312 0
DWIDTH 4 0
BBX 4 1 0 4
BITMAP
6A
ENDCHAR
STARTCHAR period
ENCODING 46
SWIDTH 191 0
DWIDTH 3 0
BBX 1 2 1 0
BITMAP
80
80
ENDCHAR
STARTCHAR slash
ENCODING 47
SWIDTH 396 0
DWIDTH 6 0
BBX 4 9 1 0
BITMAP
02
09
08
14
20
20
50
80
80
ENDCHAR
STARTCHAR zero
ENCODING 48
SWIDTH 514 0
DWIDTH 7 0
BBX 6 9 1 0
BITMAP
6A80
8090
8050
8050
8050
8050
8050
8090
6A80
ENDCHAR
STARTCHAR one
ENCODING 49
SWIDTH 317 0
DWIDTH 4 0
BBX 4 9 0 0
BITMAP
1D
55
05
05
05
05
05
05
05
ENDCHAR
STARTCHAR two
ENCODING 50
SWIDTH 478 0
DWIDTH 7 0
BBX 5 9 1 0
BITMAP
AA40
8080
4080
0180
0600
2400
9000
8000
EA80
ENDCHAR
STARTCHAR three
ENCODING 51
SWIDTH 496 0
DWIDTH 7 0
BBX 5 9 1 0
BITMAP
6A40
8080
4080
0080
0B40
0080
4080
8080
6A40
ENDCHAR
STARTCHAR four
ENCODING 52
SWIDTH 520 0
DWIDTH 7 0
BBX 7 9 0 0
BITMAP
00A0
0160
0220
0820
1420
2020
6AB8
0020
0020
ENDCHAR
STARTCHAR five
ENCODING 53
SWIDTH 482 0
DWIDTH 7 0
BBX 5 9 1 0
BITMAP
EA80
8000
8000
AA40
4080
0080
4080
8080
6A40
ENDCHAR
STARTCHAR six
ENCODING 54
SWIDTH 497 0
DWIDTH 7 0
BBX 6 9 0 0
BITMAP
2A90
2000
6000
6000
7A90
6020
6020
2020
2A90
ENDCHAR
STARTCHAR seven
ENCODING 55
SWIDTH 380 0
DWIDTH 5 0
BBX 5 9 0 0
BITMAP
AAC0
0080
0140
0200
0200
0900
0800
1400
2000
ENDCHAR
STARTCHAR eight
ENCODING 56
SWIDTH 519 0
DWIDTH 7 0
BBX 6 9 1 0
BITMAP
6A80
8050
8050
8090
7A80
8090
8050
8050
6A80
ENDCHAR
STARTCHAR nine
ENCODING 57
SWIDTH 497 0
DWIDTH 7 0
BBX 6 9 0 0
BITMAP
2A90
2020
6020
6020
2020
1AB0
0020
0020
2A90
ENDCHAR
STARTCHAR colon
ENCODING 58
SWIDTH 191 0
DWIDTH 3 0
BBX 1 7 1 0
BITMAP
80
80
00
00
00
80
80
ENDCHAR
STARTCHAR semicolon
ENCODING 59
SWIDTH 191 0
DWIDTH 3 0
BBX 1 8 1 -1
BITMAP
80
80
00
00
00
80
80
40
ENDCHAR
STARTCHAR less
ENCODING 60
SWIDTH 513 0
DWIDTH 7 0
BBX 5 5 1 2
BITMAP
0180
1900
D000
1900
0180
ENDCHAR
STARTCHAR equal
ENCODING 61
SWIDTH 531 0
DWIDTH 7 0
BBX 6 3 1 3
BITMAP
AA90
0000
AA90
ENDCHAR
STARTCHAR greater
ENCODING 62
SWIDTH 531 0
DWIDTH 7 0
BBX 6 5 1 2
BITMAP
9000
1A40
0090
1A40
9000
ENDCHAR
STARTCHAR question
ENCODING 63
SWIDTH 473 0
DWIDTH 7 0
BBX 5 9 1 0
BITMAP
6A00
8180
8080
0240
0900
0800
0000
0800
0800
ENDCHAR
STARTCHAR at
ENCODING 64
SWIDTH 753 0
DWIDTH 11 0
BBX 9 9 1 -1
BITMAP
1AAA00
600140
86A440
881440
881440
882540
869A00
600000
1AA400
ENDCHAR
STARTCHAR A
ENCODING 65
SWIDTH 533 0
DWIDTH 7 0
BBX 7 9 0 0
BITMAP
0340
0680
0980
0850
1820
2420
2AA4
2018
5008
ENDCHAR
STARTCHAR B
ENCODING 66
SWIDTH 546 0
DWIDTH 8 0
BBX 6 9 1 0
BITMAP
AA80
8050
8020
8050
AAC0
8060
8020
8020
AA80
ENDCHAR
STARTCHAR C
ENCODING 67
SWIDTH 542 0
DWIDTH 8 0
BBX 6 9 1 0
BITMAP
6A90
8020
8020
8000
8000
8000
8020
8020
6A90
ENDCHAR
STARTCHAR D
ENCODING 68
SWIDTH 557 0
DWIDTH 8 0
BBX 6 9 1 0
BITMAP
AA90
8020
8020
8020
8020
8020
8020
8020
AA90
ENDCHAR
STARTCHAR E
ENCODING 69
SWIDTH 481 0
DWIDTH 7 0
BBX 5 9 1 0
BITMAP
AA80
8000
8000
8000
AA40
8000
8000
8000
AA80
ENDCHAR
STARTCHAR F
ENCODING 70
SWIDTH 459 0
DWIDTH 6 0
BBX 5 9 1 0
BITMAP
AA80
8000
8000
8000
AA40
8000
8000
8000
8000
ENDCHAR
STARTCHAR G
ENCODING 71
SWIDTH 539 0
DWIDTH 8 0
BBX 6 9 1 0
BITMAP
6A80
8050
8010
8000
8290
8060
8060
8050
6A80
ENDCHAR
STARTCHAR H
ENCODING 72
SWIDTH 570 0
DWIDTH 8 0
BBX 6 9 1 0
BITMAP
8020
8020
8020
8020
AAA0
8020
8020
8020
8020
ENDCHAR
STARTCHAR I
ENCODING 73
SWIDTH 230 0
DWIDTH 3 0
BBX 1 9 1 0
BITMAP
80
80
80
80
80
80
80
80
80
ENDCHAR
STARTCHAR J
ENCODING 74
SWIDTH 499 0
DWIDTH 7 0
BBX 6 9 0 0
BITMAP
0020
0020
0020
0020
0020
0020
5020
5020
2A90
ENDCHAR
STARTCHAR K
ENCODING 75
SWIDTH 530 0
DWIDTH 7 0
BBX 6 9 1 0
BITMAP
8050
8180
8200
8800
A900
9200
8140
8090
8020
ENDCHAR
STARTCHAR L
ENCODING 76
SWIDTH 451 0
DWIDTH 6 0
BBX 5 9 1 0
BITMAP
8000
8000
8000
8000
8000
8000
8000
8000
AA80
ENDCHAR
STARTCHAR M
ENCODING 77
SWIDTH 696 0
DWIDTH 10 0
BBX 8 9 1 0
BITMAP
900A
A00A
9426
8822
8852
8282
8242
8002
8002
ENDCHAR
STARTCHAR N
ENCODING 78
SWIDTH 579 0
DWIDTH 8 0
BBX 6 9 1 0
BITMAP
8020
A020
9420
8820
8520
8220
80A0
80B0
8020
ENDCHAR
STARTCHAR O
ENCODING 79
SWIDTH 553 0
DWIDTH 8 0
BBX 6 9 1 0
BITMAP
6A80
8060
8020
8020
8020
8020
8020
8060
6A80
ENDCHAR
STARTCHAR P
ENCODING 80
SWIDTH 524 0
DWIDTH 7 0
BBX 6 9 1 0
BITMAP
AA80
8050
8060
8060
8050
AA80
8000
8000
8000
ENDCHAR
STARTCHAR Q
ENCODING 81
SWIDTH 556 0
DWIDTH 8 0
BBX 6 11 1 -2
BITMAP
6A80
8020
8020
8020
8020
8020
8020
8020
6A90
0240
0080
ENDCHAR
STARTCHAR R
ENCODING 82
SWIDTH 534 0
DWIDTH 7 0
BBX 6 9 1 0
BITMAP
AA80
8050
8050
8050
8050
AB80
8140
8080
8050
ENDCHAR
STARTCHAR S
ENCODING 83
SWIDTH 562 0
DWIDTH 8 0
BBX 6 9 1 0
BITMAP
6A80
8060
8010
9000
1A40
0050
4020
8020
6A90
ENDCHAR
STARTCHAR T
ENCODING 84
SWIDTH 420 0
DWIDTH 6 0
BBX 6 9 0 0
BITMAP
AF90
0500
0500
0500
0500
0500
0500
0500
0500
ENDCHAR
STARTCHAR U
ENCODING 85
SWIDTH 552 0
DWIDTH 8 0
BBX 6 9 1 0
BITMAP
8020
8020
8020
8020
8020
8020
8020
8060
6A80
ENDCHAR
STARTCHAR V
ENCODING 86
SWIDTH 500 0
DWIDTH 7 0
BBX 7 9 0 0
BITMAP
5014
6024
2020
2020
1450
0880
0880
0640
0300
ENDCHAR
STARTCHAR W
ENCODING 87
SWIDTH 794 0
DWIDTH 11 0
BBX 11 9 0 0
BITMAP
503018
606414
208820
208820
208420
154550
0A0250
0A0280
0A0180
ENDCHAR
STARTCHAR X
ENCODING 88
SWIDTH 504 0
DWIDTH 7 0
BBX 7 9 0 0
BITMAP
6024
2420
0880
0640
0340
0980
1890
2020
5014
ENDCHAR
STARTCHAR Y
ENCODING 89
SWIDTH 493 0
DWIDTH 7 0
BBX 7 9 0 0
BITMAP
5014
2020
1450
0880
0640
0300
0200
0200
0200
ENDCHAR
STARTCHAR Z
ENCODING 90
SWIDTH 482 0
DWIDTH 7 0
BBX 6 9 0 0
BITMAP
6AB0
0060
0080
0140
0200
0800
1400
2000
7AA0
ENDCHAR
STARTCHAR bracketleft
ENCODING 91
SWIDTH 287 0
DWIDTH 4 0
BBX 2 11 1 -2
BITMAP
E0
80
80
80
80
80
80
80
80
80
A0
ENDCHAR
STARTCHAR backslash
ENCODING 92
SWIDTH 396 0
DWIDTH 6 0
BBX 4 9 1 0
BITMAP
80
80
50
20
20
18
08
09
02
ENDCHAR
STARTCHAR bracketright
ENCODING 93
SWIDTH 287 0
DWIDTH 4 0
BBX 2 11 1 -2
BITMAP
B0
20
20
20
20
20
20
20
20
20
A0
ENDCHAR
STARTCHAR asciicircum
ENCODING 94
SWIDTH 465 0
DWIDTH 7 0
BBX 5 4 1 5
BITMAP
1800
2600
9200
8140
ENDCHAR
STARTCHAR underscore
ENCODING 95
SWIDTH 372 0
DWIDTH 5 0
BBX 5 1 0 -2
BITMAP
AA80
ENDCHAR
STARTCHAR grave
ENCODING 96
SWIDTH 269 0
DWIDTH 4 0
BBX 2 2 1 8
BITMAP
80
20
ENDCHAR
STARTCHAR a
ENCODING 97
SWIDTH 502 0
DWIDTH 7 0
BBX 5 7 1 0
BITMAP
6AC0
8080
8080
8080
8080
80C0
6A80
ENDCHAR
STARTCHAR b
ENCODING 98
SWIDTH 504 0
DWIDTH 7 0
BBX 5 10 1 0
BITMAP
8000
8000
8000
AA40
8080
8080
8080
8080
8080
EA40
ENDCHAR
STARTCHAR c
ENCODING 99
SWIDTH 394 0
DWIDTH 6 0
BBX 4 7 1 0
BITMAP
6A
80
80
80
80
80
6A
ENDCHAR
STARTCHAR d
ENCODING 100
SWIDTH 504 0
DWIDTH 7 0
BBX 5 10 1 0
BITMAP
0080
0080
0080
6A80
80C0
8080
8080
8080
80C0
6A80
ENDCHAR
STARTCHAR e
ENCODING 101
SWIDTH 492 0
DWIDTH 7 0
BBX 5 7 1 0
BITMAP
6A40
8080
8080
EA80
8000
8000
6A80
ENDCHAR
STARTCHAR f
ENCODING 102
SWIDTH 303 0
DWIDTH 4 0
BBX 4 10 0 0
BITMAP
0A
18
14
7E
14
14
14
14
14
14
ENDCHAR
STARTCHAR g
ENCODING 103
SWIDTH 506 0
DWIDTH 7 0
BBX 5 9 1 -2
BITMAP
6AC0
8080
8080
8080
8080
80C0
6A80
0080
6A40
ENDCHAR
STARTCHAR h
ENCODING 104
SWIDTH 507 0
DWIDTH 7 0
BBX 5 10 1 0
BITMAP
8000
8000
8000
AA40
C080
8080
8080
8080
8080
8080
ENDCHAR
STARTCHAR i
ENCODING 105
SWIDTH 210 0
DWIDTH 3 0
BBX 1 10 1 0
BITMAP
80
80
00
80
80
80
80
80
80
80
ENDCHAR
STARTCHAR j
ENCODING 106
SWIDTH 210 0
DWIDTH 3 0
BBX 3 12 -1 -2
BITMAP
08
08
00
08
08
08
08
08
08
08
08
A4
ENDCHAR
STARTCHAR k
ENCODING 107
SWIDTH 431 0
DWIDTH 6 0
BBX 5 10 1 0
BITMAP
8000
8000
8000
8140
8200
8800
9800
8900
8200
8180
ENDCHAR
STARTCHAR l
ENCODING 108
SWIDTH 210 0
DWIDTH 3 0
BBX 1 10 1 0
BITMAP
80
80
80
80
80
80
80
80
80
80
ENDCHAR
STARTCHAR m
ENCODING 109
SWIDTH 769 0
DWIDTH 11 0
BBX 9 7 1 0
BITMAP
AA6A40
C0C080
808080
808080
808080
808080
808080
ENDCHAR
STARTCHAR n
ENCODING 110
SWIDTH 507 0
DWIDTH 7 0
BBX 5 7 1 0
BITMAP
AA40
C080
8080
8080
8080
8080
8080
ENDCHAR
STARTCHAR o
ENCODING 111
SWIDTH 496 0
DWIDTH 7 0
BBX 5 7 1 0
BITMAP
6A40
8080
8080
8080
8080
8080
6A40
ENDCHAR
STARTCHAR p
ENCODING 112
SWIDTH 504 0
DWIDTH 7 0
BBX 5 9 1 -2
BITMAP
AA40
C080
8080
8080
8080
C080
AA40
8000
8000
ENDCHAR
STARTCHAR q
ENCODING 113
SWIDTH 502 0
DWIDTH 7 0
BBX 5 9 1 -2
BITMAP
6AC0
8080
8080
8080
8080
80C0
6A80
0080
0080
ENDCHAR
STARTCHAR r
ENCODING 114
SWIDTH 313 0
DWIDTH 4 0
BBX 3 7 1 0
BITMAP
A8
C0
80
80
80
80
80
ENDCHAR
STARTCHAR s
ENCODING 115
SWIDTH 431 0
DWIDTH 6 0
BBX 6 7 0 0
BITMAP
2A80
5000
2000
0540
0080
0090
2A80
ENDCHAR
STARTCHAR t
ENCODING 116
SWIDTH 347 0
DWIDTH 5 0
BBX 5 9 0 0
BITMAP
1000
2400
7A00
2400
2400
2400
2400
1400
0A40
ENDCHAR
STARTCHAR u
ENCODING 117
SWIDTH 507 0
DWIDTH 7 0
BBX 5 7 1 0
BITMAP
8080
8080
8080
8080
8080
8080
6A80
ENDCHAR
STARTCHAR v
ENCODING 118
SWIDTH 416 0
DWIDTH 6 0
BBX 6 7 0 0
BITMAP
8050
5080
2080
2140
1600
0A00
0A00
ENDCHAR
STARTCHAR w
ENCODING 119
SWIDTH 683 0
DWIDTH 10 0
BBX 9 7 0 0
BITMAP
809080
50A080
216080
222140
161600
0A0A00
090900
ENDCHAR
STARTCHAR x
ENCODING 120
SWIDTH 413 0
DWIDTH 6 0
BBX 6 7 0 0
BITMAP
5080
2140
1A00
0A00
1A00
2180
5090
ENDCHAR
STARTCHAR y
ENCODING 121
SWIDTH 459 0
DWIDTH 6 0
BBX 6 9 0 -2
BITMAP
5020
2060
2090
1480
0980
0A00
0600
0500
6800
ENDCHAR
STARTCHAR z
ENCODING 122
SWIDTH 405 0
DWIDTH 6 0
BBX 5 7 0 0
BITMAP
6AC0
0140
0200
0900
1800
2000
7A80
ENDCHAR
STARTCHAR braceleft
ENCODING 123
SWIDTH 298 0
DWIDTH 4 0
BBX 4 11 0 -2
BITMAP
09
14
10
10
20
60
20
10
10
14
09
ENDCHAR
STARTCHAR bar
ENCODING 124
SWIDTH 207 0
DWIDTH 3 0
BBX 1 9 1 0
BITMAP
80
80
80
80
80
80
80
80
80
ENDCHAR
STARTCHAR braceright
ENCODING 125
SWIDTH 298 0
DWIDTH 4 0
BBX 4 11 0 -2
BITMAP
60
14
14
14
14
09
14
14
14
14
60
ENDCHAR
STARTCHAR asciitilde
ENCODING 126
SWIDTH 523 0
DWIDTH 7 0
BBX 5 1 1 4
BITMAP
AA80
ENDCHAR
STARTCHAR uni00A0
ENCODING 160
SWIDTH 267 0
DWIDTH 4 0
BBX 1 1 0 0
BITMAP
00
ENDCHAR
STARTCHAR exclamdown
ENCODING 161
SWIDTH 237 0
DWIDTH 3 0
BBX 1 9 1 0
BITMAP
80
80
00
80
80
80
80
80
80
ENDCHAR
STARTCHAR cent
ENCODING 162
SWIDTH 414 0
DWIDTH 6 0
BBX 5 10 1 -1
BITMAP
0400
0800
6A40
8000
8000
8000
8000
8000
6A40
0800
ENDCHAR
STARTCHAR sterling
ENCODING 163
SWIDTH 528 0
DWIDTH 7 0
BBX 7 9 0 0
BITMAP
0AA0
1414
1400
1400
7A40
1400
1400
2000
7AA4
ENDCHAR
STARTCHAR yen
ENCODING 165
SWIDTH 499 0
DWIDTH 7 0
BBX 7 9 0 0
BITMAP
5014
2020
1450
0880
6AA4
0300
6BA4
0200
0200
ENDCHAR
STARTCHAR brokenbar
ENCODING 166
SWIDTH 201 0
DWIDTH 3 0
BBX 1 9 1 0
BITMAP
80
80
80
80
00
80
80
80
80
ENDCHAR
STARTCHAR section
ENCODING 167
SWIDTH 454 0
DWIDTH 6 0
BBX 5 9 1 0
BITMAP
AA00
8000
8000
9A00
8140
6980
0180
0140
AA00
ENDCHAR
STARTCHAR dieresis
ENCODING 168
SWIDTH 345 0
DWIDTH 5 0
BBX 3 2 1 8
BITMAP
88
48
ENDCHAR
STARTCHAR copyright
ENCODING 169
SWIDTH 723 0
DWIDTH 10 0
BBX 8 9 1 0
BITMAP
6AA9
8002
8691
8821
8801
8811
8821
8692
6AA9
ENDCHAR
STARTCHAR guillemotleft
ENCODING 171
SWIDTH 431 0
DWIDTH 6 0
BBX 4 5 1 1
BITMAP
11
55
88
55
11
ENDCHAR
STARTCHAR registered
ENCODING 174
SWIDTH 439 0
DWIDTH 6 0
BBX 5 5 1 5
BITMAP
AA00
6900
6940
5500
6A00
ENDCHAR
STARTCHAR macron
ENCODING 175
SWIDTH 358 0
DWIDTH 5 0
BBX 3 1 1 8
BITMAP
A8
ENDCHAR
STARTCHAR degree
ENCODING 176
SWIDTH 298 0
DWIDTH 4 0
BBX 2 3 1 7
BITMAP
A0
50
A0
ENDCHAR
STARTCHAR plusminus
ENCODING 177
SWIDTH 523 0
DWIDTH 7 0
BBX 6 6 1 1
BITMAP
0800
0800
AE90
0800
0000
AA90
ENDCHAR
STARTCHAR acute
ENCODING 180
SWIDTH 269 0
DWIDTH 4 0
BBX 2 2 1 8
BITMAP
60
80
ENDCHAR
STARTCHAR paragraph
ENCODING 182
SWIDTH 513 0
DWIDTH 7 0
BBX 6 9 0 0
BITMAP
2EB0
7C20
7C20
7C20
1820
0820
0820
0820
0820
ENDCHAR
STARTCHAR periodcentered
ENCODING 183
SWIDTH 207 0
DWIDTH 3 0
BBX 1 2 1 3
BITMAP
80
80
ENDCHAR
STARTCHAR cedilla
ENCODING 184
SWIDTH 257 0
DWIDTH 4 0
BBX 2 3 1 -3
BITMAP
40
90
90
ENDCHAR
STARTCHAR guillemotright
ENCODING 187
SWIDTH 431 0
DWIDTH 6 0
BBX 4 5 1 1
BITMAP
44
55
22
55
44
ENDCHAR
STARTCHAR questiondown
ENCODING 191
SWIDTH 473 0
DWIDTH 7 0
BBX 5 9 1 0
BITMAP
0800
0800
0000
0800
2400
5000
8040
8180
6A00
ENDCHAR
STARTCHAR Agrave
ENCODING 192
SWIDTH 532 0
DWIDTH 7 0
BBX 7 12 0 0
BITMAP
0400
0500
0100
0340
0680
0980
0850
1820
2420
2AA4
2018
5008
ENDCHAR
STARTCHAR Aacute
ENCODING 193
SWIDTH 532 0
DWIDTH 7 0
BBX 7 12 0 0
BITMAP
0040
0080
0100
0340
0680
0980
0850
1820
2420
2AA4
2018
5008
ENDCHAR
STARTCHAR Acircumflex
ENCODING 194
SWIDTH 532 0
DWIDTH 7 0
BBX 7 12 0 0
BITMAP
0100
0580
0440
0340
0680
0980
0850
1820
2420
2AA4
2018
5008
ENDCHAR
STARTCHAR Atilde
ENCODING 195
SWIDTH 532 0
DWIDTH 7 0
BBX 7 12 0 0
BITMAP
0480
0550
0500
0340
0680
0980
0850
1820
2420
2AA4
2018
5008
ENDCHAR
STARTCHAR Adieresis
ENCODING 196
SWIDTH 532 0
DWIDTH 7 0
BBX 7 12 0 0
BITMAP
0840
0850
0000
0340
0680
0980
0850
1820
2420
2AA4
2018
5008
ENDCHAR
STARTCHAR Aring
ENCODING 197
SWIDTH 532 0
DWIDTH 7 0
BBX 7 12 0 0
BITMAP
0680
0480
0240
0340
0680
0980
0850
1820
2420
2AA4
2018
5008
ENDCHAR
STARTCHAR AE
ENCODING 198
SWIDTH 773 0
DWIDTH 11 0
BBX 10 9 0 0
BITMAP
007AA0
00A000
016000
022000
092A90
082000
2AB000
602000
802AA0
ENDCHAR
STARTCHAR Ccedilla
ENCODING 199
SWIDTH 542 0
DWIDTH 8 0
BBX 6 12 1 -3
BITMAP
6A90
8020
8020
8000
8000
8000
8020
8020
6A90
0900
0200
0600
ENDCHAR
STARTCHAR Egrave
ENCODING 200
SWIDTH 481 0
DWIDTH 7 0
BBX 5 12 1 0
BITMAP
1000
1400
0400
AA80
8000
8000
8000
AA40
8000
8000
8000
AA80
ENDCHAR
STARTCHAR Eacute
ENCODING 201
SWIDTH 481 0
DWIDTH 7 0
BBX 5 12 1 0
BITMAP
0100
0500
0400
AA80
8000
8000
8000
AA40
8000
8000
8000
AA80
ENDCHAR
STARTCHAR Ecircumflex
ENCODING 202
SWIDTH 481 0
DWIDTH 7 0
BBX 5 12 1 0
BITMAP
0400
1500
1100
AA80
8000
8000
8000
AA40
8000
8000
8000
AA80
ENDCHAR
STARTCHAR Edieresis
ENCODING 203
SWIDTH 481 0
DWIDTH 7 0
BBX 5 12 1 0
BITMAP
2200
2200
0000
AA80
8000
8000
8000
AA40
8000
8000
8000
AA80
ENDCHAR
STARTCHAR Igrave
ENCODING 204
SWIDTH 230 0
DWIDTH 3 0
BBX 2 12 0 0
BITMAP
40
50
10
20
20
20
20
20
20
20
20
20
ENDCHAR
STARTCHAR Iacute
ENCODING 205
SWIDTH 231 0
DWIDTH 3 0
BBX 2 12 1 0
BITMAP
10
60
40
80
80
80
80
80
80
80
80
80
ENDCHAR
STARTCHAR Icircumflex
ENCODING 206
SWIDTH 229 0
DWIDTH 3 0
BBX 3 12 0 0
BITMAP
10
54
44
20
20
20
20
20
20
20
20
20
ENDCHAR
STARTCHAR Idieresis
ENCODING 207
SWIDTH 230 0
DWIDTH 3 0
BBX 3 12 0 0
BITMAP
84
88
00
20
20
20
20
20
20
20
20
20
ENDCHAR
STARTCHAR Eth
ENCODING 208
SWIDTH 514 0
DWIDTH 7 0
BBX 7 9 0 0
BITMAP
2AA4
2008
2008
2008
7A48
2008
2008
2008
2AA4
ENDCHAR
STARTCHAR Ntilde
ENCODING 209
SWIDTH 579 0
DWIDTH 8 0
BBX 6 12 1 0
BITMAP
1240
1540
1840
8020
A020
9420
8820
8520
8220
80A0
80B0
8020
ENDCHAR
STARTCHAR Ograve
ENCODING 210
SWIDTH 553 0
DWIDTH 8 0
BBX 6 12 1 0
BITMAP
1000
0800
0400
6A80
8060
8020
8020
8020
8020
8020
8060
6A80
ENDCHAR
STARTCHAR Oacute
ENCODING 211
SWIDTH 553 0
DWIDTH 8 0
BBX 6 12 1 0
BITMAP
0100
0200
0400
6A80
8060
8020
8020
8020
8020
8020
8060
6A80
ENDCHAR
STARTCHAR Ocircumflex
ENCODING 212
SWIDTH 553 0
DWIDTH 8 0
BBX 6 12 1 0
BITMAP
0400
0A00
1100
6A80
8060
8020
8020
8020
8020
8020
8060
6A80
ENDCHAR
STARTCHAR Otilde
ENCODING 213
SWIDTH 553 0
DWIDTH 8 0
BBX 6 12 1 0
BITMAP
1200
1540
1840
6A80
8060
8020
8020
8020
8020
8020
8060
6A80
ENDCHAR
STARTCHAR Odieresis
ENCODING 214
SWIDTH 553 0
DWIDTH 8 0
BBX 6 12 1 0
BITMAP
2140
2140
0000
6A80
8060
8020
8020
8020
8020
8020
8060
6A80
ENDCHAR
STARTCHAR multiply
ENCODING 215
SWIDTH 493 0
DWIDTH 7 0
BBX 5 5 1 2
BITMAP
4040
2600
1C00
2600
4040
ENDCHAR
STARTCHAR Oslash
ENCODING 216
SWIDTH 559 0
DWIDTH 8 0
BBX 6 9 1 0
BITMAP
6A90
8060
80A0
8220
8520
9420
A020
C020
6A90
ENDCHAR
STARTCHAR Ugrave
ENCODING 217
SWIDTH 552 0
DWIDTH 8 0
BBX 6 12 1 0
BITMAP
1400
0800
0400
8020
8020
8020
8020
8020
8020
8020
8060
6A80
ENDCHAR
STARTCHAR Uacute
ENCODING 218
SWIDTH 552 0
DWIDTH 8 0
BBX 6 12 1 0
BITMAP
0100
0200
0400
8020
8020
8020
8020
8020
8020
8020
8060
6A80
ENDCHAR
STARTCHAR Ucircumflex
ENCODING 219
SWIDTH 552 0
DWIDTH 8 0
BBX 6 12 1 0
BITMAP
0400
0A00
1100
8020
8020
8020
8020
8020
8020
8020
8060
6A80
ENDCHAR
STARTCHAR Udieresis
ENCODING 220
SWIDTH 552 0
DWIDTH 8 0
BBX 6 12 1 0
BITMAP
2140
2140
0000
8020
8020
8020
8020
8020
8020
8020
8060
6A80
ENDCHAR
STARTCHAR Yacute
ENCODING 221
SWIDTH 493 0
DWIDTH 7 0
BBX 7 12 0 0
BITMAP
0040
0140
0100
5014
2020
1450
0880
0640
0300
0200
0200
0200
ENDCHAR
STARTCHAR Thorn
ENCODING 222
SWIDTH 501 0
DWIDTH 7 0
BBX 5 9 1 0
BITMAP
5000
5000
7A40
5080
5080
5080
7A40
5000
5000
ENDCHAR
STARTCHAR germandbls
ENCODING 223
SWIDTH 540 0
DWIDTH 8 0
BBX 6 9 1 0
BITMAP
6A80
8050
8050
8090
8680
8050
8020
8060
8A80
ENDCHAR
STARTCHAR agrave
ENCODING 224
SWIDTH 502 0
DWIDTH 7 0
BBX 5 10 1 0
BITMAP
1400
0800
0000
6AC0
8080
8080
8080
8080
80C0
6A80
ENDCHAR
STARTCHAR aacute
ENCODING 225
SWIDTH 502 0
DWIDTH 7 0
BBX 5 10 1 0
BITMAP
0200
0500
0000
6AC0
8080
8080
8080
8080
80C0
6A80
ENDCHAR
STARTCHAR acircumflex
ENCODING 226
SWIDTH 502 0
DWIDTH 7 0
BBX 5 10 1 0
BITMAP
0900
1200
0000
6AC0
8080
8080
8080
8080
80C0
6A80
ENDCHAR
STARTCHAR atilde
ENCODING 227
SWIDTH 504 0
DWIDTH 7 0
BBX 5 10 1 0
BITMAP
1640
1440
0000
6AC0
8080
8080
8080
8080
80C0
6A80
ENDCHAR
STARTCHAR adieresis
ENCODING 228
SWIDTH 502 0
DWIDTH 7 0
BBX 5 10 1 0
BITMAP
2140
2140
0000
6AC0
8080
8080
8080
8080
80C0
6A80
ENDCHAR
STARTCHAR aring
ENCODING 229
SWIDTH 502 0
DWIDTH 7 0
BBX 5 10 1 0
BITMAP
1900
1100
1900
6AC0
8080
8080
8080
8080
80C0
6A80
ENDCHAR
STARTCHAR ae
ENCODING 230
SWIDTH 795 0
DWIDTH 11 0
BBX 10 7 1 0
BITMAP
6A6A80
00C090
008050
40AA90
808000
80C000
AA6A80
ENDCHAR
STARTCHAR ccedilla
ENCODING 231
SWIDTH 394 0
DWIDTH 6 0
BBX 4 10 1 -3
BITMAP
6A
80
80
80
80
80
6A
08
05
09
ENDCHAR
STARTCHAR egrave
ENCODING 232
SWIDTH 492 0
DWIDTH 7 0
BBX 5 10 1 0
BITMAP
2000
0800
0000
6A40
8080
8080
EA80
8000
8000
6A80
ENDCHAR
STARTCHAR eacute
ENCODING 233
SWIDTH 492 0
DWIDTH 7 0
BBX 5 10 1 0
BITMAP
0600
0800
0000
6A40
8080
8080
EA80
8000
8000
6A80
ENDCHAR
STARTCHAR ecircumflex
ENCODING 234
SWIDTH 492 0
DWIDTH 7 0
BBX 5 10 1 0
BITMAP
0800
2200
0000
6A40
8080
8080
EA80
8000
8000
6A80
ENDCHAR
STARTCHAR edieresis
ENCODING 235
SWIDTH 492 0
DWIDTH 7 0
BBX 5 10 1 0
BITMAP
2200
2200
0000
6A40
8080
8080
EA80
8000
8000
6A80
ENDCHAR
STARTCHAR igrave
ENCODING 236
SWIDTH 210 0
DWIDTH 3 0
BBX 2 10 0 0
BITMAP
80
50
00
20
20
20
20
20
20
20
ENDCHAR
STARTCHAR iacute
ENCODING 237
SWIDTH 208 0
DWIDTH 3 0
BBX 2 10 1 0
BITMAP
20
80
00
80
80
80
80
80
80
80
ENDCHAR
STARTCHAR icircumflex
ENCODING 238
SWIDTH 210 0
DWIDTH 3 0
BBX 3 10 0 0
BITMAP
20
88
00
20
20
20
20
20
20
20
ENDCHAR
STARTCHAR idieresis
ENCODING 239
SWIDTH 210 0
DWIDTH 3 0
BBX 3 10 0 0
BITMAP
88
88
00
20
20
20
20
20
20
20
ENDCHAR
STARTCHAR eth
ENCODING 240
SWIDTH 488 0
DWIDTH 7 0
BBX 5 10 1 0
BITMAP
2140
1900
2600
0140
6A80
80C0
8080
8080
8080
6A40
ENDCHAR
STARTCHAR ntilde
ENCODING 241
SWIDTH 507 0
DWIDTH 7 0
BBX 5 10 1 0
BITMAP
1600
2500
0000
AA40
C080
8080
8080
8080
8080
8080
ENDCHAR
STARTCHAR ograve
ENCODING 242
SWIDTH 496 0
DWIDTH 7 0
BBX 5 10 1 0
BITMAP
2000
1400
0000
6A40
8080
8080
8080
8080
8080
6A40
ENDCHAR
STARTCHAR oacute
ENCODING 243
SWIDTH 496 0
DWIDTH 7 0
BBX 5 10 1 0
BITMAP
0200
0800
0000
6A40
8080
8080
8080
8080
8080
6A40
ENDCHAR
STARTCHAR ocircumflex
ENCODING 244
SWIDTH 496 0
DWIDTH 7 0
BBX 5 10 1 0
BITMAP
0800
2200
0000
6A40
8080
8080
8080
8080
8080
6A40
ENDCHAR
STARTCHAR otilde
ENCODING 245
SWIDTH 496 0
DWIDTH 7 0
BBX 5 10 1 0
BITMAP
1A00
2500
0000
6A40
8080
8080
8080
8080
8080
6A40
ENDCHAR
STARTCHAR odieresis
ENCODING 246
SWIDTH 496 0
DWIDTH 7 0
BBX 5 10 1 0
BITMAP
2200
2200
0000
6A40
8080
8080
8080
8080
8080
6A40
ENDCHAR
STARTCHAR divide
ENCODING 247
SWIDTH 510 0
DWIDTH 7 0
BBX 5 5 1 2
BITMAP
0400
0000
AA80
0000
0400
ENDCHAR
STARTCHAR oslash
ENCODING 248
SWIDTH 521 0
DWIDTH 7 0
BBX 7 7 0 0
BITMAP
1A94
2024
20A4
2224
2824
3020
5AA0
ENDCHAR
STARTCHAR ugrave
ENCODING 249
SWIDTH 507 0
DWIDTH 7 0
BBX 5 10 1 0
BITMAP
2000
0800
0000
8080
8080
8080
8080
8080
8080
6A80
ENDCHAR
STARTCHAR uacute
ENCODING 250
SWIDTH 507 0
DWIDTH 7 0
BBX 5 10 1 0
BITMAP
0200
0500
0000
8080
8080
8080
8080
8080
8080
6A80
ENDCHAR
STARTCHAR ucircumflex
ENCODING 251
SWIDTH 507 0
DWIDTH 7 0
BBX 5 10 1 0
BITMAP
0800
2200
0000
8080
8080
8080
8080
8080
8080
6A80
ENDCHAR
STARTCHAR udieresis
ENCODING 252
SWIDTH 507 0
DWIDTH 7 0
BBX 5 10 1 0
BITMAP
2200
2200
0000
8080
8080
8080
8080
8080
8080
6A80
ENDCHAR
STARTCHAR yacute
ENCODING 253
SWIDTH 459 0
DWIDTH 6 0
BBX 6 12 0 -2
BITMAP
0180
0200
0000
5020
2060
2090
1480
0980
0A00
0600
0500
6800
ENDCHAR
STARTCHAR thorn
ENCODING 254
SWIDTH 508 0
DWIDTH 7 0
BBX 6 12 1 -2
BITMAP
8000
8000
8000
AA80
8080
8090
8090
8090
8080
AA80
8000
8000
ENDCHAR
STARTCHAR ydieresis
ENCODING 255
SWIDTH 459 0
DWIDTH 6 0
BBX 6 12 0 -2
BITMAP
1480
1480
0000
5020
2060
2090
1480
0980
0A00
0600
0500
6800
ENDCHAR
STARTCHAR Amacron
ENCODING 256
SWIDTH 532 0
DWIDTH 7 0
BBX 7 11 0 0
BITMAP
0A90
0000
0340
0680
0980
0850
1820
2420
2AA4
2018
5008
ENDCHAR
STARTCHAR amacron
ENCODING 257
SWIDTH 502 0
DWIDTH 7 0
BBX 5 9 1 0
BITMAP
2A40
0000
6AC0
8080
8080
8080
8080
80C0
6A80
ENDCHAR
STARTCHAR Abreve
ENCODING 258
SWIDTH 532 0
DWIDTH 7 0
BBX 7 12 0 0
BITMAP
0440
0840
0140
0340
0680
0980
0850
1820
2420
2AA4
2018
5008
ENDCHAR
STARTCHAR abreve
ENCODING 259
SWIDTH 502 0
DWIDTH 7 0
BBX 5 10 1 0
BITMAP
1100
1500
0000
6AC0
8080
8080
8080
8080
80C0
6A80
ENDCHAR
STARTCHAR Aogonek
ENCODING 260
SWIDTH 532 0
DWIDTH 7 0
BBX 7 11 0 -2
BITMAP
0340
0680
0980
0850
1820
2420
2AA4
2018
5008
0014
0024
ENDCHAR
STARTCHAR aogonek
ENCODING 261
SWIDTH 502 0
DWIDTH 7 0
BBX 5 9 1 -2
BITMAP
6AC0
8080
8080
8080
8080
80C0
6A80
0140
0140
ENDCHAR
STARTCHAR Cacute
ENCODING 262
SWIDTH 542 0
DWIDTH 8 0
BBX 6 12 1 0
BITMAP
0100
0200
0400
6A90
8020
8020
8000
8000
8000
8020
8020
6A90
ENDCHAR
STARTCHAR cacute
ENCODING 263
SWIDTH 394 0
DWIDTH 6 0
BBX 4 10 1 0
BITMAP
05
08
00
6A
80
80
80
80
80
6A
ENDCHAR
STARTCHAR Cdotaccent
ENCODING 266
SWIDTH 542 0
DWIDTH 8 0
BBX 6 12 1 0
BITMAP
0500
0500
0000
6A90
8020
8020
8000
8000
8000
8020
8020
6A90
ENDCHAR
STARTCHAR cdotaccent
ENCODING 267
SWIDTH 394 0
DWIDTH 6 0
BBX 4 10 1 0
BITMAP
08
04
00
6A
80
80
80
80
80
6A
ENDCHAR
STARTCHAR Ccaron
ENCODING 268
SWIDTH 542 0
DWIDTH 8 0
BBX 6 12 1 0
BITMAP
1100
0A00
0500
6A90
8020
8020
8000
8000
8000
8020
8020
6A90
ENDCHAR
STARTCHAR ccaron
ENCODING 269
SWIDTH 394 0
DWIDTH 6 0
BBX 4 10 1 0
BITMAP
21
18
00
6A
80
80
80
80
80
6A
ENDCHAR
STARTCHAR Dcaron
ENCODING 270
SWIDTH 557 0
DWIDTH 8 0
BBX 6 12 1 0
BITMAP
1100
0A00
0400
AA90
8020
8020
8020
8020
8020
8020
8020
AA90
ENDCHAR
STARTCHAR dcaron
ENCODING 271
SWIDTH 534 0
DWIDTH 7 0
BBX 7 10 1 0
BITMAP
0088
0094
0084
40C0
8080
8080
8080
8080
80C0
6A80
ENDCHAR
STARTCHAR Dcroat
ENCODING 272
SWIDTH 514 0
DWIDTH 7 0
BBX 7 9 0 0
BITMAP
2AA4
2008
2008
7A48
2008
2008
2008
2008
2AA4
ENDCHAR
STARTCHAR dcroat
ENCODING 273
SWIDTH 539 0
DWIDTH 8 0
BBX 6 10 1 0
BITMAP
0080
0080
0AE0
0080
6A80
80C0
8080
8080
8080
6A80
ENDCHAR
STARTCHAR Emacron
ENCODING 274
SWIDTH 481 0
DWIDTH 7 0
BBX 5 11 1 0
BITMAP
2A00
0000
AA80
8000
8000
8000
AA40
8000
8000
8000
AA80
ENDCHAR
STARTCHAR emacron
ENCODING 275
SWIDTH 492 0
DWIDTH 7 0
BBX 5 9 1 0
BITMAP
2A00
0000
6A40
8080
8080
EA80
8000
8000
6A80
ENDCHAR
STARTCHAR Ebreve
ENCODING 276
SWIDTH 481 0
DWIDTH 7 0
BBX 5 12 1 0
BITMAP
1100
2100
1500
AA80
8000
8000
8000
AA40
8000
8000
8000
AA80
ENDCHAR
STARTCHAR ebreve
ENCODING 277
SWIDTH 492 0
DWIDTH 7 0
BBX 5 10 1 0
BITMAP
2100
1500
0000
6A40
8080
8080
EA80
8000
8000
6A80
ENDCHAR
STARTCHAR Edotaccent
ENCODING 278
SWIDTH 496 0
DWIDTH 7 0
BBX 5 12 1 0
BITMAP
0800
0800
0000
AA80
8000
8000
8000
AA40
8000
8000
8000
AA80
ENDCHAR
STARTCHAR edotaccent
ENCODING 279
SWIDTH 492 0
DWIDTH 7 0
BBX 5 10 1 0
BITMAP
0800
0800
0000
6A40
8080
8080
EA80
8000
8000
6A80
ENDCHAR
STARTCHAR Eogonek
ENCODING 280
SWIDTH 481 0
DWIDTH 7 0
BBX 5 11 1 -2
BITMAP
AA80
8000
8000
8000
AA40
8000
8000
8000
AA80
0100
0600
ENDCHAR
STARTCHAR eogonek
ENCODING 281
SWIDTH 492 0
DWIDTH 7 0
BBX 5 9 1 -2
BITMAP
6A40
8080
8080
EA80
8000
8000
6A80
0100
0200
ENDCHAR
STARTCHAR Ecaron
ENCODING 282
SWIDTH 481 0
DWIDTH 7 0
BBX 5 12 1 0
BITMAP
1100
1500
0400
AA80
8000
8000
8000
AA40
8000
8000
8000
AA80
ENDCHAR
STARTCHAR ecaron
ENCODING 283
SWIDTH 492 0
DWIDTH 7 0
BBX 5 10 1 0
BITMAP
2200
0800
0000
6A40
8080
8080
EA80
8000
8000
6A80
ENDCHAR
STARTCHAR Gcircumflex
ENCODING 284
SWIDTH 539 0
DWIDTH 8 0
BBX 6 12 1 0
BITMAP
0400
0600
1100
6A80
8050
8010
8000
8290
8060
8060
8050
6A80
ENDCHAR
STARTCHAR gcircumflex
ENCODING 285
SWIDTH 506 0
DWIDTH 7 0
BBX 5 12 1 -2
BITMAP
0900
1600
0000
6AC0
8080
8080
8080
8080
80C0
6A80
0080
6A40
ENDCHAR
STARTCHAR Gbreve
ENCODING 286
SWIDTH 539 0
DWIDTH 8 0
BBX 6 12 1 0
BITMAP
1000
1100
0500
6A80
8050
8010
8000
8290
8060
8060
8050
6A80
ENDCHAR
STARTCHAR gbreve
ENCODING 287
SWIDTH 506 0
DWIDTH 7 0
BBX 5 12 1 -2
BITMAP
1140
0500
0000
6AC0
8080
8080
8080
8080
80C0
6A80
0080
6A40
ENDCHAR
STARTCHAR Gdotaccent
ENCODING 288
SWIDTH 539 0
DWIDTH 8 0
BBX 6 12 1 0
BITMAP
0400
0800
0000
6A80
8050
8010
8000
8290
8060
8060
8050
6A80
ENDCHAR
STARTCHAR gdotaccent
ENCODING 289
SWIDTH 506 0
DWIDTH 7 0
BBX 5 12 1 -2
BITMAP
0500
0400
0000
6AC0
8080
8080
8080
8080
80C0
6A80
0080
6A40
ENDCHAR
STARTCHAR uni0122
ENCODING 290
SWIDTH 539 0
DWIDTH 8 0
BBX 6 12 1 -3
BITMAP
6A80
8050
8010
8000
8290
8060
8060
8050
6A80
0500
0500
0400
ENDCHAR
STARTCHAR uni0123
ENCODING 291
SWIDTH 506 0
DWIDTH 7 0
BBX 5 12 1 -2
BITMAP
0500
0800
0000
6AC0
8080
8080
8080
8080
80C0
6A80
0080
6A40
ENDCHAR
STARTCHAR hcircumflex
ENCODING 293
SWIDTH 507 0
DWIDTH 7 0
BBX 5 11 1 0
BITMAP
0400
9600
8000
8000
AA40
C080
8080
8080
8080
8080
8080
ENDCHAR
STARTCHAR Hbar
ENCODING 294
SWIDTH 523 0
DWIDTH 7 0
BBX 8 9 0 0
BITMAP
2008
2008
7AAE
2008
2AAC
2008
2008
2008
2008
ENDCHAR
STARTCHAR hbar
ENCODING 295
SWIDTH 544 0
DWIDTH 8 0
BBX 7 10 0 0
BITMAP
1400
1400
7A80
1400
1AA0
1418
1408
1408
1408
1408
ENDCHAR
STARTCHAR Itilde
ENCODING 296
SWIDTH 230 0
DWIDTH 3 0
BBX 3 12 0 0
BITMAP
58
64
94
20
20
20
20
20
20
20
20
20
ENDCHAR
STARTCHAR itilde
ENCODING 297
SWIDTH 210 0
DWIDTH 3 0
BBX 3 10 0 0
BITMAP
68
94
00
20
20
20
20
20
20
20
ENDCHAR
STARTCHAR Imacron
ENCODING 298
SWIDTH 230 0
DWIDTH 3 0
BBX 3 11 0 0
BITMAP
A8
00
20
20
20
20
20
20
20
20
20
ENDCHAR
STARTCHAR imacron
ENCODING 299
SWIDTH 208 0
DWIDTH 3 0
BBX 3 9 0 0
BITMAP
A8
00
20
20
20
20
20
20
20
ENDCHAR
STARTCHAR Ibreve
ENCODING 300
SWIDTH 231 0
DWIDTH 3 0
BBX 3 12 0 0
BITMAP
44
84
54
20
20
20
20
20
20
20
20
20
ENDCHAR
STARTCHAR ibreve
ENCODING 301
SWIDTH 211 0
DWIDTH 3 0
BBX 3 10 0 0
BITMAP
84
54
00
20
20
20
20
20
20
20
ENDCHAR
STARTCHAR Iogonek
ENCODING 302
SWIDTH 230 0
DWIDTH 3 0
BBX 2 11 0 -2
BITMAP
20
20
20
20
20
20
20
20
20
10
60
ENDCHAR
STARTCHAR iogonek
ENCODING 303
SWIDTH 210 0
DWIDTH 3 0
BBX 2 12 0 -2
BITMAP
20
20
00
20
20
20
20
20
20
20
50
50
ENDCHAR
STARTCHAR Idotaccent
ENCODING 304
SWIDTH 230 0
DWIDTH 3 0
BBX 1 11 1 0
BITMAP
80
80
80
80
80
80
80
80
80
80
80
ENDCHAR
STARTCHAR dotlessi
ENCODING 305
SWIDTH 212 0
DWIDTH 3 0
BBX 1 7 1 0
BITMAP
80
80
80
80
80
80
80
ENDCHAR
STARTCHAR IJ
ENCODING 306
SWIDTH 721 0
DWIDTH 10 0
BBX 8 9 1 0
BITMAP
8002
8002
8002
8002
8002
8002
8502
8602
82A9
ENDCHAR
STARTCHAR ij
ENCODING 307
SWIDTH 419 0
DWIDTH 6 0
BBX 4 12 1 -2
BITMAP
82
82
00
82
82
82
82
82
82
82
02
29
ENDCHAR
STARTCHAR Jcircumflex
ENCODING 308
SWIDTH 494 0
DWIDTH 7 0
BBX 7 12 0 0
BITMAP
0010
0054
0044
0020
0020
0020
0020
0020
0020
5020
5020
2A90
ENDCHAR
STARTCHAR jcircumflex
ENCODING 309
SWIDTH 209 0
DWIDTH 3 0
BBX 4 12 -1 -2
BITMAP
08
22
00
08
08
08
08
08
08
08
08
A4
ENDCHAR
STARTCHAR uni0136
ENCODING 310
SWIDTH 530 0
DWIDTH 7 0
BBX 6 12 1 -3
BITMAP
8050
8180
8200
8800
A900
9200
8140
8090
8020
0100
0500
0500
ENDCHAR
STARTCHAR uni0137
ENCODING 311
SWIDTH 431 0
DWIDTH 6 0
BBX 5 13 1 -3
BITMAP
8000
8000
8000
8140
8200
8800
9800
8900
8200
8180
0800
0800
0400
ENDCHAR
STARTCHAR Lacute
ENCODING 313
SWIDTH 451 0
DWIDTH 6 0
BBX 5 12 1 0
BITMAP
1000
6000
4000
8000
8000
8000
8000
8000
8000
8000
8000
AA80
ENDCHAR
STARTCHAR lacute
ENCODING 314
SWIDTH 207 0
DWIDTH 3 0
BBX 2 12 1 0
BITMAP
60
40
80
80
80
80
80
80
80
80
80
80
ENDCHAR
STARTCHAR uni013B
ENCODING 315
SWIDTH 451 0
DWIDTH 6 0
BBX 5 12 1 -3
BITMAP
8000
8000
8000
8000
8000
8000
8000
8000
AA80
0800
0800
0400
ENDCHAR
STARTCHAR uni013C
ENCODING 316
SWIDTH 211 0
DWIDTH 3 0
BBX 1 13 1 -3
BITMAP
80
80
80
80
80
80
80
80
80
80
80
80
40
ENDCHAR
STARTCHAR Lcaron
ENCODING 317
SWIDTH 451 0
DWIDTH 6 0
BBX 5 9 1 0
BITMAP
8200
8200
8100
8000
8000
8000
8000
8000
AA80
ENDCHAR
STARTCHAR lcaron
ENCODING 318
SWIDTH 274 0
DWIDTH 4 0
BBX 3 10 1 0
BITMAP
88
88
84
80
80
80
80
80
80
80
ENDCHAR
STARTCHAR Ldot
ENCODING 319
SWIDTH 500 0
DWIDTH 7 0
BBX 5 9 1 0
BITMAP
8000
8000
8000
8000
8200
8200
8000
8000
AA80
ENDCHAR
STARTCHAR ldot
ENCODING 320
SWIDTH 314 0
DWIDTH 4 0
BBX 3 10 1 0
BITMAP
80
80
80
80
80
88
88
80
80
80
ENDCHAR
STARTCHAR Lslash
ENCODING 321
SWIDTH 504 0
DWIDTH 7 0
BBX 6 9 0 0
BITMAP
2000
2000
2900
7000
2000
2000
2000
2000
2AA0
ENDCHAR
STARTCHAR lslash
ENCODING 322
SWIDTH 296 0
DWIDTH 4 0
BBX 4 10 0 0
BITMAP
14
14
14
19
64
14
14
14
14
14
ENDCHAR
STARTCHAR Nacute
ENCODING 323
SWIDTH 579 0
DWIDTH 8 0
BBX 6 12 1 0
BITMAP
0040
0240
0100
8020
A020
9420
8820
8520
8220
80A0
80B0
8020
ENDCHAR
STARTCHAR nacute
ENCODING 324
SWIDTH 507 0
DWIDTH 7 0
BBX 5 10 1 0
BITMAP
0200
0500
0000
AA40
C080
8080
8080
8080
8080
8080
ENDCHAR
STARTCHAR uni0145
ENCODING 325
SWIDTH 579 0
DWIDTH 8 0
BBX 6 12 1 -3
BITMAP
8020
A020
9420
8820
8520
8220
80A0
80B0
8020
0500
0500
0400
ENDCHAR
STARTCHAR uni0146
ENCODING 326
SWIDTH 505 0
DWIDTH 7 0
BBX 5 10 1 -3
BITMAP
AA40
C080
8080
8080
8080
8080
8080
0800
0800
0400
ENDCHAR
STARTCHAR Ncaron
ENCODING 327
SWIDTH 579 0
DWIDTH 8 0
BBX 6 12 1 0
BITMAP
0440
0A00
0500
8020
A020
9420
8820
8520
8220
80A0
80B0
8020
ENDCHAR
STARTCHAR ncaron
ENCODING 328
SWIDTH 507 0
DWIDTH 7 0
BBX 5 10 1 0
BITMAP
2200
0900
0000
AA40
C080
8080
8080
8080
8080
8080
ENDCHAR
STARTCHAR Eng
ENCODING 330
SWIDTH 519 0
DWIDTH 7 0
BBX 6 11 1 -2
BITMAP
8020
A020
9420
8820
8520
8220
80A0
80B0
8030
0020
0190
ENDCHAR
STARTCHAR eng
ENCODING 331
SWIDTH 507 0
DWIDTH 7 0
BBX 5 9 1 -2
BITMAP
AA40
C080
8080
8080
8080
8080
8080
0080
0640
ENDCHAR
STARTCHAR Omacron
ENCODING 332
SWIDTH 553 0
DWIDTH 8 0
BBX 6 11 1 0
BITMAP
2A40
0000
6A80
8060
8020
8020
8020
8020
8020
8060
6A80
ENDCHAR
STARTCHAR omacron
ENCODING 333
SWIDTH 496 0
DWIDTH 7 0
BBX 5 9 1 0
BITMAP
2A00
0000
6A40
8080
8080
8080
8080
8080
6A40
ENDCHAR
STARTCHAR Obreve
ENCODING 334
SWIDTH 553 0
DWIDTH 8 0
BBX 6 12 1 0
BITMAP
1000
1140
0500
6A80
8060
8020
8020
8020
8020
8020
8060
6A80
ENDCHAR
STARTCHAR obreve
ENCODING 335
SWIDTH 496 0
DWIDTH 7 0
BBX 5 10 1 0
BITMAP
2100
1500
0000
6A40
8080
8080
8080
8080
8080
6A40
ENDCHAR
STARTCHAR Ohungarumlaut
ENCODING 336
SWIDTH 553 0
DWIDTH 8 0
BBX 6 12 1 0
BITMAP
0480
0540
0000
6A80
8060
8020
8020
8020
8020
8020
8060
6A80
ENDCHAR
STARTCHAR ohungarumlaut
ENCODING 337
SWIDTH 496 0
DWIDTH 7 0
BBX 5 10 1 0
BITMAP
0980
1100
0000
6A40
8080
8080
8080
8080
8080
6A40
ENDCHAR
STARTCHAR OE
ENCODING 338
SWIDTH 775 0
DWIDTH 11 0
BBX 9 9 1 0
BITMAP
6AEA80
808000
808000
808000
80AA40
808000
808000
808000
6AEA80
ENDCHAR
STARTCHAR oe
ENCODING 339
SWIDTH 812 0
DWIDTH 11 0
BBX 10 7 1 0
BITMAP
6A6A80
809050
808050
80AA90
808000
809000
6A6A90
ENDCHAR
STARTCHAR Racute
ENCODING 340
SWIDTH 534 0
DWIDTH 7 0
BBX 6 12 1 0
BITMAP
0100
0500
0400
AA80
8050
8050
8050
8050
AB80
8140
8080
8050
ENDCHAR
STARTCHAR racute
ENCODING 341
SWIDTH 313 0
DWIDTH 4 0
BBX 3 10 1 0
BITMAP
14
20
00
A8
C0
80
80
80
80
80
ENDCHAR
STARTCHAR uni0156
ENCODING 342
SWIDTH 534 0
DWIDTH 7 0
BBX 6 12 1 -3
BITMAP
AA80
8050
8050
8050
8050
AB80
8140
8080
8050
0800
0800
0400
ENDCHAR
STARTCHAR uni0157
ENCODING 343
SWIDTH 313 0
DWIDTH 4 0
BBX 3 10 1 -3
BITMAP
A8
C0
80
80
80
80
80
80
80
40
ENDCHAR
STARTCHAR Rcaron
ENCODING 344
SWIDTH 534 0
DWIDTH 7 0
BBX 6 12 1 0
BITMAP
1100
1500
0400
AA80
8050
8050
8050
8050
AB80
8140
8080
8050
ENDCHAR
STARTCHAR rcaron
ENCODING 345
SWIDTH 313 0
DWIDTH 4 0
BBX 3 10 1 0
BITMAP
88
60
00
A8
C0
80
80
80
80
80
ENDCHAR
STARTCHAR Sacute
ENCODING 346
SWIDTH 562 0
DWIDTH 8 0
BBX 6 12 1 0
BITMAP
0100
0200
0400
6A80
8060
8010
9000
1A40
0050
4020
8020
6A90
ENDCHAR
STARTCHAR sacute
ENCODING 347
SWIDTH 427 0
DWIDTH 6 0
BBX 6 10 0 0
BITMAP
0200
0500
0000
2A80
5000
2000
0540
0080
0090
2A80
ENDCHAR
STARTCHAR Scircumflex
ENCODING 348
SWIDTH 562 0
DWIDTH 8 0
BBX 6 12 1 0
BITMAP
0500
0A00
0100
6A80
8060
8010
9000
1A40
0050
4020
8020
6A90
ENDCHAR
STARTCHAR scircumflex
ENCODING 349
SWIDTH 427 0
DWIDTH 6 0
BBX 6 10 0 0
BITMAP
0900
1500
0000
2A80
5000
2000
0540
0080
0090
2A80
ENDCHAR
STARTCHAR uni015E
ENCODING 350
SWIDTH 562 0
DWIDTH 8 0
BBX 6 12 1 -3
BITMAP
6A80
8060
8010
9000
1A40
0050
4020
8020
6A90
0600
0200
0600
ENDCHAR
STARTCHAR uni015F
ENCODING 351
SWIDTH 427 0
DWIDTH 6 0
BBX 6 10 0 -3
BITMAP
2A80
5000
2000
0540
0080
0090
2A80
0600
0200
0600
ENDCHAR
STARTCHAR Scaron
ENCODING 352
SWIDTH 562 0
DWIDTH 8 0
BBX 6 12 1 0
BITMAP
1100
0A00
0500
6A80
8060
8010
9000
1A40
0050
4020
8020
6A90
ENDCHAR
STARTCHAR scaron
ENCODING 353
SWIDTH 427 0
DWIDTH 6 0
BBX 6 10 0 0
BITMAP
1500
0A00
0000
2A80
5000
2000
0540
0080
0090
2A80
ENDCHAR
STARTCHAR uni0162
ENCODING 354
SWIDTH 420 0
DWIDTH 6 0
BBX 6 12 0 -3
BITMAP
AF90
0500
0500
0500
0500
0500
0500
0500
0500
0400
0500
0400
ENDCHAR
STARTCHAR uni0163
ENCODING 355
SWIDTH 347 0
DWIDTH 5 0
BBX 5 12 0 -3
BITMAP
1000
2400
7A00
2400
2400
2400
2400
1400
0A40
0400
0500
0400
ENDCHAR
STARTCHAR Tcaron
ENCODING 356
SWIDTH 420 0
DWIDTH 6 0
BBX 6 12 0 0
BITMAP
0100
0A00
0500
AF90
0500
0500
0500
0500
0500
0500
0500
0500
ENDCHAR
STARTCHAR tcaron
ENCODING 357
SWIDTH 396 0
DWIDTH 6 0
BBX 6 9 0 0
BITMAP
1050
2450
7A40
2400
2400
2400
2400
1400
0A40
ENDCHAR
STARTCHAR Tbar
ENCODING 358
SWIDTH 501 0
DWIDTH 7 0
BBX 6 9 0 0
BITMAP
6FA0
0500
0500
0500
2F80
0500
0500
0500
0500
ENDCHAR
STARTCHAR tbar
ENCODING 359
SWIDTH 350 0
DWIDTH 5 0
BBX 5 9 0 0
BITMAP
1000
2400
7A00
2400
7A00
2400
1400
1400
0A40
ENDCHAR
STARTCHAR Utilde
ENCODING 360
SWIDTH 552 0
DWIDTH 8 0
BBX 6 12 1 0
BITMAP
1200
1540
1840
8020
8020
8020
8020
8020
8020
8020
8060
6A80
ENDCHAR
STARTCHAR utilde
ENCODING 361
SWIDTH 507 0
DWIDTH 7 0
BBX 5 10 1 0
BITMAP
1A00
2500
0000
8080
8080
8080
8080
8080
8080
6A80
ENDCHAR
STARTCHAR Umacron
ENCODING 362
SWIDTH 552 0
DWIDTH 8 0
BBX 6 11 1 0
BITMAP
2A40
0000
8020
8020
8020
8020
8020
8020
8020
8060
6A80
ENDCHAR
STARTCHAR umacron
ENCODING 363
SWIDTH 507 0
DWIDTH 7 0
BBX 5 9 1 0
BITMAP
2A00
0000
8080
8080
8080
8080
8080
8080
6A80
ENDCHAR
STARTCHAR Ubreve
ENCODING 364
SWIDTH 552 0
DWIDTH 8 0
BBX 6 12 1 0
BITMAP
1000
1140
0500
8020
8020
8020
8020
8020
8020
8020
8060
6A80
ENDCHAR
STARTCHAR ubreve
ENCODING 365
SWIDTH 507 0
DWIDTH 7 0
BBX 5 10 1 0
BITMAP
1100
1100
1500
8080
8080
8080
8080
8080
8080
6A80
ENDCHAR
STARTCHAR Uring
ENCODING 366
SWIDTH 552 0
DWIDTH 8 0
BBX 6 12 1 0
BITMAP
0A00
1600
0A00
8020
8020
8020
8020
8020
8020
8020
8060
6A80
ENDCHAR
STARTCHAR uring
ENCODING 367
SWIDTH 507 0
DWIDTH 7 0
BBX 5 10 1 0
BITMAP
1900
1100
2900
8080
8080
8080
8080
8080
8080
6A80
ENDCHAR
STARTCHAR Uhungarumlaut
ENCODING 368
SWIDTH 552 0
DWIDTH 8 0
BBX 6 12 1 0
BITMAP
0480
0540
0000
8020
8020
8020
8020
8020
8020
8020
8060
6A80
ENDCHAR
STARTCHAR uhungarumlaut
ENCODING 369
SWIDTH 507 0
DWIDTH 7 0
BBX 5 10 1 0
BITMAP
0980
1100
0000
8080
8080
8080
8080
8080
8080
6A80
ENDCHAR
STARTCHAR Uogonek
ENCODING 370
SWIDTH 552 0
DWIDTH 8 0
BBX 6 11 1 -2
BITMAP
8020
8020
8020
8020
8020
8020
8020
8060
6A80
0400
0900
ENDCHAR
STARTCHAR uogonek
ENCODING 371
SWIDTH 503 0
DWIDTH 7 0
BBX 5 9 1 -2
BITMAP
8080
8080
8080
8080
8080
8080
6A80
0040
0140
ENDCHAR
STARTCHAR Wcircumflex
ENCODING 372
SWIDTH 795 0
DWIDTH 11 0
BBX 11 12 0 0
BITMAP
001000
005400
004400
503018
606414
208820
208820
208420
154550
0A0250
0A0280
0A0180
ENDCHAR
STARTCHAR wcircumflex
ENCODING 373
SWIDTH 682 0
DWIDTH 10 0
BBX 9 10 0 0
BITMAP
009000
016000
000000
809080
50A080
216080
222140
161600
0A0A00
090900
ENDCHAR
STARTCHAR Ycircumflex
ENCODING 374
SWIDTH 493 0
DWIDTH 7 0
BBX 7 12 0 0
BITMAP
0100
0540
0440
5014
2020
1450
0880
0640
0300
0200
0200
0200
ENDCHAR
STARTCHAR ycircumflex
ENCODING 375
SWIDTH 459 0
DWIDTH 6 0
BBX 6 12 0 -2
BITMAP
0600
0840
0000
5020
2060
2090
1480
0980
0A00
0600
0500
6800
ENDCHAR
STARTCHAR Ydieresis
ENCODING 376
SWIDTH 493 0
DWIDTH 7 0
BBX 7 12 0 0
BITMAP
0880
0880
0000
5014
2020
1450
0880
0640
0300
0200
0200
0200
ENDCHAR
STARTCHAR Zacute
ENCODING 377
SWIDTH 482 0
DWIDTH 7 0
BBX 6 12 0 0
BITMAP
0040
0180
0100
6AB0
0060
0080
0140
0200
0800
1400
2000
7AA0
ENDCHAR
STARTCHAR zacute
ENCODING 378
SWIDTH 405 0
DWIDTH 6 0
BBX 5 10 0 0
BITMAP
0140
0200
0000
6AC0
0140
0200
0900
1800
2000
7A80
ENDCHAR
STARTCHAR Zdotaccent
ENCODING 379
SWIDTH 482 0
DWIDTH 7 0
BBX 6 12 0 0
BITMAP
0200
0200
0000
6AB0
0060
0080
0140
0200
0800
1400
2000
7AA0
ENDCHAR
STARTCHAR zdotaccent
ENCODING 380
SWIDTH 405 0
DWIDTH 6 0
BBX 5 10 0 0
BITMAP
0500
0500
0000
6AC0
0140
0200
0900
1800
2000
7A80
ENDCHAR
STARTCHAR Zcaron
ENCODING 381
SWIDTH 482 0
DWIDTH 7 0
BBX 6 12 0 0
BITMAP
0440
0540
0100
6AB0
0060
0080
0140
0200
0800
1400
2000
7AA0
ENDCHAR
STARTCHAR zcaron
ENCODING 382
SWIDTH 405 0
DWIDTH 6 0
BBX 5 10 0 0
BITMAP
0940
0600
0000
6AC0
0140
0200
0900
1800
2000
7A80
ENDCHAR
STARTCHAR florin
ENCODING 402
SWIDTH 494 0
DWIDTH 7 0
BBX 7 12 0 -2
BITMAP
0064
0080
0080
0140
0140
0BA0
0200
0200
0500
0800
0800
A400
ENDCHAR
STARTCHAR AEacute
ENCODING 508
SWIDTH 773 0
DWIDTH 11 0
BBX 10 12 0 0
BITMAP
000500
000800
000000
007AA0
00A000
016000
022000
092A90
082000
2AB000
602000
802AA0
ENDCHAR
STARTCHAR aeacute
ENCODING 509
SWIDTH 795 0
DWIDTH 11 0
BBX 10 10 1 0
BITMAP
002000
005000
000000
6A6A80
00C090
008050
40AA90
808000
80C000
AA6A80
ENDCHAR
STARTCHAR Oslashacute
ENCODING 510
SWIDTH 558 0
DWIDTH 8 0
BBX 6 12 1 0
BITMAP
0100
0200
0400
6A90
8060
80A0
8220
8520
9420
A020
C020
6A90
ENDCHAR
STARTCHAR oslashacute
ENCODING 511
SWIDTH 521 0
DWIDTH 7 0
BBX 7 10 0 0
BITMAP
0080
0140
0000
1A94
2024
20A4
2224
2824
3020
5AA0
ENDCHAR
STARTCHAR uni0218
ENCODING 536
SWIDTH 562 0
DWIDTH 8 0
BBX 6 12 1 -3
BITMAP
6A80
8060
8010
9000
1A40
0050
4020
8020
6A90
0500
0500
0400
ENDCHAR
STARTCHAR uni0219
ENCODING 537
SWIDTH 427 0
DWIDTH 6 0
BBX 6 10 0 -3
BITMAP
2A80
5000
2000
0540
0080
0090
2A80
0100
0500
0500
ENDCHAR
STARTCHAR circumflex
ENCODING 710
SWIDTH 326 0
DWIDTH 5 0
BBX 3 2 1 8
BITMAP
60
94
ENDCHAR
STARTCHAR caron
ENCODING 711
SWIDTH 326 0
DWIDTH 5 0
BBX 3 2 1 8
BITMAP
94
60
ENDCHAR
STARTCHAR uni02C9
ENCODING 713
SWIDTH 358 0
DWIDTH 5 0
BBX 3 1 1 8
BITMAP
A8
ENDCHAR
STARTCHAR breve
ENCODING 728
SWIDTH 332 0
DWIDTH 5 0
BBX 3 2 1 8
BITMAP
44
54
ENDCHAR
STARTCHAR dotaccent
ENCODING 729
SWIDTH 183 0
DWIDTH 3 0
BBX 1 2 1 8
BITMAP
80
80
ENDCHAR
STARTCHAR ring
ENCODING 730
SWIDTH 297 0
DWIDTH 4 0
BBX 3 3 0 7
BITMAP
28
44
28
ENDCHAR
STARTCHAR ogonek
ENCODING 731
SWIDTH 243 0
DWIDTH 3 0
BBX 1 2 1 -2
BITMAP
40
80
ENDCHAR
STARTCHAR tilde
ENCODING 732
SWIDTH 369 0
DWIDTH 5 0
BBX 3 2 1 8
BITMAP
68
94
ENDCHAR
STARTCHAR hungarumlaut
ENCODING 733
SWIDTH 377 0
DWIDTH 5 0
BBX 3 2 1 8
BITMAP
58
44
ENDCHAR
STARTCHAR Mu
ENCODING 924
SWIDTH 527 0
DWIDTH 7 0
BBX 6 10 1 -2
BITMAP
8050
8050
8050
8050
8050
8090
D590
9540
8000
4000
ENDCHAR
STARTCHAR Pi
ENCODING 928
SWIDTH 605 0
DWIDTH 8 0
BBX 8 9 0 0
BITMAP
6EAE
0814
0814
0814
0814
0814
0814
0814
0404
ENDCHAR
STARTCHAR Sigma
ENCODING 931
SWIDTH 481 0
DWIDTH 7 0
BBX 5 9 1 0
BITMAP
EA80
9000
2000
1800
0800
2400
6000
9540
6A40
ENDCHAR
STARTCHAR uni0901
ENCODING 2305
SWIDTH 0 0
DWIDTH 0 0
BBX 5 3 -4 10
BITMAP
0400
8080
6A00
ENDCHAR
STARTCHAR uni0902
ENCODING 2306
SWIDTH 0 0
DWIDTH 0 0
BBX 1 1 -2 10
BITMAP
80
ENDCHAR
STARTCHAR uni0903
ENCODING 2307
SWIDTH 247 0
DWIDTH 3 0
BBX 1 5 1 1
BITMAP
40
00
00
00
40
ENDCHAR
STARTCHAR uni0905
ENCODING 2309
SWIDTH 598 0
DWIDTH 8 0
BBX 9 9 0 0
BITMAP
2A0A40
014800
014800
1A0800
01AC00
014800
014800
6A0800
000400
ENDCHAR
STARTCHAR uni0906
ENCODING 2310
SWIDTH 828 0
DWIDTH 12 0
BBX 12 9 0 0
BITMAP
2A0ABE
014814
014814
1A0814
02AC14
014814
014814
6A0814
000410
ENDCHAR
STARTCHAR uni0907
ENCODING 2311
SWIDTH 478 0
DWIDTH 7 0
BBX 7 9 0 0
BITMAP
AAB8
0050
1A90
2000
1A90
0020
2020
3560
2640
ENDCHAR
STARTCHAR uni0908
ENCODING 2312
SWIDTH 478 0
DWIDTH 7 0
BBX 7 13 0 0
BITMAP
00A4
0140
0140
0140
AAB8
0050
1A90
2000
1A90
0020
2020
3560
2640
ENDCHAR
STARTCHAR uni0909
ENCODING 2313
SWIDTH 471 0
DWIDTH 7 0
BBX 7 9 0 0
BITMAP
AAE8
0050
0060
06C0
0050
5020
5020
2590
0540
ENDCHAR
STARTCHAR uni090A
ENCODING 2314
SWIDTH 661 0
DWIDTH 9 0
BBX 10 9 0 0
BITMAP
AAEA90
005000
006000
06D000
006A40
002080
502080
259180
154500
ENDCHAR
STARTCHAR uni090B
ENCODING 2315
SWIDTH 753 0
DWIDTH 11 0
BBX 11 9 0 0
BITMAP
AABAA8
002000
1AA090
206250
202850
106190
02A200
092240
101050
ENDCHAR
STARTCHAR uni090C
ENCODING 2316
SWIDTH 676 0
DWIDTH 9 0
BBX 10 12 0 -3
BITMAP
AAAB90
000240
1A6A40
20C240
208240
204240
200240
1A0240
000A00
001400
001810
000A80
ENDCHAR
STARTCHAR uni090D
ENCODING 2317
SWIDTH 521 0
DWIDTH 7 0
BBX 8 12 0 1
BITMAP
1420
0A90
0000
0000
BAAD
2014
2014
2014
20A0
2000
2000
0AA0
ENDCHAR
STARTCHAR uni090E
ENCODING 2318
SWIDTH 522 0
DWIDTH 7 0
BBX 8 12 0 1
BITMAP
0500
0240
00A0
0014
BAAD
2014
2014
2014
20A0
2000
2000
0AA0
ENDCHAR
STARTCHAR uni090F
ENCODING 2319
SWIDTH 526 0
DWIDTH 7 0
BBX 8 8 0 1
BITMAP
BAAD
2014
2014
2014
20A0
2000
2000
0AA0
ENDCHAR
STARTCHAR uni0910
ENCODING 2320
SWIDTH 526 0
DWIDTH 7 0
BBX 8 12 0 1
BITMAP
0140
0080
0050
0020
BAAD
2014
2014
2014
20A0
2000
2000
0AA0
ENDCHAR
STARTCHAR uni0911
ENCODING 2321
SWIDTH 829 0
DWIDTH 12 0
BBX 12 13 0 0
BITMAP
000404
000808
0002A0
000000
2A0ABE
014814
014814
1A0814
01AC14
014814
014814
6A0814
000400
ENDCHAR
STARTCHAR uni0912
ENCODING 2322
SWIDTH 828 0
DWIDTH 12 0
BBX 12 13 0 0
BITMAP
000500
000200
000090
000024
2A0ABE
014814
014814
1A0814
01AC14
014814
014814
6A0814
000410
ENDCHAR
STARTCHAR uni0913
ENCODING 2323
SWIDTH 829 0
DWIDTH 12 0
BBX 12 13 0 0
BITMAP
000240
000080
000050
000020
2A0ABE
014814
014814
1A0814
01AC14
014814
014814
6A0814
000400
ENDCHAR
STARTCHAR uni0914
ENCODING 2324
SWIDTH 829 0
DWIDTH 12 0
BBX 12 13 0 0
BITMAP
000214
000094
000064
000024
2A0ABE
014814
014814
1A0814
01AC14
014814
014814
6A0814
000400
ENDCHAR
STARTCHAR uni0915
ENCODING 2325
SWIDTH 725 0
DWIDTH 10 0
BBX 11 9 0 0
BITMAP
AABAA4
196A40
206080
205050
205050
205080
1A9640
005000
001000
ENDCHAR
STARTCHAR uni0916
ENCODING 2326
SWIDTH 696 0
DWIDTH 10 0
BBX 10 9 0 0
BITMAP
ABAAE0
020140
022940
065140
688140
205140
142A40
090140
010040
ENDCHAR
STARTCHAR uni0917
ENCODING 2327
SWIDTH 494 0
DWIDTH 7 0
BBX 7 9 0 0
BITMAP
AEB8
0820
0820
0820
1420
A020
0020
0020
0010
ENDCHAR
STARTCHAR uni0918
ENCODING 2328
SWIDTH 559 0
DWIDTH 8 0
BBX 8 9 0 0
BITMAP
BAAE
2008
2008
1E08
2008
2008
2018
1AA8
0004
ENDCHAR
STARTCHAR uni0919
ENCODING 2329
SWIDTH 505 0
DWIDTH 7 0
BBX 7 9 0 0
BITMAP
AAB8
0050
1A90
2004
1A90
0020
1020
2560
0640
ENDCHAR
STARTCHAR uni091A
ENCODING 2330
SWIDTH 563 0
DWIDTH 8 0
BBX 8 9 0 0
BITMAP
AAAE
0008
6E48
1408
2008
1418
0AA8
0008
0004
ENDCHAR
STARTCHAR uni091B
ENCODING 2331
SWIDTH 581 0
DWIDTH 8 0
BBX 9 8 0 1
BITMAP
BAAE40
200800
206800
1D0800
200800
200800
200800
1AA400
ENDCHAR
STARTCHAR uni091C
ENCODING 2332
SWIDTH 547 0
DWIDTH 8 0
BBX 8 9 0 0
BITMAP
AAAE
0014
2EB4
0214
0214
0214
0214
6914
0004
ENDCHAR
STARTCHAR uni091D
ENCODING 2333
SWIDTH 664 0
DWIDTH 9 0
BBX 10 9 0 0
BITMAP
AAEB90
1A8200
200200
200200
1AEB00
005200
205200
2A8200
200100
ENDCHAR
STARTCHAR uni091E
ENCODING 2334
SWIDTH 592 0
DWIDTH 8 0
BBX 9 9 0 0
BITMAP
AAAE40
000800
290800
020800
02AC00
020800
690800
000800
000400
ENDCHAR
STARTCHAR uni091F
ENCODING 2335
SWIDTH 485 0
DWIDTH 7 0
BBX 7 8 0 1
BITMAP
AAF8
0050
1A90
2000
2000
2010
2020
1A90
ENDCHAR
STARTCHAR uni0920
ENCODING 2336
SWIDTH 512 0
DWIDTH 7 0
BBX 8 8 0 1
BITMAP
AAB9
0050
1AD0
2020
2020
2020
2020
1A90
ENDCHAR
STARTCHAR uni0921
ENCODING 2337
SWIDTH 475 0
DWIDTH 7 0
BBX 7 9 0 0
BITMAP
AAB8
0050
1A90
2000
1A90
0020
1020
2460
0640
ENDCHAR
STARTCHAR uni0922
ENCODING 2338
SWIDTH 485 0
DWIDTH 7 0
BBX 7 8 0 1
BITMAP
AAB8
0050
1A90
2000
21A0
2220
2020
1AA0
ENDCHAR
STARTCHAR uni0923
ENCODING 2339
SWIDTH 681 0
DWIDTH 10 0
BBX 10 9 0 0
BITMAP
BAEBA0
205140
205140
205140
208140
1A8140
000140
000140
000100
ENDCHAR
STARTCHAR uni0924
ENCODING 2340
SWIDTH 496 0
DWIDTH 7 0
BBX 7 9 0 0
BITMAP
AAB8
0020
1AA0
2020
2020
2020
2020
2420
0410
ENDCHAR
STARTCHAR uni0925
ENCODING 2341
SWIDTH 593 0
DWIDTH 8 0
BBX 8 9 1 0
BITMAP
6929
8220
0620
A820
8020
8030
6AA0
0020
0010
ENDCHAR
STARTCHAR uni0926
ENCODING 2342
SWIDTH 489 0
DWIDTH 7 0
BBX 7 9 0 0
BITMAP
AAB8
0020
1A90
2000
2010
2020
1AA0
0020
0010
ENDCHAR
STARTCHAR uni0927
ENCODING 2343
SWIDTH 560 0
DWIDTH 8 0
BBX 8 9 0 0
BITMAP
B86E
2008
2008
1E08
2008
2008
2018
1AA8
0004
ENDCHAR
STARTCHAR uni0928
ENCODING 2344
SWIDTH 473 0
DWIDTH 7 0
BBX 7 8 0 1
BITMAP
AAF8
0050
0050
2AD0
5050
1050
0050
0050
ENDCHAR
STARTCHAR uni0928093C
ENCODING 2345
SWIDTH 473 0
DWIDTH 7 0
BBX 7 9 0 0
BITMAP
AAF8
0050
0050
2AD0
5050
1050
0050
0050
0400
ENDCHAR
STARTCHAR uni092A
ENCODING 2346
SWIDTH 503 0
DWIDTH 7 0
BBX 7 9 0 0
BITMAP
BAB8
2020
2020
2020
2020
1AA0
0020
0020
0010
ENDCHAR
STARTCHAR uni092B
ENCODING 2347
SWIDTH 739 0
DWIDTH 10 0
BBX 11 9 0 0
BITMAP
BABAA4
202A80
202050
202050
206050
1AA050
002680
002000
001000
ENDCHAR
STARTCHAR uni092C
ENCODING 2348
SWIDTH 491 0
DWIDTH 7 0
BBX 7 9 0 0
BITMAP
AAB8
1A20
3420
2520
2160
20A0
1AA0
0020
0010
ENDCHAR
STARTCHAR uni092D
ENCODING 2349
SWIDTH 491 0
DWIDTH 7 0
BBX 7 9 0 0
BITMAP
91B8
2020
2020
3AA0
2020
1020
0020
0020
0010
ENDCHAR
STARTCHAR uni092E
ENCODING 2350
SWIDTH 490 0
DWIDTH 7 0
BBX 7 9 0 0
BITMAP
BAB8
2020
2020
3AA0
2020
1020
0020
0020
0010
ENDCHAR
STARTCHAR uni092F
ENCODING 2351
SWIDTH 564 0
DWIDTH 8 0
BBX 8 9 0 0
BITMAP
AEAE
0208
0208
2908
2008
2018
1A98
0008
0004
ENDCHAR
STARTCHAR uni0930
ENCODING 2352
SWIDTH 337 0
DWIDTH 5 0
BBX 5 9 0 0
BITMAP
AB80
0200
0200
0600
6800
2000
1400
0900
0100
ENDCHAR
STARTCHAR uni0930093C
ENCODING 2353
SWIDTH 347 0
DWIDTH 5 0
BBX 5 9 0 0
BITMAP
AB80
0200
0200
0200
6900
2000
1800
0500
8100
ENDCHAR
STARTCHAR uni0932
ENCODING 2354
SWIDTH 676 0
DWIDTH 9 0
BBX 10 9 0 0
BITMAP
AAAB90
000240
1A6A40
20C240
208240
204240
200240
1A0240
000100
ENDCHAR
STARTCHAR uni0933
ENCODING 2355
SWIDTH 672 0
DWIDTH 9 0
BBX 10 8 0 1
BITMAP
AAAE90
000800
1A5A00
209140
208140
208140
208140
1A6A00
ENDCHAR
STARTCHAR uni0933093C
ENCODING 2356
SWIDTH 672 0
DWIDTH 9 0
BBX 10 9 0 0
BITMAP
AAAE90
000800
1A5A00
209140
208140
208140
208140
1A6A00
050000
ENDCHAR
STARTCHAR uni0935
ENCODING 2357
SWIDTH 484 0
DWIDTH 7 0
BBX 7 9 0 0
BITMAP
AAB8
1A50
2050
2050
2050
2050
1A90
0050
0010
ENDCHAR
STARTCHAR uni0936
ENCODING 2358
SWIDTH 614 0
DWIDTH 9 0
BBX 9 9 0 0
BITMAP
1A4780
208500
108500
008500
6A0500
200500
180500
050500
010000
ENDCHAR
STARTCHAR uni0937
ENCODING 2359
SWIDTH 505 0
DWIDTH 7 0
BBX 8 9 0 0
BITMAP
BAB9
2420
2520
2160
2060
1AA0
0020
0020
0010
ENDCHAR
STARTCHAR uni0938
ENCODING 2360
SWIDTH 575 0
DWIDTH 8 0
BBX 8 9 0 0
BITMAP
AFAE
0508
0508
0808
6EA8
2008
1408
0808
0104
ENDCHAR
STARTCHAR uni0939
ENCODING 2361
SWIDTH 481 0
DWIDTH 7 0
BBX 7 10 0 -1
BITMAP
AAB8
0050
1A90
2000
2000
1E90
2020
2010
2000
1A90
ENDCHAR
STARTCHAR uni093C
ENCODING 2364
SWIDTH 0 0
DWIDTH 0 0
BBX 1 1 -2 -1
BITMAP
40
ENDCHAR
STARTCHAR uni093D
ENCODING 2365
SWIDTH 529 0
DWIDTH 7 0
BBX 6 9 1 0
BITMAP
2A40
5000
2000
1800
0140
0080
4090
6580
0540
ENDCHAR
STARTCHAR uni093E
ENCODING 2366
SWIDTH 231 0
DWIDTH 3 0
BBX 4 9 0 0
BITMAP
B9
20
20
20
20
20
20
20
10
ENDCHAR
STARTCHAR uni093F
ENCODING 2367
SWIDTH 231 0
DWIDTH 3 0
BBX 9 13 0 0
BITMAP
1AAA40
200080
200080
200000
B90000
200000
200000
200000
200000
200000
200000
200000
100000
ENDCHAR
STARTCHAR uni0940
ENCODING 2368
SWIDTH 231 0
DWIDTH 3 0
BBX 6 13 -2 0
BITMAP
6900
8200
8200
0200
0B90
0200
0200
0200
0200
0200
0200
0200
0100
ENDCHAR
STARTCHAR uni0941
ENCODING 2369
SWIDTH 0 0
DWIDTH 0 0
BBX 6 4 -5 -4
BITMAP
0180
8050
6050
1A80
ENDCHAR
STARTCHAR uni0942
ENCODING 2370
SWIDTH 0 0
DWIDTH 0 0
BBX 6 4 -4 -4
BITMAP
2A00
8180
8080
6450
ENDCHAR
STARTCHAR uni0943
ENCODING 2371
SWIDTH 0 0
DWIDTH 0 0
BBX 5 4 -4 -4
BITMAP
6800
8000
8140
6A00
ENDCHAR
STARTCHAR uni0945
ENCODING 2373
SWIDTH 0 0
DWIDTH 0 0
BBX 5 2 -4 10
BITMAP
8180
6A00
ENDCHAR
STARTCHAR uni0946
ENCODING 2374
SWIDTH 0 0
DWIDTH 0 0
BBX 4 5 -5 8
BITMAP
80
90
18
06
02
ENDCHAR
STARTCHAR uni0947
ENCODING 2375
SWIDTH 0 0
DWIDTH 0 0
BBX 3 5 -4 8
BITMAP
80
90
20
14
08
ENDCHAR
STARTCHAR uni0948
ENCODING 2376
SWIDTH 0 0
DWIDTH 0 0
BBX 4 5 -5 8
BITMAP
62
22
1A
0A
02
ENDCHAR
STARTCHAR uni0949
ENCODING 2377
SWIDTH 231 0
DWIDTH 3 0
BBX 5 13 -1 0
BITMAP
4040
5080
2A40
0000
2E40
0800
0800
0800
0800
0800
0800
0800
0400
ENDCHAR
STARTCHAR uni094A
ENCODING 2378
SWIDTH 231 0
DWIDTH 3 0
BBX 6 13 -2 0
BITMAP
8000
6000
1900
0200
0B90
0200
0200
0200
0200
0200
0200
0200
0100
ENDCHAR
STARTCHAR uni094B
ENCODING 2379
SWIDTH 231 0
DWIDTH 3 0
BBX 5 13 -1 0
BITMAP
8000
5000
2000
0800
2E40
0800
0800
0800
0800
0800
0800
0800
0400
ENDCHAR
STARTCHAR uni094C
ENCODING 2380
SWIDTH 231 0
DWIDTH 3 0
BBX 5 13 -1 0
BITMAP
8800
5800
2800
0800
2E40
0800
0800
0800
0800
0800
0800
0800
0400
ENDCHAR
STARTCHAR uni094D
ENCODING 2381
SWIDTH 0 0
DWIDTH 0 0
BBX 2 3 -2 -3
BITMAP
40
50
20
ENDCHAR
STARTCHAR uni0950
ENCODING 2384
SWIDTH 847 0
DWIDTH 12 0
BBX 10 11 1 1
BITMAP
000800
000000
000050
2A0A80
014000
024A80
2A0020
02A420
414820
824820
AA0A90
ENDCHAR
STARTCHAR uni0951
ENCODING 2385
SWIDTH 0 0
DWIDTH 0 0
BBX 1 3 -2 10
BITMAP
80
80
80
ENDCHAR
STARTCHAR uni0952
ENCODING 2386
SWIDTH 0 0
DWIDTH 0 0
BBX 5 1 -6 -2
BITMAP
AA80
ENDCHAR
STARTCHAR uni0953
ENCODING 2387
SWIDTH 0 0
DWIDTH 0 0
BBX 3 3 -4 10
BITMAP
50
20
04
ENDCHAR
STARTCHAR uni0954
ENCODING 2388
SWIDTH 0 0
DWIDTH 0 0
BBX 2 3 -2 10
BITMAP
20
50
40
ENDCHAR
STARTCHAR uni0915093C
ENCODING 2392
SWIDTH 725 0
DWIDTH 10 0
BBX 11 9 0 0
BITMAP
AABAA4
196A40
206080
205050
205050
205080
1A9640
005000
081000
ENDCHAR
STARTCHAR uni0916093C
ENCODING 2393
SWIDTH 696 0
DWIDTH 10 0
BBX 10 9 0 0
BITMAP
ABAAE0
020140
022940
065140
688140
205140
142A40
090140
510040
ENDCHAR
STARTCHAR uni0917093C
ENCODING 2394
SWIDTH 494 0
DWIDTH 7 0
BBX 7 9 0 0
BITMAP
AEB8
0820
0820
0820
1420
A020
0020
0020
1010
ENDCHAR
STARTCHAR uni091C093C
ENCODING 2395
SWIDTH 547 0
DWIDTH 8 0
BBX 8 9 0 0
BITMAP
AAAE
0014
2EB4
0214
0214
0214
0214
6914
2004
ENDCHAR
STARTCHAR uni0921093C
ENCODING 2396
SWIDTH 475 0
DWIDTH 7 0
BBX 7 10 0 -1
BITMAP
AAB8
0050
1A90
2000
1A90
0020
1020
2460
0640
0200
ENDCHAR
STARTCHAR uni0922093C
ENCODING 2397
SWIDTH 485 0
DWIDTH 7 0
BBX 7 10 0 -1
BITMAP
AAB8
0050
1A90
2000
21A0
2220
2020
1AA0
0000
0200
ENDCHAR
STARTCHAR uni092B093C
ENCODING 2398
SWIDTH 739 0
DWIDTH 10 0
BBX 11 9 0 0
BITMAP
BABAA4
202A80
202050
202050
206050
1AA050
002680
002000
041000
ENDCHAR
STARTCHAR uni092F093C
ENCODING 2399
SWIDTH 564 0
DWIDTH 8 0
BBX 8 9 0 0
BITMAP
AEAE
0208
0208
2908
2008
2018
1A98
0008
1004
ENDCHAR
STARTCHAR uni0960
ENCODING 2400
SWIDTH 753 0
DWIDTH 11 0
BBX 11 10 0 -1
BITMAP
AABAA8
002000
1AA190
206650
203990
00A200
026200
182290
101200
0002A0
ENDCHAR
STARTCHAR uni0961
ENCODING 2401
SWIDTH 676 0
DWIDTH 9 0
BBX 10 13 0 -4
BITMAP
AAAB90
000240
000240
1A6A40
20C240
208240
204240
1A0500
001400
001800
000E40
001400
000A40
ENDCHAR
STARTCHAR uni0964
ENCODING 2404
SWIDTH 286 0
DWIDTH 4 0
BBX 1 9 2 0
BITMAP
80
80
80
80
80
80
80
80
40
ENDCHAR
STARTCHAR uni0965
ENCODING 2405
SWIDTH 518 0
DWIDTH 7 0
BBX 4 9 2 0
BITMAP
82
82
82
82
82
82
82
82
41
ENDCHAR
STARTCHAR uni0966
ENCODING 2406
SWIDTH 519 0
DWIDTH 7 0
BBX 6 9 1 0
BITMAP
6A80
8090
8050
8050
8050
8050
8050
9580
1900
ENDCHAR
STARTCHAR uni0967
ENCODING 2407
SWIDTH 288 0
DWIDTH 4 0
BBX 3 9 0 0
BITMAP
2C
58
08
08
08
08
08
08
04
ENDCHAR
STARTCHAR uni0968
ENCODING 2408
SWIDTH 453 0
DWIDTH 6 0
BBX 6 9 0 0
BITMAP
2A90
6020
5020
0050
0140
1800
2000
6550
2A90
ENDCHAR
STARTCHAR uni0969
ENCODING 2409
SWIDTH 489 0
DWIDTH 7 0
BBX 6 9 0 0
BITMAP
2A90
5020
0020
02D0
0020
1020
5020
2560
0540
ENDCHAR
STARTCHAR uni096A
ENCODING 2410
SWIDTH 453 0
DWIDTH 6 0
BBX 7 9 0 0
BITMAP
01C0
0290
0550
0850
2050
5050
AAE4
0050
0040
ENDCHAR
STARTCHAR uni096B
ENCODING 2411
SWIDTH 480 0
DWIDTH 7 0
BBX 5 9 1 0
BITMAP
EA80
8000
AA40
8080
0080
4080
8080
9580
1900
ENDCHAR
STARTCHAR uni096C
ENCODING 2412
SWIDTH 495 0
DWIDTH 7 0
BBX 6 9 1 0
BITMAP
6A80
8000
8000
AA40
8080
8050
8090
9580
1900
ENDCHAR
STARTCHAR uni096D
ENCODING 2413
SWIDTH 380 0
DWIDTH 5 0
BBX 5 9 0 0
BITMAP
AAC0
0080
0140
0200
0500
0800
0800
1400
1000
ENDCHAR
STARTCHAR uni096E
ENCODING 2414
SWIDTH 523 0
DWIDTH 7 0
BBX 6 9 1 0
BITMAP
6A80
8050
8050
7A80
8090
8050
8050
9580
1940
ENDCHAR
STARTCHAR uni096F
ENCODING 2415
SWIDTH 493 0
DWIDTH 7 0
BBX 6 9 0 0
BITMAP
2A90
6020
5020
6020
2AB0
0020
0020
1560
1940
ENDCHAR
STARTCHAR uni0970
ENCODING 2416
SWIDTH 391 0
DWIDTH 5 0
BBX 5 5 0 2
BITMAP
2A40
5080
5080
5080
2A40
ENDCHAR
STARTCHAR uni0972
ENCODING 2418
SWIDTH 598 0
DWIDTH 8 0
BBX 9 13 0 0
BITMAP
004040
005080
002A40
000000
2A0A40
014800
014800
1A0800
01AC00
014800
014800
6A0800
000400
ENDCHAR
STARTCHAR Wgrave
ENCODING 7808
SWIDTH 795 0
DWIDTH 11 0
BBX 11 12 0 0
BITMAP
004000
005000
001000
503018
606414
208820
208820
208420
154550
0A0250
0A0280
0A0180
ENDCHAR
STARTCHAR wgrave
ENCODING 7809
SWIDTH 682 0
DWIDTH 10 0
BBX 9 10 0 0
BITMAP
024000
008000
000000
809080
50A080
216080
222140
161600
0A0A00
090900
ENDCHAR
STARTCHAR Wacute
ENCODING 7810
SWIDTH 795 0
DWIDTH 11 0
BBX 11 12 0 0
BITMAP
000400
001800
001000
503018
606414
208820
208820
208420
154550
0A0250
0A0280
0A0180
ENDCHAR
STARTCHAR wacute
ENCODING 7811
SWIDTH 682 0
DWIDTH 10 0
BBX 9 10 0 0
BITMAP
002400
005000
000000
809080
50A080
216080
222140
161600
0A0A00
090900
ENDCHAR
STARTCHAR Wdieresis
ENCODING 7812
SWIDTH 795 0
DWIDTH 11 0
BBX 11 12 0 0
BITMAP
008800
008800
000000
503018
606414
208820
208820
208420
154550
0A0250
0A0280
0A0180
ENDCHAR
STARTCHAR wdieresis
ENCODING 7813
SWIDTH 682 0
DWIDTH 10 0
BBX 9 10 0 0
BITMAP
021400
021400
000000
809080
50A080
216080
222140
161600
0A0A00
090900
ENDCHAR
STARTCHAR uni1E9E
ENCODING 7838
SWIDTH 542 0
DWIDTH 8 0
BBX 6 9 1 0
BITMAP
6A90
8080
8080
8200
8290
8020
8020
8020
8690
ENDCHAR
STARTCHAR Ygrave
ENCODING 7922
SWIDTH 493 0
DWIDTH 7 0
BBX 7 12 0 0
BITMAP
0400
0500
0100
5014
2020
1450
0880
0640
0300
0200
0200
0200
ENDCHAR
STARTCHAR ygrave
ENCODING 7923
SWIDTH 459 0
DWIDTH 6 0
BBX 6 12 0 -2
BITMAP
0800
0500
0000
5020
2060
2090
1480
0980
0A00
0600
0500
6800
ENDCHAR
STARTCHAR uni200B
ENCODING 8203
SWIDTH 0 0
DWIDTH 0 0
BBX 1 1 0 0
BITMAP
00
ENDCHAR
STARTCHAR uni200C
ENCODING 8204
SWIDTH 0 0
DWIDTH 0 0
BBX 2 15 -1 -3
BITMAP
10
50
50
50
50
50
50
50
50
50
50
50
50
50
50
ENDCHAR
STARTCHAR uni200D
ENCODING 8205
SWIDTH 0 0
DWIDTH 0 0
BBX 4 14 -2 -3
BITMAP
69
28
69
14
14
14
14
14
14
14
14
14
14
14
ENDCHAR
STARTCHAR endash
ENCODING 8211
SWIDTH 408 0
DWIDTH 6 0
BBX 5 1 0 4
BITMAP
6A80
ENDCHAR
STARTCHAR emdash
ENCODING 8212
SWIDTH 537 0
DWIDTH 8 0
BBX 7 1 0 4
BITMAP
6AA8
ENDCHAR
STARTCHAR quoteleft
ENCODING 8216
SWIDTH 179 0
DWIDTH 3 0
BBX 1 3 1 6
BITMAP
40
80
80
ENDCHAR
STARTCHAR quoteright
ENCODING 8217
SWIDTH 179 0
DWIDTH 3 0
BBX 1 3 1 6
BITMAP
80
80
40
ENDCHAR
STARTCHAR quotesinglbase
ENCODING 8218
SWIDTH 187 0
DWIDTH 3 0
BBX 1 3 1 -1
BITMAP
80
80
40
ENDCHAR
STARTCHAR quotedblleft
ENCODING 8220
SWIDTH 329 0
DWIDTH 5 0
BBX 3 3 1 6
BITMAP
44
88
88
ENDCHAR
STARTCHAR quotedblright
ENCODING 8221
SWIDTH 329 0
DWIDTH 5 0
BBX 3 3 1 6
BITMAP
88
88
44
ENDCHAR
STARTCHAR quotedblbase
ENCODING 8222
SWIDTH 337 0
DWIDTH 5 0
BBX 3 3 1 -1
BITMAP
88
88
44
ENDCHAR
STARTCHAR dagger
ENCODING 8224
SWIDTH 427 0
DWIDTH 6 0
BBX 6 9 0 0
BITMAP
0500
0500
6A90
0500
0500
0500
0500
0500
0500
ENDCHAR
STARTCHAR daggerdbl
ENCODING 8225
SWIDTH 427 0
DWIDTH 6 0
BBX 6 9 0 0
BITMAP
0500
0500
6A90
0500
0500
0500
6A90
0500
0500
ENDCHAR
STARTCHAR bullet
ENCODING 8226
SWIDTH 273 0
DWIDTH 4 0
BBX 2 2 1 3
BITMAP
A0
A0
ENDCHAR
STARTCHAR ellipsis
ENCODING 8230
SWIDTH 591 0
DWIDTH 8 0
BBX 7 2 1 0
BITMAP
8514
8614
ENDCHAR
STARTCHAR perthousand
ENCODING 8240
SWIDTH 1027 0
DWIDTH 14 0
BBX 14 9 0 0
BITMAP
2A040000
51480000
51540000
2A200000
00500000
00868290
00545820
02145820
020A86A0
ENDCHAR
STARTCHAR guilsinglleft
ENCODING 8249
SWIDTH 290 0
DWIDTH 4 0
BBX 2 5 1 1
BITMAP
10
50
80
50
10
ENDCHAR
STARTCHAR guilsinglright
ENCODING 8250
SWIDTH 290 0
DWIDTH 4 0
BBX 2 5 1 1
BITMAP
40
50
20
50
40
ENDCHAR
STARTCHAR fraction
ENCODING 8260
SWIDTH 117 0
DWIDTH 2 0
BBX 7 9 -3 0
BITMAP
0004
0014
0020
0080
0140
0500
0800
2000
5000
ENDCHAR
STARTCHAR Euro
ENCODING 8364
SWIDTH 523 0
DWIDTH 7 0
BBX 7 9 0 0
BITMAP
0AA0
1414
1400
7A40
1400
7A40
1400
1414
0AA0
ENDCHAR
STARTCHAR uni20B9
ENCODING 8377
SWIDTH 414 0
DWIDTH 6 0
BBX 6 9 0 0
BITMAP
6B90
6B90
0200
0200
6800
2000
1800
0500
0100
ENDCHAR
STARTCHAR trademark
ENCODING 8482
SWIDTH 591 0
DWIDTH 8 0
BBX 7 4 1 5
BITMAP
B614
1264
1194
1104
ENDCHAR
STARTCHAR uni2126
ENCODING 8486
SWIDTH 629 0
DWIDTH 9 0
BBX 8 9 0 0
BITMAP
0AA8
2405
2005
2005
2005
2005
2005
1919
691A
ENDCHAR
STARTCHAR partialdiff
ENCODING 8706
SWIDTH 481 0
DWIDTH 7 0
BBX 5 10 1 0
BITMAP
2400
0600
0080
6A80
80C0
8080
8080
8080
9580
1500
ENDCHAR
STARTCHAR uni2206
ENCODING 8710
SWIDTH 594 0
DWIDTH 8 0
BBX 8 9 0 0
BITMAP
0180
0290
0520
0820
0814
1408
2008
6556
6AA9
ENDCHAR
STARTCHAR minus
ENCODING 8722
SWIDTH 523 0
DWIDTH 7 0
BBX 6 1 1 4
BITMAP
AA90
ENDCHAR
STARTCHAR approxequal
ENCODING 8776
SWIDTH 523 0
DWIDTH 7 0
BBX 6 4 1 3
BITMAP
A450
4680
0000
AA80
ENDCHAR
STARTCHAR notequal
ENCODING 8800
SWIDTH 523 0
DWIDTH 7 0
BBX 6 7 1 1
BITMAP
0100
AA90
0400
0800
AE90
1400
1000
ENDCHAR
STARTCHAR lessequal
ENCODING 8804
SWIDTH 523 0
DWIDTH 7 0
BBX 6 6 1 2
BITMAP
0150
6900
A400
0680
0000
AA90
ENDCHAR
STARTCHAR greaterequal
ENCODING 8805
SWIDTH 523 0
DWIDTH 7 0
BBX 6 6 1 2
BITMAP
9000
1A40
0190
A900
0000
AA90
ENDCHAR
STARTCHAR uni25CC
ENCODING 9676
SWIDTH 701 0
DWIDTH 10 0
BBX 8 8 1 1
BITMAP
2760
0009
9000
0003
8000
2006
0018
09C0
ENDCHAR
STARTCHAR commaaccent
ENCODING 63171
SWIDTH 0 0
DWIDTH 0 0
BBX 2 3 2 -4
BITMAP
60
50
40
ENDCHAR
STARTCHAR .notdef
ENCODING -1
SWIDTH 600 0
DWIDTH 8 0
BBX 6 9 1 0
BITMAP
6AA0
5020
5020
5020
5020
5020
5020
5020
6AA0
ENDCHAR
STARTCHAR .null
ENCODING -1
SWIDTH 0 0
DWIDTH 0 0
BBX 1 1 0 0
BITMAP
00
ENDCHAR
STARTCHAR nonmarkingreturn
ENCODING -1
SWIDTH 333 0
DWIDTH 5 0
BBX 1 1 0 0
BITMAP
00
ENDCHAR
STARTCHAR uni0915094D
ENCODING -1
SWIDTH 519 0
DWIDTH 7 0
BBX 9 9 0 0
BITMAP
AABA80
196A40
206040
205000
205000
205000
1A9000
005000
001000
ENDCHAR
STARTCHAR uni0916094D
ENCODING -1
SWIDTH 468 0
DWIDTH 7 0
BBX 8 9 0 0
BITMAP
ABAA
0200
0228
0650
6880
2051
142A
0900
0100
ENDCHAR
STARTCHAR uni0917094D
ENCODING -1
SWIDTH 264 0
DWIDTH 4 0
BBX 4 6 0 3
BITMAP
AE
08
08
08
14
A0
ENDCHAR
STARTCHAR uni0918094D
ENCODING -1
SWIDTH 321 0
DWIDTH 5 0
BBX 6 8 0 1
BITMAP
BAA0
2000
2000
1E00
2000
2000
2010
1A90
ENDCHAR
STARTCHAR uni0919094D
ENCODING -1
SWIDTH 505 0
DWIDTH 7 0
BBX 7 12 0 -3
BITMAP
AAB8
0050
1A90
2004
1A90
0020
1020
2560
0640
0200
0180
0040
ENDCHAR
STARTCHAR uni091A094D
ENCODING -1
SWIDTH 330 0
DWIDTH 5 0
BBX 7 8 0 1
BITMAP
AAA4
0000
0000
6E40
1400
2000
1410
0AA0
ENDCHAR
STARTCHAR uni091B094D
ENCODING -1
SWIDTH 581 0
DWIDTH 8 0
BBX 9 8 0 1
BITMAP
BAAA40
200000
206400
1D0800
200800
200800
200800
1AA400
ENDCHAR
STARTCHAR uni091C094D
ENCODING -1
SWIDTH 309 0
DWIDTH 4 0
BBX 6 8 0 1
BITMAP
AAA0
0000
0000
2AA0
0200
0200
0200
6900
ENDCHAR
STARTCHAR uni091D094D
ENCODING -1
SWIDTH 432 0
DWIDTH 6 0
BBX 8 9 0 0
BITMAP
AAE9
1A80
2000
2000
1AE9
2050
2050
2A80
2000
ENDCHAR
STARTCHAR uni091E094D
ENCODING -1
SWIDTH 359 0
DWIDTH 5 0
BBX 7 8 0 1
BITMAP
AAA4
0000
2900
0200
0200
02A4
0200
6900
ENDCHAR
STARTCHAR uni091F094D
ENCODING -1
SWIDTH 485 0
DWIDTH 7 0
BBX 7 12 0 -3
BITMAP
AAF8
0050
1A90
2000
2000
2010
2020
1A90
0000
0200
0080
0040
ENDCHAR
STARTCHAR uni0920094D
ENCODING -1
SWIDTH 512 0
DWIDTH 7 0
BBX 8 12 0 -3
BITMAP
AAB9
0050
1AD0
2020
2020
2020
2020
1A90
0000
0200
0180
0040
ENDCHAR
STARTCHAR uni0921094D
ENCODING -1
SWIDTH 475 0
DWIDTH 7 0
BBX 7 12 0 -3
BITMAP
AAB8
0050
1A90
2000
1A90
0020
1020
2460
0640
0100
0180
0040
ENDCHAR
STARTCHAR uni0922094D
ENCODING -1
SWIDTH 485 0
DWIDTH 7 0
BBX 7 12 0 -3
BITMAP
AAB8
0050
1A90
2000
21A0
2220
2020
1AA0
0000
0200
0080
0040
ENDCHAR
STARTCHAR uni0923094D
ENCODING -1
SWIDTH 454 0
DWIDTH 6 0
BBX 7 7 0 2
BITMAP
BAE4
2050
2050
2050
2050
2080
1A40
ENDCHAR
STARTCHAR uni0924094D
ENCODING -1
SWIDTH 263 0
DWIDTH 4 0
BBX 5 9 0 0
BITMAP
AA80
0000
1A80
2000
2000
2000
2000
2400
0400
ENDCHAR
STARTCHAR uni0925094D
ENCODING -1
SWIDTH 359 0
DWIDTH 5 0
BBX 6 8 1 1
BITMAP
6800
8200
4200
0500
A800
8000
8010
6A80
ENDCHAR
STARTCHAR uni0926094D
ENCODING -1
SWIDTH 489 0
DWIDTH 7 0
BBX 7 11 0 -2
BITMAP
AAB8
0020
1A90
2000
2010
2020
1AA0
0020
0110
0140
0040
ENDCHAR
STARTCHAR uni0927094D
ENCODING -1
SWIDTH 321 0
DWIDTH 5 0
BBX 7 8 0 1
BITMAP
B964
2000
2000
1E00
2000
2000
2010
1A90
ENDCHAR
STARTCHAR uni0928094D
ENCODING -1
SWIDTH 233 0
DWIDTH 3 0
BBX 5 6 0 3
BITMAP
AA40
0000
0000
0000
6A40
5000
ENDCHAR
STARTCHAR uni092A094D
ENCODING -1
SWIDTH 269 0
DWIDTH 4 0
BBX 6 7 0 2
BITMAP
BA90
2000
2000
2000
2000
2010
1A80
ENDCHAR
STARTCHAR uni092B094D
ENCODING -1
SWIDTH 530 0
DWIDTH 7 0
BBX 10 9 0 0
BITMAP
BABA90
202A80
202040
202000
206000
1AA000
002000
002000
001000
ENDCHAR
STARTCHAR uni092C094D
ENCODING -1
SWIDTH 265 0
DWIDTH 4 0
BBX 6 8 0 1
BITMAP
AA90
0000
1A00
3400
2500
2150
2090
1A80
ENDCHAR
STARTCHAR uni092D094D
ENCODING -1
SWIDTH 261 0
DWIDTH 4 0
BBX 5 7 0 2
BITMAP
9180
2000
2000
2000
3A80
2000
1000
ENDCHAR
STARTCHAR uni092E094D
ENCODING -1
SWIDTH 261 0
DWIDTH 4 0
BBX 5 7 0 2
BITMAP
BA80
2000
2000
2000
3A80
2000
1000
ENDCHAR
STARTCHAR uni092F094D
ENCODING -1
SWIDTH 323 0
DWIDTH 5 0
BBX 6 8 0 1
BITMAP
AEA0
0200
0200
2900
2000
2000
2010
0A90
ENDCHAR
STARTCHAR uni0930094D
ENCODING -1
SWIDTH 337 0
DWIDTH 5 0
BBX 5 12 0 -3
BITMAP
AB80
0200
0200
0600
6800
2000
1400
0900
0100
0800
0500
0100
ENDCHAR
STARTCHAR uni0932094D
ENCODING -1
SWIDTH 431 0
DWIDTH 6 0
BBX 8 8 0 1
BITMAP
AAAA
0000
1A69
20C1
2080
2040
2000
1A00
ENDCHAR
STARTCHAR uni0933094D
ENCODING -1
SWIDTH 677 0
DWIDTH 9 0
BBX 10 8 0 1
BITMAP
AAAA90
000000
1A6A00
209140
208140
208140
208140
1A6A00
ENDCHAR
STARTCHAR uni0935094D
ENCODING -1
SWIDTH 255 0
DWIDTH 4 0
BBX 6 8 0 1
BITMAP
AA90
0000
1A00
2000
2000
2010
2050
1A80
ENDCHAR
STARTCHAR uni0936094D
ENCODING -1
SWIDTH 378 0
DWIDTH 5 0
BBX 5 9 0 0
BITMAP
1A40
2080
1080
0080
6A00
2000
1800
0500
0100
ENDCHAR
STARTCHAR uni0937094D
ENCODING -1
SWIDTH 282 0
DWIDTH 4 0
BBX 6 7 0 2
BITMAP
BAA0
2400
2500
2200
2080
2060
1A80
ENDCHAR
STARTCHAR uni0938094D
ENCODING -1
SWIDTH 338 0
DWIDTH 5 0
BBX 7 9 0 0
BITMAP
AFA4
0500
0500
0800
6EA4
2000
1400
0800
0100
ENDCHAR
STARTCHAR uni0939094D
ENCODING -1
SWIDTH 457 0
DWIDTH 6 0
BBX 8 10 0 -1
BITMAP
AAB8
0050
1A90
2000
2000
1EAA
2000
2000
2000
1A90
ENDCHAR
STARTCHAR uni0915093C094D
ENCODING -1
SWIDTH 519 0
DWIDTH 7 0
BBX 9 9 0 0
BITMAP
AABA80
196A40
206040
205000
205000
205000
1A9000
005000
141000
ENDCHAR
STARTCHAR uni0916093C094D
ENCODING -1
SWIDTH 463 0
DWIDTH 6 0
BBX 8 9 0 0
BITMAP
ABAA
0200
0228
0650
6880
2051
142A
0900
1100
ENDCHAR
STARTCHAR uni0917093C094D
ENCODING -1
SWIDTH 264 0
DWIDTH 4 0
BBX 4 9 0 0
BITMAP
AE
08
08
18
A0
00
00
00
10
ENDCHAR
STARTCHAR uni091C093C094D
ENCODING -1
SWIDTH 314 0
DWIDTH 4 0
BBX 6 10 0 -1
BITMAP
AAA0
0000
0000
2AA0
0200
0200
0200
6900
0000
1000
ENDCHAR
STARTCHAR uni0928093C094D
ENCODING -1
SWIDTH 241 0
DWIDTH 3 0
BBX 5 10 0 -1
BITMAP
AA80
0000
0000
0000
2A80
5000
1000
0000
0000
0400
ENDCHAR
STARTCHAR uni092B093C094D
ENCODING -1
SWIDTH 530 0
DWIDTH 7 0
BBX 10 9 0 0
BITMAP
BABA90
202A80
202040
202000
206000
1AA000
002000
002000
041000
ENDCHAR
STARTCHAR uni092F093C094D
ENCODING -1
SWIDTH 325 0
DWIDTH 5 0
BBX 6 10 0 -1
BITMAP
AEA0
0200
0200
2900
2000
2000
2010
0A90
0000
0800
ENDCHAR
STARTCHAR uni09080902
ENCODING -1
SWIDTH 478 0
DWIDTH 7 0
BBX 7 13 0 0
BITMAP
00A4
0140
0150
0140
AAB8
0050
1A90
2000
1A90
0020
2020
3560
2640
ENDCHAR
STARTCHAR uni09300941
ENCODING -1
SWIDTH 533 0
DWIDTH 7 0
BBX 8 9 0 0
BITMAP
ABA9
0200
03A0
0518
6808
2024
1490
0900
0100
ENDCHAR
STARTCHAR uni09300942
ENCODING -1
SWIDTH 645 0
DWIDTH 9 0
BBX 9 9 0 0
BITMAP
ABAA80
020000
022A00
065200
685200
200200
141800
090000
010000
ENDCHAR
STARTCHAR uni09390941
ENCODING -1
SWIDTH 495 0
DWIDTH 7 0
BBX 7 13 0 -4
BITMAP
AAB8
0050
1A90
2000
2000
1E90
2020
2010
2000
1A90
1020
2020
0A90
ENDCHAR
STARTCHAR uni09390942
ENCODING -1
SWIDTH 492 0
DWIDTH 7 0
BBX 7 13 0 -4
BITMAP
AAB8
0050
0050
1A90
2000
1E90
2020
2500
1A80
2060
2020
2020
1914
ENDCHAR
STARTCHAR uni09260943
ENCODING -1
SWIDTH 390 0
DWIDTH 5 0
BBX 6 8 0 1
BITMAP
ABD0
0140
1A40
2000
2E00
2000
2000
1A80
ENDCHAR
STARTCHAR uni09390943
ENCODING -1
SWIDTH 519 0
DWIDTH 7 0
BBX 8 11 0 -2
BITMAP
AAB9
0050
2A90
2000
2EA4
2208
2200
2250
2060
2000
1A90
ENDCHAR
STARTCHAR uni094D0930
ENCODING -1
SWIDTH 0 0
DWIDTH 0 0
BBX 5 3 -6 -2
BITMAP
0400
2600
5140
ENDCHAR
STARTCHAR uni0930094D.1
ENCODING -1
SWIDTH 192 0
DWIDTH 3 0
BBX 5 4 -1 5
BITMAP
2A00
0000
4040
6A40
ENDCHAR
STARTCHAR uni0930094D.2
ENCODING -1
SWIDTH 0 0
DWIDTH 0 0
BBX 3 5 -2 8
BITMAP
64
80
80
80
40
ENDCHAR
STARTCHAR uni0930094D0902
ENCODING -1
SWIDTH 0 0
DWIDTH 0 0
BBX 3 5 -2 8
BITMAP
64
80
90
80
40
ENDCHAR
STARTCHAR uni093E0930094D
ENCODING -1
SWIDTH 231 0
DWIDTH 3 0
BBX 4 13 0 0
BITMAP
19
20
20
20
B9
20
20
20
20
20
20
20
10
ENDCHAR
STARTCHAR uni093E0930094D0902
ENCODING -1
SWIDTH 231 0
DWIDTH 3 0
BBX 4 13 0 0
BITMAP
19
21
20
20
B9
20
20
20
20
20
20
20
10
ENDCHAR
STARTCHAR uni0930094D.aMatraI
ENCODING -1
SWIDTH 0 0
DWIDTH 0 0
BBX 3 3 -1 9
BITMAP
64
80
80
ENDCHAR
STARTCHAR uni0902.aMatraI
ENCODING -1
SWIDTH 0 0
DWIDTH 0 0
BBX 2 1 0 10
BITMAP
50
ENDCHAR
STARTCHAR uni0930094D0902.aMatraI
ENCODING -1
SWIDTH 0 0
DWIDTH 0 0
BBX 3 3 -1 9
BITMAP
64
94
80
ENDCHAR
STARTCHAR uni09400930094D
ENCODING -1
SWIDTH 231 0
DWIDTH 3 0
BBX 6 13 -2 0
BITMAP
6990
8200
8200
0200
0B90
0200
0200
0200
0200
0200
0200
0200
0100
ENDCHAR
STARTCHAR uni09400902
ENCODING -1
SWIDTH 231 0
DWIDTH 3 0
BBX 6 13 -2 0
BITMAP
6900
8250
4200
0200
0B90
0200
0200
0200
0200
0200
0200
0200
0100
ENDCHAR
STARTCHAR uni09400930094D0902
ENCODING -1
SWIDTH 231 0
DWIDTH 3 0
BBX 6 13 -2 0
BITMAP
6990
8210
0200
0200
0B90
0200
0200
0200
0200
0200
0200
0200
0100
ENDCHAR
STARTCHAR uni0940.aLong
ENCODING -1
SWIDTH 231 0
DWIDTH 3 0
BBX 10 13 -6 0
BITMAP
2AA900
500200
500200
000200
000B90
000200
000200
000200
000200
000200
000200
000200
000100
ENDCHAR
STARTCHAR uni09400930094D.aLong
ENCODING -1
SWIDTH 231 0
DWIDTH 3 0
BBX 10 13 -6 0
BITMAP
2AA990
500200
500200
000200
000B90
000200
000200
000200
000200
000200
000200
000200
000100
ENDCHAR
STARTCHAR uni09400902.aLong
ENCODING -1
SWIDTH 231 0
DWIDTH 3 0
BBX 10 13 -6 0
BITMAP
2AA900
500210
400200
000200
000B90
000200
000200
000200
000200
000200
000200
000200
000100
ENDCHAR
STARTCHAR uni09400930094D0902.aLong
ENCODING -1
SWIDTH 231 0
DWIDTH 3 0
BBX 10 13 -6 0
BITMAP
2AA990
500210
000200
000200
000B90
000200
000200
000200
000200
000200
000200
000200
000100
ENDCHAR
STARTCHAR uni09470930094D
ENCODING -1
SWIDTH 0 0
DWIDTH 0 0
BBX 5 4 -4 9
BITMAP
8640
5800
2800
0800
ENDCHAR
STARTCHAR uni09470902
ENCODING -1
SWIDTH 0 0
DWIDTH 0 0
BBX 5 5 -5 8
BITMAP
6000
2400
0880
0500
0200
ENDCHAR
STARTCHAR uni09470901
ENCODING -1
SWIDTH 0 0
DWIDTH 0 0
BBX 7 5 -4 8
BITMAP
8040
9808
2808
16A0
0800
ENDCHAR
STARTCHAR uni09470930094D0902
ENCODING -1
SWIDTH 0 0
DWIDTH 0 0
BBX 5 4 -4 9
BITMAP
8640
5800
2900
0800
ENDCHAR
STARTCHAR uni09480930094D
ENCODING -1
SWIDTH 0 0
DWIDTH 0 0
BBX 6 4 -5 9
BITMAP
5590
2600
0A00
0600
ENDCHAR
STARTCHAR uni09480902
ENCODING -1
SWIDTH 0 0
DWIDTH 0 0
BBX 6 4 -5 9
BITMAP
6200
2650
0A00
0200
ENDCHAR
STARTCHAR uni09480901
ENCODING -1
SWIDTH 0 0
DWIDTH 0 0
BBX 9 4 -5 9
BITMAP
620400
268080
0A2A40
060000
ENDCHAR
STARTCHAR uni09480930094D0902
ENCODING -1
SWIDTH 0 0
DWIDTH 0 0
BBX 6 4 -5 9
BITMAP
5590
2600
0A40
0600
ENDCHAR
STARTCHAR uni094B0930094D
ENCODING -1
SWIDTH 231 0
DWIDTH 3 0
BBX 5 13 -1 0
BITMAP
8640
5800
2800
0C00
2E40
0800
0800
0800
0800
0800
0800
0800
0400
ENDCHAR
STARTCHAR uni094B0902
ENCODING -1
SWIDTH 231 0
DWIDTH 3 0
BBX 5 13 -1 0
BITMAP
8000
5200
2000
0800
2E40
0800
0800
0800
0800
0800
0800
0800
0400
ENDCHAR
STARTCHAR uni094B0930094D0902
ENCODING -1
SWIDTH 231 0
DWIDTH 3 0
BBX 5 13 -1 0
BITMAP
8640
5800
2840
0C00
2E40
0800
0800
0800
0800
0800
0800
0800
0400
ENDCHAR
STARTCHAR uni094C0930094D
ENCODING -1
SWIDTH 231 0
DWIDTH 3 0
BBX 6 13 -2 0
BITMAP
6690
2640
0B00
0700
0B90
0200
0200
0200
0200
0200
0200
0200
0100
ENDCHAR
STARTCHAR uni094C0902
ENCODING -1
SWIDTH 231 0
DWIDTH 3 0
BBX 5 13 -1 0
BITMAP
8800
5940
2800
0C00
2E40
0800
0800
0800
0800
0800
0800
0800
0400
ENDCHAR
STARTCHAR uni094C0930094D0902
ENCODING -1
SWIDTH 231 0
DWIDTH 3 0
BBX 6 13 -2 0
BITMAP
6690
2650
0B00
0700
0B90
0200
0200
0200
0200
0200
0200
0200
0100
ENDCHAR
STARTCHAR uni0915094D0937
ENCODING -1
SWIDTH 656 0
DWIDTH 9 0
BBX 9 9 1 0
BITMAP
2A0A40
514800
514800
BBAC00
804800
814800
AA4800
014800
004400
ENDCHAR
STARTCHAR uni0915094D0937094D
ENCODING -1
SWIDTH 429 0
DWIDTH 6 0
BBX 7 9 1 0
BITMAP
2A00
5140
5140
BBA4
8040
8140
AA40
0140
0040
ENDCHAR
STARTCHAR uni0915094D0937094D092E
ENCODING -1
SWIDTH 933 0
DWIDTH 13 0
BBX 12 9 1 0
BITMAP
2A1EAE
514808
514808
400AA8
804808
814408
AA4008
014008
004004
ENDCHAR
STARTCHAR uni0915094D0937094D092E094D
ENCODING -1
SWIDTH 717 0
DWIDTH 10 0
BBX 11 9 1 0
BITMAP
2A1EA4
514800
514800
400AA4
804800
814400
AA4000
014000
004000
ENDCHAR
STARTCHAR uni0915094D0937094D092E094D092F
ENCODING -1
SWIDTH 1283 0
DWIDTH 18 0
BBX 17 9 1 0
BITMAP
2A1EABEB80
5148008200
5148004200
400AA80200
8048080200
8144080600
AA4002A600
0140000200
0040000100
ENDCHAR
STARTCHAR uni0915094D0937094D092F
ENCODING -1
SWIDTH 989 0
DWIDTH 14 0
BBX 13 9 1 0
BITMAP
2A1BAB80
51408200
51408200
7BAA4200
80480200
81480600
AA46A600
01400200
00400100
ENDCHAR
STARTCHAR uni0915094D0937094D0935
ENCODING -1
SWIDTH 936 0
DWIDTH 13 0
BBX 13 9 1 0
BITMAP
2A1AAE40
51428800
51440800
BBA80800
80480800
81480800
AA46A800
01400800
00400400
ENDCHAR
STARTCHAR uni091C094D091E
ENCODING -1
SWIDTH 629 0
DWIDTH 9 0
BBX 9 10 0 -1
BITMAP
AAAB80
000500
1AA900
200500
1A9500
002500
202500
3A9500
200100
200000
ENDCHAR
STARTCHAR uni091C094D091E094D
ENCODING -1
SWIDTH 398 0
DWIDTH 6 0
BBX 7 9 0 0
BITMAP
AAA8
0000
1AA8
2000
1A90
2020
2020
3A90
2000
ENDCHAR
STARTCHAR uni091C094D091E094D092F
ENCODING -1
SWIDTH 975 0
DWIDTH 14 0
BBX 14 10 0 -1
BITMAP
AAAAEBE0
00005140
1AA85140
20068140
1A950140
00260240
2021AA40
3A900140
20000000
20000000
ENDCHAR
STARTCHAR uni0915094D0928
ENCODING -1
SWIDTH 1003 0
DWIDTH 14 0
BBX 14 9 0 0
BITMAP
AABAAAE0
196A4080
20608080
2050AA80
20508080
20504080
1A900080
00500080
00100040
ENDCHAR
STARTCHAR uni0916094D0928
ENCODING -1
SWIDTH 958 0
DWIDTH 13 0
BBX 14 9 0 0
BITMAP
ABAAAB90
02000200
022A0200
0651EB00
68514200
202B4200
14004200
09000200
01000100
ENDCHAR
STARTCHAR uni0917094D0928
ENCODING -1
SWIDTH 736 0
DWIDTH 10 0
BBX 11 9 0 0
BITMAP
AEAAE4
080080
080080
086AC0
148080
A08080
000080
000080
000040
ENDCHAR
STARTCHAR uni0918094D0928
ENCODING -1
SWIDTH 814 0
DWIDTH 11 0
BBX 12 9 0 0
BITMAP
BAAAB9
200020
2E0020
201AB0
202420
202020
1AA420
000020
000010
ENDCHAR
STARTCHAR uni091A094D0928
ENCODING -1
SWIDTH 829 0
DWIDTH 12 0
BBX 12 8 0 1
BITMAP
AAAABE
000014
6E4014
140AB4
141414
142414
0A9414
000014
ENDCHAR
STARTCHAR uni091B094D0928
ENCODING -1
SWIDTH 977 0
DWIDTH 14 0
BBX 14 9 0 0
BITMAP
BAAAAAE0
20640140
20080140
1D09AB40
20094140
20094140
20080140
1AA40140
00000040
ENDCHAR
STARTCHAR uni091C094D0928
ENCODING -1
SWIDTH 831 0
DWIDTH 12 0
BBX 12 8 0 1
BITMAP
AAAABE
000014
000014
2AAEB4
021414
020414
020014
690014
ENDCHAR
STARTCHAR uni091D094D0928
ENCODING -1
SWIDTH 935 0
DWIDTH 13 0
BBX 14 9 0 0
BITMAP
AAEAAB90
1A800200
20000200
2001AA00
1AEA0200
20510200
20500200
2A800200
20000100
ENDCHAR
STARTCHAR uni091F094D0928
ENCODING -1
SWIDTH 494 0
DWIDTH 7 0
BBX 7 13 0 -4
BITMAP
AAB8
0050
0050
1A90
2000
2010
2020
1AA0
0050
1A90
2050
2050
0050
ENDCHAR
STARTCHAR uni0920094D0928
ENCODING -1
SWIDTH 516 0
DWIDTH 7 0
BBX 8 13 0 -4
BITMAP
AAB9
0020
0050
1AD0
2020
2024
2020
1AA0
0050
1A90
2050
2050
0050
ENDCHAR
STARTCHAR uni0921094D0928
ENCODING -1
SWIDTH 481 0
DWIDTH 7 0
BBX 7 13 0 -4
BITMAP
AAB8
0050
1A90
2000
2000
1A90
1020
2020
1A90
0050
2A90
2050
1050
ENDCHAR
STARTCHAR uni0924094D0928
ENCODING -1
SWIDTH 756 0
DWIDTH 11 0
BBX 11 9 0 0
BITMAP
AAAAF8
000050
1A8050
207AD0
205050
201050
200050
240050
040040
ENDCHAR
STARTCHAR uni0925094D0928
ENCODING -1
SWIDTH 855 0
DWIDTH 12 0
BBX 11 9 1 0
BITMAP
696AB8
820020
060020
A82AA0
802020
806020
6A9020
000020
000010
ENDCHAR
STARTCHAR uni0926094D0928
ENCODING -1
SWIDTH 955 0
DWIDTH 13 0
BBX 14 12 0 -3
BITMAP
AABAAB90
00200200
1A900200
2001AB00
20120200
20200200
1AA00200
00200200
00100100
00100000
00180000
00040000
ENDCHAR
STARTCHAR uni0927094D0928
ENCODING -1
SWIDTH 814 0
DWIDTH 11 0
BBX 12 9 0 0
BITMAP
B92AB9
200020
2E0020
201AB0
202420
202020
1AA420
000020
000010
ENDCHAR
STARTCHAR uni0928094D0928
ENCODING -1
SWIDTH 738 0
DWIDTH 10 0
BBX 11 9 0 0
BITMAP
AAAAE4
000080
000080
2AAAC0
508080
104080
000080
000080
000040
ENDCHAR
STARTCHAR uni092A094D0928
ENCODING -1
SWIDTH 782 0
DWIDTH 11 0
BBX 11 9 0 0
BITMAP
BAAAB8
200020
200020
202AA0
206020
1AA020
000020
000020
000010
ENDCHAR
STARTCHAR uni092B094D0928
ENCODING -1
SWIDTH 1013 0
DWIDTH 14 0
BBX 15 9 0 0
BITMAP
BABAAAE4
202A4080
20208080
2020AAC0
20608080
1AA04080
00200080
00200080
00100040
ENDCHAR
STARTCHAR uni092C094D0928
ENCODING -1
SWIDTH 810 0
DWIDTH 11 0
BBX 12 9 0 0
BITMAP
AAAAB9
1A0020
340020
291AB0
226020
209020
1A8020
000020
000010
ENDCHAR
STARTCHAR uni092D094D0928
ENCODING -1
SWIDTH 757 0
DWIDTH 11 0
BBX 11 8 0 1
BITMAP
91AAF8
200050
200050
3ABAD0
205050
101050
000050
000050
ENDCHAR
STARTCHAR uni092E094D0928
ENCODING -1
SWIDTH 757 0
DWIDTH 11 0
BBX 11 8 0 1
BITMAP
BAAAF8
200050
200050
3ABAD0
205050
101050
000050
000050
ENDCHAR
STARTCHAR uni092F094D0928
ENCODING -1
SWIDTH 829 0
DWIDTH 12 0
BBX 12 8 0 1
BITMAP
AEAABE
020014
020014
290AB4
201414
202414
1A9414
000014
ENDCHAR
STARTCHAR uni0935094D0928
ENCODING -1
SWIDTH 798 0
DWIDTH 11 0
BBX 12 9 0 0
BITMAP
AAAAB9
1A0020
200020
201AB0
202020
205020
1A8020
000020
000010
ENDCHAR
STARTCHAR uni0936094D0928
ENCODING -1
SWIDTH 845 0
DWIDTH 12 0
BBX 12 9 0 0
BITMAP
1A4AAE
208008
108008
008AA8
6A0808
200808
180008
050008
010004
ENDCHAR
STARTCHAR uni0938094D0928
ENCODING -1
SWIDTH 831 0
DWIDTH 12 0
BBX 12 9 0 0
BITMAP
AFAABE
050014
050014
080AB4
6EA414
201414
140014
080014
010000
ENDCHAR
STARTCHAR uni0939094D0928
ENCODING -1
SWIDTH 500 0
DWIDTH 7 0
BBX 7 10 0 -1
BITMAP
AAB8
0020
1AA0
2000
1EB4
20A4
2254
2254
2000
1A90
ENDCHAR
STARTCHAR uni0915094D0930
ENCODING -1
SWIDTH 725 0
DWIDTH 10 0
BBX 11 9 0 0
BITMAP
AABAA4
196A40
206080
205050
205050
205080
1B9640
065000
081000
ENDCHAR
STARTCHAR uni0916094D0930
ENCODING -1
SWIDTH 698 0
DWIDTH 10 0
BBX 10 9 0 0
BITMAP
ABAAE0
020140
022940
065140
685140
205140
142A40
090540
012040
ENDCHAR
STARTCHAR uni0917094D0930
ENCODING -1
SWIDTH 494 0
DWIDTH 7 0
BBX 7 9 0 0
BITMAP
AEB8
0820
0820
0820
1420
A0A0
0220
0820
1010
ENDCHAR
STARTCHAR uni0918094D0930
ENCODING -1
SWIDTH 559 0
DWIDTH 8 0
BBX 8 9 0 0
BITMAP
BAAE
2008
2008
1E08
2008
2018
1AE8
0148
0904
ENDCHAR
STARTCHAR uni0919094D0930
ENCODING -1
SWIDTH 505 0
DWIDTH 7 0
BBX 7 11 0 -2
BITMAP
AAB8
0050
1A90
2004
1A90
0020
0020
2560
1B80
0880
2450
ENDCHAR
STARTCHAR uni091A094D0930
ENCODING -1
SWIDTH 563 0
DWIDTH 8 0
BBX 8 9 0 0
BITMAP
AAAE
0008
6E48
1408
2008
1418
0AE8
0188
0504
ENDCHAR
STARTCHAR uni091B094D0930
ENCODING -1
SWIDTH 581 0
DWIDTH 8 0
BBX 9 10 0 -1
BITMAP
BAAE40
200800
206800
1D0800
200800
200800
200800
1AA400
029000
082000
ENDCHAR
STARTCHAR uni091C094D0930
ENCODING -1
SWIDTH 547 0
DWIDTH 8 0
BBX 8 9 0 0
BITMAP
AAAE
0014
2AB4
0214
0214
0224
6964
0194
0204
ENDCHAR
STARTCHAR uni091D094D0930
ENCODING -1
SWIDTH 684 0
DWIDTH 10 0
BBX 10 9 0 0
BITMAP
AAEBE0
1A8140
200140
200140
1AEB40
205240
205740
2A9940
202100
ENDCHAR
STARTCHAR uni091E094D0930
ENCODING -1
SWIDTH 598 0
DWIDTH 8 0
BBX 9 9 0 0
BITMAP
AAAE40
290800
020800
020800
02AC00
020800
692800
008800
010400
ENDCHAR
STARTCHAR uni091F094D0930
ENCODING -1
SWIDTH 485 0
DWIDTH 7 0
BBX 7 10 0 -1
BITMAP
AAF8
0050
1A90
2000
2000
2020
2020
1A90
0980
1850
ENDCHAR
STARTCHAR uni0920094D0930
ENCODING -1
SWIDTH 512 0
DWIDTH 7 0
BBX 8 10 0 -1
BITMAP
AAB9
0050
1AD0
2020
2020
2020
2020
1A90
0980
1850
ENDCHAR
STARTCHAR uni0921094D0930
ENCODING -1
SWIDTH 475 0
DWIDTH 7 0
BBX 7 10 0 -1
BITMAP
AAB8
0050
1A90
2000
1A90
0020
2020
2560
0A80
1490
ENDCHAR
STARTCHAR uni0922094D0930
ENCODING -1
SWIDTH 485 0
DWIDTH 7 0
BBX 7 10 0 -1
BITMAP
AAB8
0050
1A90
2000
21A0
2220
2020
1AA0
0580
1860
ENDCHAR
STARTCHAR uni0923094D0930
ENCODING -1
SWIDTH 681 0
DWIDTH 10 0
BBX 10 9 0 0
BITMAP
BAEBA0
205140
205140
205140
208240
1A8640
001540
006140
004100
ENDCHAR
STARTCHAR uni0924094D0930
ENCODING -1
SWIDTH 493 0
DWIDTH 7 0
BBX 7 9 0 0
BITMAP
AAB8
0020
1AA0
2060
2020
00A0
0260
1820
1010
ENDCHAR
STARTCHAR uni0925094D0930
ENCODING -1
SWIDTH 593 0
DWIDTH 8 0
BBX 8 9 1 0
BITMAP
6929
8220
0620
A820
8020
8030
6AA0
0620
1810
ENDCHAR
STARTCHAR uni0926094D0930
ENCODING -1
SWIDTH 489 0
DWIDTH 7 0
BBX 7 9 0 0
BITMAP
AAB8
0020
1A90
2000
2010
2020
1AA0
0260
0510
ENDCHAR
STARTCHAR uni0927094D0930
ENCODING -1
SWIDTH 560 0
DWIDTH 8 0
BBX 8 9 0 0
BITMAP
B86E
2008
2008
1E08
2008
2018
1AE8
0188
0604
ENDCHAR
STARTCHAR uni0928094D0930
ENCODING -1
SWIDTH 473 0
DWIDTH 7 0
BBX 7 9 0 0
BITMAP
AAF8
0050
0050
2AD0
5090
1190
0550
1850
1000
ENDCHAR
STARTCHAR uni092A094D0930
ENCODING -1
SWIDTH 503 0
DWIDTH 7 0
BBX 7 9 0 0
BITMAP
BAB8
2020
2020
2020
2020
1AA0
0220
0820
1010
ENDCHAR
STARTCHAR uni092B094D0930
ENCODING -1
SWIDTH 741 0
DWIDTH 10 0
BBX 11 9 0 0
BITMAP
BABAA4
202A80
202050
202050
206050
1AA050
022680
082000
101000
ENDCHAR
STARTCHAR uni092C094D0930
ENCODING -1
SWIDTH 491 0
DWIDTH 7 0
BBX 7 9 0 0
BITMAP
AAB8
1A20
3420
2520
2160
20A0
1BA0
0220
0810
ENDCHAR
STARTCHAR uni092D094D0930
ENCODING -1
SWIDTH 491 0
DWIDTH 7 0
BBX 7 9 0 0
BITMAP
91B8
2020
2020
3AA0
20A0
11A0
0620
0820
1010
ENDCHAR
STARTCHAR uni092E094D0930
ENCODING -1
SWIDTH 490 0
DWIDTH 7 0
BBX 7 9 0 0
BITMAP
BAB8
2020
2020
3AA0
20A0
1160
0620
0820
1010
ENDCHAR
STARTCHAR uni092F094D0930
ENCODING -1
SWIDTH 564 0
DWIDTH 8 0
BBX 8 9 0 0
BITMAP
AEAE
0208
0208
2908
2008
2018
1AE8
0248
0904
ENDCHAR
STARTCHAR uni0935094D0930
ENCODING -1
SWIDTH 484 0
DWIDTH 7 0
BBX 7 9 0 0
BITMAP
AAB8
1A50
2050
2050
2050
2050
1B90
0650
0810
ENDCHAR
STARTCHAR uni0936094D0930
ENCODING -1
SWIDTH 558 0
DWIDTH 8 0
BBX 8 9 0 0
BITMAP
2A4E
2088
2088
1648
1A48
50A8
0198
0908
0004
ENDCHAR
STARTCHAR uni0938094D0930
ENCODING -1
SWIDTH 604 0
DWIDTH 8 0
BBX 9 9 0 0
BITMAP
AFAE40
050900
050900
080900
6EAD00
202900
149900
080900
010400
ENDCHAR
STARTCHAR uni0939094D0930
ENCODING -1
SWIDTH 505 0
DWIDTH 7 0
BBX 7 10 0 -1
BITMAP
AAB8
0020
2AA0
2000
1EB0
20A0
2190
2210
2000
1A90
ENDCHAR
STARTCHAR uni0915093C094D0930
ENCODING -1
SWIDTH 725 0
DWIDTH 10 0
BBX 11 10 0 -1
BITMAP
AABAA4
196A40
206080
205050
205050
205080
1B9640
065000
081000
010000
ENDCHAR
STARTCHAR uni0916093C094D0930
ENCODING -1
SWIDTH 698 0
DWIDTH 10 0
BBX 10 10 0 -1
BITMAP
ABAAE0
020140
022940
065140
685140
205140
142A40
090540
012040
000800
ENDCHAR
STARTCHAR uni0917093C094D0930
ENCODING -1
SWIDTH 494 0
DWIDTH 7 0
BBX 7 10 0 -1
BITMAP
AEB8
0820
0820
0820
1420
A0A0
0220
0820
1010
0100
ENDCHAR
STARTCHAR uni091C093C094D0930
ENCODING -1
SWIDTH 547 0
DWIDTH 8 0
BBX 8 9 0 0
BITMAP
AAAE
0014
2EB4
0214
0214
0214
0224
6994
4204
ENDCHAR
STARTCHAR uni0921093C094D0930
ENCODING -1
SWIDTH 475 0
DWIDTH 7 0
BBX 7 10 0 -1
BITMAP
AAB8
0050
1A90
2000
1A90
0020
2020
2560
0B80
9890
ENDCHAR
STARTCHAR uni0922093C094D0930
ENCODING -1
SWIDTH 485 0
DWIDTH 7 0
BBX 7 10 0 -1
BITMAP
AAB8
0050
1A90
2000
21A0
2220
2020
1AA0
8580
1860
ENDCHAR
STARTCHAR uni0928093C094D0930
ENCODING -1
SWIDTH 473 0
DWIDTH 7 0
BBX 7 10 0 -1
BITMAP
AAF8
0050
0050
2AD0
5090
1190
0550
1850
1000
0400
ENDCHAR
STARTCHAR uni092B093C094D0930
ENCODING -1
SWIDTH 741 0
DWIDTH 10 0
BBX 11 10 0 -1
BITMAP
BABAA4
202A80
202050
202050
206050
1AA050
022680
082000
101000
010000
ENDCHAR
STARTCHAR uni092F093C094D0930
ENCODING -1
SWIDTH 564 0
DWIDTH 8 0
BBX 8 10 0 -1
BITMAP
AEAE
0208
0208
2908
2008
2018
1AE8
0248
0904
0040
ENDCHAR
STARTCHAR uni0915094D0930094D
ENCODING -1
SWIDTH 518 0
DWIDTH 7 0
BBX 9 9 0 0
BITMAP
AABA80
196A40
206040
205000
205000
205000
1B9000
055000
081000
ENDCHAR
STARTCHAR uni0916094D0930094D
ENCODING -1
SWIDTH 469 0
DWIDTH 7 0
BBX 8 9 0 0
BITMAP
ABAA
0200
0228
0650
6850
2051
1429
0904
0120
ENDCHAR
STARTCHAR uni0917094D0930094D
ENCODING -1
SWIDTH 264 0
DWIDTH 4 0
BBX 6 9 0 0
BITMAP
AE00
0800
0800
1800
A090
0140
0600
0800
1000
ENDCHAR
STARTCHAR uni0918094D0930094D
ENCODING -1
SWIDTH 319 0
DWIDTH 4 0
BBX 6 10 0 -1
BITMAP
BAA0
2000
2000
1E00
2000
2000
2010
1AD0
0240
0500
ENDCHAR
STARTCHAR uni091A094D0930094D
ENCODING -1
SWIDTH 331 0
DWIDTH 5 0
BBX 7 10 0 -1
BITMAP
AAA0
0000
0000
6E40
1400
2000
1414
0AE0
0140
0500
ENDCHAR
STARTCHAR uni091C094D0930094D
ENCODING -1
SWIDTH 312 0
DWIDTH 4 0
BBX 6 10 0 -1
BITMAP
AAA0
0000
0000
2AA0
0200
0200
0210
6960
0180
0200
ENDCHAR
STARTCHAR uni091D094D0930094D
ENCODING -1
SWIDTH 441 0
DWIDTH 6 0
BBX 8 9 0 0
BITMAP
AAE9
1A80
2000
2000
1AEA
2052
2056
2A98
2020
ENDCHAR
STARTCHAR uni091E094D0930094D
ENCODING -1
SWIDTH 374 0
DWIDTH 5 0
BBX 7 9 0 0
BITMAP
AAA4
2900
0200
0200
02A8
0208
6924
0090
0040
ENDCHAR
STARTCHAR uni091F094D0930094D
ENCODING -1
SWIDTH 485 0
DWIDTH 7 0
BBX 7 13 0 -4
BITMAP
AAF8
0050
0050
1A90
2000
2000
2020
1AA0
0680
0890
1110
0140
0080
ENDCHAR
STARTCHAR uni0920094D0930094D
ENCODING -1
SWIDTH 512 0
DWIDTH 7 0
BBX 8 13 0 -4
BITMAP
AAB9
0050
0050
1AD0
2020
2020
2020
1AA0
0580
0850
1110
0180
0080
ENDCHAR
STARTCHAR uni0921094D0930094D
ENCODING -1
SWIDTH 475 0
DWIDTH 7 0
BBX 7 13 0 -4
BITMAP
AAB8
0050
1A90
2000
1A90
0020
0020
2560
1B80
0880
1450
0100
0080
ENDCHAR
STARTCHAR uni0922094D0930094D
ENCODING -1
SWIDTH 485 0
DWIDTH 7 0
BBX 7 13 0 -4
BITMAP
AAB8
0050
1A90
2000
21A0
2220
2020
1AA0
0580
1860
0140
0080
0040
ENDCHAR
STARTCHAR uni0923094D0930094D
ENCODING -1
SWIDTH 457 0
DWIDTH 6 0
BBX 8 9 0 0
BITMAP
BAE4
2050
2050
2050
2082
1A85
0014
0060
0040
ENDCHAR
STARTCHAR uni0924094D0930094D
ENCODING -1
SWIDTH 268 0
DWIDTH 4 0
BBX 6 9 0 0
BITMAP
AAA0
0000
1A80
2050
2010
0090
0240
1800
1000
ENDCHAR
STARTCHAR uni0925094D0930094D
ENCODING -1
SWIDTH 358 0
DWIDTH 5 0
BBX 6 10 1 -1
BITMAP
6800
8200
4200
0500
A800
8000
8010
6A80
0500
1400
ENDCHAR
STARTCHAR uni0926094D0930094D
ENCODING -1
SWIDTH 489 0
DWIDTH 7 0
BBX 7 12 0 -3
BITMAP
AAB8
0020
1A90
2000
2010
2020
1AA0
0260
0510
0080
0050
0010
ENDCHAR
STARTCHAR uni0927094D0930094D
ENCODING -1
SWIDTH 322 0
DWIDTH 5 0
BBX 6 10 0 -1
BITMAP
B860
2000
2000
1E00
2000
2000
2010
1AE0
0140
0500
ENDCHAR
STARTCHAR uni0928094D0930094D
ENCODING -1
SWIDTH 247 0
DWIDTH 3 0
BBX 6 9 0 0
BITMAP
AA90
0000
0000
2A90
5050
1140
0600
1800
1000
ENDCHAR
STARTCHAR uni092A094D0930094D
ENCODING -1
SWIDTH 270 0
DWIDTH 4 0
BBX 6 9 0 0
BITMAP
BA80
2000
2000
2000
2050
1A80
0200
0800
1000
ENDCHAR
STARTCHAR uni092B094D0930094D
ENCODING -1
SWIDTH 523 0
DWIDTH 7 0
BBX 10 9 -1 0
BITMAP
6EAEA0
081A90
081810
081400
081400
06E400
015400
061400
040400
ENDCHAR
STARTCHAR uni092C094D0930094D
ENCODING -1
SWIDTH 267 0
DWIDTH 4 0
BBX 6 10 0 -1
BITMAP
AA90
0000
1A00
3400
2500
2140
2090
1B80
0600
0800
ENDCHAR
STARTCHAR uni092D094D0930094D
ENCODING -1
SWIDTH 257 0
DWIDTH 4 0
BBX 6 9 0 0
BITMAP
9190
2000
2000
3A90
2080
1140
0600
0800
1000
ENDCHAR
STARTCHAR uni092E094D0930094D
ENCODING -1
SWIDTH 261 0
DWIDTH 4 0
BBX 6 9 0 0
BITMAP
BA90
2000
2000
3A90
2080
1140
0600
0800
1000
ENDCHAR
STARTCHAR uni092F094D0930094D
ENCODING -1
SWIDTH 323 0
DWIDTH 5 0
BBX 6 10 0 -1
BITMAP
AE90
0200
0200
2900
2000
2000
2010
1AD0
0240
0500
ENDCHAR
STARTCHAR uni0935094D0930094D
ENCODING -1
SWIDTH 255 0
DWIDTH 4 0
BBX 5 10 0 -1
BITMAP
AA40
0000
1A00
2000
2000
2000
2040
1B80
0600
0400
ENDCHAR
STARTCHAR uni0938094D0930094D
ENCODING -1
SWIDTH 347 0
DWIDTH 5 0
BBX 7 9 0 0
BITMAP
AFA0
0500
0500
0800
6EA4
2020
1480
0900
0100
ENDCHAR
STARTCHAR uni0915093C094D0930094D
ENCODING -1
SWIDTH 518 0
DWIDTH 7 0
BBX 9 10 0 -1
BITMAP
AABA80
196A40
206040
205000
205000
205000
1B9000
065000
081000
010000
ENDCHAR
STARTCHAR uni0916093C094D0930094D
ENCODING -1
SWIDTH 466 0
DWIDTH 7 0
BBX 8 10 0 -1
BITMAP
ABAA
0200
0228
0650
6850
2051
142A
0908
0120
0008
ENDCHAR
STARTCHAR uni0917093C094D0930094D
ENCODING -1
SWIDTH 264 0
DWIDTH 4 0
BBX 6 10 0 -1
BITMAP
AE00
0800
0800
1800
A090
0140
0600
0800
1000
0200
ENDCHAR
STARTCHAR uni091C093C094D0930094D
ENCODING -1
SWIDTH 320 0
DWIDTH 4 0
BBX 6 10 0 -1
BITMAP
AAA0
0000
0000
2AA0
0200
0200
0220
6990
0240
4000
ENDCHAR
STARTCHAR uni0928093C094D0930094D
ENCODING -1
SWIDTH 247 0
DWIDTH 3 0
BBX 6 10 0 -1
BITMAP
AA90
0000
0000
2A90
5050
1140
0600
1800
1000
0500
ENDCHAR
STARTCHAR uni092B093C094D0930094D
ENCODING -1
SWIDTH 523 0
DWIDTH 7 0
BBX 10 10 -1 -1
BITMAP
6EAEA0
081A90
081810
081400
081400
06E400
015400
061400
040400
014000
ENDCHAR
STARTCHAR uni092F093C094D0930094D
ENCODING -1
SWIDTH 323 0
DWIDTH 5 0
BBX 6 11 0 -2
BITMAP
AE90
0200
0200
2900
2000
2000
2010
1AD0
0240
0900
0040
ENDCHAR
STARTCHAR uni0915094D0915
ENCODING -1
SWIDTH 1255 0
DWIDTH 18 0
BBX 18 9 0 0
BITMAP
AABAAAEAA0
196A68AA00
2060908180
2050808080
2050808080
2050908180
1A902A8A00
0050008000
0010004000
ENDCHAR
STARTCHAR uni0915094D0916
ENCODING -1
SWIDTH 1256 0
DWIDTH 18 0
BBX 18 9 0 0
BITMAP
AABAABABE0
196A050140
2060852540
2050859140
2050A88140
2050604240
1A90140140
0050080140
0010010000
ENDCHAR
STARTCHAR uni0915094D091A
ENCODING -1
SWIDTH 1086 0
DWIDTH 15 0
BBX 16 9 0 0
BITMAP
AABAAAB9
196A0020
2061AA20
20502020
20505020
20502020
1A901AA0
00500020
00100010
ENDCHAR
STARTCHAR uni0915094D091C
ENCODING -1
SWIDTH 1071 0
DWIDTH 15 0
BBX 15 9 0 0
BITMAP
AABAAAB8
19500020
206A6EA0
20600820
20500520
20500520
1A900820
0050A420
00100010
ENDCHAR
STARTCHAR uni0915094D091F
ENCODING -1
SWIDTH 984 0
DWIDTH 14 0
BBX 14 9 0 0
BITMAP
AABAABA0
196A4140
2060AA40
20508000
20508000
20508080
1A908080
00506A40
00100000
ENDCHAR
STARTCHAR uni0915094D0923
ENCODING -1
SWIDTH 1183 0
DWIDTH 17 0
BBX 17 9 0 0
BITMAP
AABAEBAF80
1950814500
206A814500
2060814500
2050824500
20506A0500
1A90000500
0050000500
0010000400
ENDCHAR
STARTCHAR uni0915094D0924
ENCODING -1
SWIDTH 761 0
DWIDTH 11 0
BBX 11 9 0 0
BITMAP
AABAA8
002000
2EBA80
142460
142020
142020
142060
0A2280
001000
ENDCHAR
STARTCHAR uni0915094D0925
ENCODING -1
SWIDTH 1118 0
DWIDTH 16 0
BBX 16 9 0 0
BITMAP
AAB9691E
19504214
20500214
206AE914
20608014
20508024
1A902AA4
00500014
00100000
ENDCHAR
STARTCHAR uni0915094D0926
ENCODING -1
SWIDTH 1009 0
DWIDTH 14 0
BBX 15 9 0 0
BITMAP
AABAAAE4
196A4080
2060BA80
20508000
20508040
20508080
1A906A80
00500080
00100040
ENDCHAR
STARTCHAR uni0915094D092A
ENCODING -1
SWIDTH 1007 0
DWIDTH 14 0
BBX 15 9 0 0
BITMAP
AABAEAE4
19508080
206A8080
20608080
20508080
20506A80
1A900080
00500080
00100040
ENDCHAR
STARTCHAR uni0915094D092B
ENCODING -1
SWIDTH 1242 0
DWIDTH 17 0
BBX 18 9 0 0
BITMAP
AABAEAEA90
195080AA00
206A80C140
2060808080
2050818080
20506A8140
1A90009A00
0050008000
0010004000
ENDCHAR
STARTCHAR uni0915094D092E
ENCODING -1
SWIDTH 994 0
DWIDTH 14 0
BBX 14 9 0 0
BITMAP
AABAEAE0
19508080
206A8080
2060AA80
20508080
20504080
1A900080
00500080
00100040
ENDCHAR
STARTCHAR uni0915094D092F
ENCODING -1
SWIDTH 1076 0
DWIDTH 15 0
BBX 15 9 0 0
BITMAP
AABAAEB8
19500820
206AE420
20608020
20508020
20509060
1A902AA0
00500020
00100010
ENDCHAR
STARTCHAR uni0915094D0932
ENCODING -1
SWIDTH 1178 0
DWIDTH 16 0
BBX 17 9 0 0
BITMAP
AABAAAAE40
196A400500
2060A9A900
2050820900
2050820500
2050810500
1A90800500
0050680500
0010000400
ENDCHAR
STARTCHAR uni0915094D0935
ENCODING -1
SWIDTH 1013 0
DWIDTH 14 0
BBX 15 9 0 0
BITMAP
AABAAAE4
196A6880
20609080
20508080
20508080
20509080
1A902A80
00500080
00100040
ENDCHAR
STARTCHAR uni0915094D0936
ENCODING -1
SWIDTH 1194 0
DWIDTH 17 0
BBX 17 9 0 0
BITMAP
AABA1A4780
1950208500
206A408500
2060808500
20506A4500
2050200500
1A90180500
0050050500
0010010100
ENDCHAR
STARTCHAR uni0915094D0938
ENCODING -1
SWIDTH 1143 0
DWIDTH 16 0
BBX 16 9 0 0
BITMAP
AABAAEAE
196A4508
20608508
20508808
2050AEA8
20502008
1A901408
00500808
00100504
ENDCHAR
STARTCHAR uni0916094D0916
ENCODING -1
SWIDTH 1223 0
DWIDTH 17 0
BBX 18 9 0 0
BITMAP
ABAAAEAB90
0200080200
0228086200
0650088200
6880E48200
2050D08200
142A206A00
0900180200
0100040100
ENDCHAR
STARTCHAR uni0916094D0924
ENCODING -1
SWIDTH 984 0
DWIDTH 14 0
BBX 14 9 0 0
BITMAP
ABAAAAE0
02000180
02286A80
06508180
68814180
20514180
142A4180
09009180
01005040
ENDCHAR
STARTCHAR uni0916094D092E
ENCODING -1
SWIDTH 965 0
DWIDTH 14 0
BBX 14 9 0 0
BITMAP
ABAAEB90
02014140
02294140
0651EB40
68814140
20514140
142A0140
09000140
01000100
ENDCHAR
STARTCHAR uni0916094D092F
ENCODING -1
SWIDTH 1047 0
DWIDTH 15 0
BBX 15 9 0 0
BITMAP
ABAABAB8
02001450
02281450
0651A050
68814050
20518090
14296A90
09000050
01000010
ENDCHAR
STARTCHAR uni0916094D0935
ENCODING -1
SWIDTH 975 0
DWIDTH 14 0
BBX 14 9 0 0
BITMAP
ABAAABE0
02006540
02288140
06514140
68814140
20518240
1429AA40
09000140
01000000
ENDCHAR
STARTCHAR uni0916094D0936
ENCODING -1
SWIDTH 1123 0
DWIDTH 16 0
BBX 16 9 0 0
BITMAP
ABA8691E
02008214
02284214
06500214
6882A914
20524014
14299014
09002014
01000404
ENDCHAR
STARTCHAR uni0917094D0917
ENCODING -1
SWIDTH 744 0
DWIDTH 10 0
BBX 11 9 0 0
BITMAP
AEBAE4
082080
082080
082080
142080
A09080
000080
000080
000040
ENDCHAR
STARTCHAR uni0917094D0918
ENCODING -1
SWIDTH 823 0
DWIDTH 12 0
BBX 12 9 0 0
BITMAP
AEBABA
085014
085014
082914
142014
A05014
006024
002AA4
000010
ENDCHAR
STARTCHAR uni0917094D091C
ENCODING -1
SWIDTH 801 0
DWIDTH 11 0
BBX 12 9 0 0
BITMAP
AEAAB9
080020
086EB0
080520
140520
A00520
000520
00A820
000010
ENDCHAR
STARTCHAR uni0917094D0923
ENCODING -1
SWIDTH 945 0
DWIDTH 13 0
BBX 14 9 0 0
BITMAP
AEBAEB90
08508200
08508200
08508200
14208200
A01A4200
00000200
00000200
00000100
ENDCHAR
STARTCHAR uni0917094D0926
ENCODING -1
SWIDTH 748 0
DWIDTH 10 0
BBX 11 9 0 0
BITMAP
AEAAE4
080050
082A80
085000
145010
A05050
002A90
000050
000010
ENDCHAR
STARTCHAR uni0917094D0927
ENCODING -1
SWIDTH 823 0
DWIDTH 12 0
BBX 12 9 0 0
BITMAP
AEB8BA
085014
086014
082914
142014
A05014
006024
002AA4
000010
ENDCHAR
STARTCHAR uni0917094D092C
ENCODING -1
SWIDTH 755 0
DWIDTH 11 0
BBX 11 9 0 0
BITMAP
AEAAF8
082950
087050
085850
145150
A05090
002A90
000050
000040
ENDCHAR
STARTCHAR uni0917094D092D
ENCODING -1
SWIDTH 755 0
DWIDTH 11 0
BBX 11 9 0 0
BITMAP
AE92E8
085050
085050
087AD0
145050
A05050
001050
000050
000040
ENDCHAR
STARTCHAR uni0917094D092E
ENCODING -1
SWIDTH 754 0
DWIDTH 11 0
BBX 11 9 0 0
BITMAP
AEBAE8
085050
085050
087AD0
145050
A05050
001050
000050
000040
ENDCHAR
STARTCHAR uni0917094D092F
ENCODING -1
SWIDTH 828 0
DWIDTH 12 0
BBX 12 9 0 0
BITMAP
AEAEBE
080514
080514
086814
145014
A06024
001AA4
000014
000010
ENDCHAR
STARTCHAR uni0917094D0932
ENCODING -1
SWIDTH 924 0
DWIDTH 13 0
BBX 13 9 0 0
BITMAP
AEAAAB80
08000200
08296A00
08518600
14814200
A0814200
00500200
00290200
00000100
ENDCHAR
STARTCHAR uni0917094D0935
ENCODING -1
SWIDTH 747 0
DWIDTH 10 0
BBX 11 9 0 0
BITMAP
AEAAE4
082950
086050
085050
145050
A05090
002A90
000050
000040
ENDCHAR
STARTCHAR uni0917094D0938
ENCODING -1
SWIDTH 839 0
DWIDTH 12 0
BBX 12 9 0 0
BITMAP
AEAEAE
080814
080814
080814
14AAA4
A05014
002014
000814
000404
ENDCHAR
STARTCHAR uni0918094D092E
ENCODING -1
SWIDTH 818 0
DWIDTH 11 0
BBX 12 9 0 0
BITMAP
BABEB9
201424
201424
2E1EB4
201424
201424
201424
1AA024
000010
ENDCHAR
STARTCHAR uni0918094D092F
ENCODING -1
SWIDTH 867 0
DWIDTH 12 0
BBX 13 9 0 0
BITMAP
BAABAE40
20020800
20020800
1E290800
20200800
20200800
202EA800
1A900800
00000400
ENDCHAR
STARTCHAR uni091A094D091A
ENCODING -1
SWIDTH 868 0
DWIDTH 12 0
BBX 13 9 0 0
BITMAP
AAAAAE40
00000800
6E2E8800
14080800
20140800
14180800
0AA6A800
00000800
00000400
ENDCHAR
STARTCHAR uni091A094D091B
ENCODING -1
SWIDTH 922 0
DWIDTH 13 0
BBX 13 8 0 1
BITMAP
AAAEAB80
00080200
6E481900
140A4200
20080200
14180200
0AA80200
000AA900
ENDCHAR
STARTCHAR uni091A094D092E
ENCODING -1
SWIDTH 830 0
DWIDTH 12 0
BBX 12 8 0 1
BITMAP
AAAEBE
000814
6E4814
140EB4
200814
141414
0AA014
000014
ENDCHAR
STARTCHAR uni091A094D092F
ENCODING -1
SWIDTH 904 0
DWIDTH 13 0
BBX 13 9 0 0
BITMAP
AAABAB80
00014500
6E414500
141A0500
20140500
14180900
0AA6A900
00000500
00000100
ENDCHAR
STARTCHAR uni091B094D092F
ENCODING -1
SWIDTH 1068 0
DWIDTH 15 0
BBX 15 9 0 0
BITMAP
BAAAAAB8
206EA420
20080820
1D080820
20086820
20085060
20082A60
1AA40020
00000010
ENDCHAR
STARTCHAR uni091B094D0935
ENCODING -1
SWIDTH 581 0
DWIDTH 8 0
BBX 9 11 0 -2
BITMAP
BAAE40
200800
206800
1D0800
200800
200800
200800
1EA800
140800
141800
0AA000
ENDCHAR
STARTCHAR uni091C094D0915
ENCODING -1
SWIDTH 1054 0
DWIDTH 15 0
BBX 15 9 0 0
BITMAP
AAAABAA8
000A6A90
2EB42420
02202020
02202020
02142020
020AA290
69002000
00001000
ENDCHAR
STARTCHAR uni091C094D091C
ENCODING -1
SWIDTH 903 0
DWIDTH 13 0
BBX 13 8 0 1
BITMAP
AAAAAF80
00000500
2E97AD00
02008500
02008500
02008500
02008500
692A4500
ENDCHAR
STARTCHAR uni091C094D091D
ENCODING -1
SWIDTH 990 0
DWIDTH 14 0
BBX 14 9 0 0
BITMAP
AAAABAE0
000A9080
2EB40080
02140080
020AAA80
02002080
02142080
691A9080
00100040
ENDCHAR
STARTCHAR uni091C094D091F
ENCODING -1
SWIDTH 815 0
DWIDTH 11 0
BBX 12 8 0 1
BITMAP
AAAAB9
000020
2EAAA0
021400
021400
021408
021408
690AA0
ENDCHAR
STARTCHAR uni091C094D0921
ENCODING -1
SWIDTH 797 0
DWIDTH 11 0
BBX 12 9 0 0
BITMAP
AAAAB9
000020
2EAEA0
021400
020AA0
020024
021014
681560
000550
ENDCHAR
STARTCHAR uni091C094D0924
ENCODING -1
SWIDTH 830 0
DWIDTH 12 0
BBX 12 9 0 0
BITMAP
AAAABE
000014
2EAAB4
021414
021414
021414
021414
680914
000500
ENDCHAR
STARTCHAR uni091C094D0926
ENCODING -1
SWIDTH 817 0
DWIDTH 11 0
BBX 12 9 0 0
BITMAP
AAAAB9
000024
2EAEA0
021400
021404
021414
020AA4
690014
000004
ENDCHAR
STARTCHAR uni091C094D092C
ENCODING -1
SWIDTH 820 0
DWIDTH 11 0
BBX 12 9 0 0
BITMAP
AAAAB9
000A54
2EB814
022614
0220A4
021434
020AA4
690014
000010
ENDCHAR
STARTCHAR uni091C094D092E
ENCODING -1
SWIDTH 813 0
DWIDTH 11 0
BBX 12 9 0 0
BITMAP
AABAB9
001420
2EB420
021EB0
021420
021420
020020
690020
000010
ENDCHAR
STARTCHAR uni091C094D092F
ENCODING -1
SWIDTH 893 0
DWIDTH 13 0
BBX 13 9 0 0
BITMAP
AAABAE80
00014500
2EA14500
021A0500
02140500
02140900
0206A900
69000500
00000400
ENDCHAR
STARTCHAR uni091C094D0935
ENCODING -1
SWIDTH 813 0
DWIDTH 11 0
BBX 12 9 0 0
BITMAP
AAAAB9
000A60
2EA420
022420
022420
021420
020AA0
690020
000010
ENDCHAR
STARTCHAR uni091D094D092E
ENCODING -1
SWIDTH 936 0
DWIDTH 13 0
BBX 14 9 0 0
BITMAP
AAEBAB90
1A820200
20020200
2002AA00
1AEB0200
20510200
20500200
2A800200
20000100
ENDCHAR
STARTCHAR uni091D094D092F
ENCODING -1
SWIDTH 1000 0
DWIDTH 14 0
BBX 14 9 0 0
BITMAP
AAEAFAE0
1A802080
20002080
20029080
1AEA0080
20520180
2051A980
2A800080
20000040
ENDCHAR
STARTCHAR uni091E094D091B
ENCODING -1
SWIDTH 913 0
DWIDTH 13 0
BBX 13 8 0 1
BITMAP
AAAEAB80
29140500
02142D00
020E4200
02A80200
02140200
69180200
000AA900
ENDCHAR
STARTCHAR uni091E094D091C
ENCODING -1
SWIDTH 932 0
DWIDTH 13 0
BBX 13 9 0 0
BITMAP
AAAAAB80
00000200
2906EA00
02008200
02A05200
02005200
69008200
000A8200
00000100
ENDCHAR
STARTCHAR uni091E094D0936
ENCODING -1
SWIDTH 975 0
DWIDTH 14 0
BBX 14 9 0 0
BITMAP
AA8A91E0
29082140
02002140
02002140
02AA8140
02080140
69020140
00014140
00004040
ENDCHAR
STARTCHAR uni091F094D091F
ENCODING -1
SWIDTH 494 0
DWIDTH 7 0
BBX 7 13 0 -4
BITMAP
AAF8
0050
1A90
2000
2010
2020
1AD0
0590
2A40
2000
2010
2020
1A90
ENDCHAR
STARTCHAR uni091F094D0920
ENCODING -1
SWIDTH 495 0
DWIDTH 7 0
BBX 7 13 0 -4
BITMAP
AAF8
0050
1A90
2000
2010
2020
1AE0
0590
2AA0
2020
2020
2020
1A90
ENDCHAR
STARTCHAR uni091F094D092F
ENCODING -1
SWIDTH 990 0
DWIDTH 14 0
BBX 14 9 0 0
BITMAP
AAFAAAE0
00500080
1AAA9080
20002080
20002080
20129080
20214180
1A90AA80
00000040
ENDCHAR
STARTCHAR uni091F094D0935
ENCODING -1
SWIDTH 501 0
DWIDTH 7 0
BBX 7 11 0 -2
BITMAP
AAB8
0050
1A90
2000
2000
2014
2020
1EA0
2020
2020
1A90
ENDCHAR
STARTCHAR uni0920094D092F
ENCODING -1
SWIDTH 998 0
DWIDTH 14 0
BBX 14 9 0 0
BITMAP
AABAAAE0
00500080
1ADAA080
20242080
20202080
2021A080
20214180
1A90AA80
00000040
ENDCHAR
STARTCHAR uni0921094D0921
ENCODING -1
SWIDTH 493 0
DWIDTH 7 0
BBX 7 14 0 -5
BITMAP
AAB8
0050
1A90
2000
1A90
1020
2020
2E90
2000
2000
1A90
1020
2020
1A90
ENDCHAR
STARTCHAR uni0921094D0922
ENCODING -1
SWIDTH 493 0
DWIDTH 7 0
BBX 7 13 0 -4
BITMAP
AAB8
0050
0050
1A90
2000
1A90
1020
1110
21A0
2220
2120
2020
1A90
ENDCHAR
STARTCHAR uni0921094D092F
ENCODING -1
SWIDTH 973 0
DWIDTH 14 0
BBX 14 9 0 0
BITMAP
AABAABE0
00500140
1AAA9140
20002140
1A929140
00220140
10224240
2560A940
16400000
ENDCHAR
STARTCHAR uni0921094D0935
ENCODING -1
SWIDTH 493 0
DWIDTH 7 0
BBX 7 11 0 -2
BITMAP
AAB8
0050
1A90
2000
1A90
1020
2020
2EA0
2020
2020
1A90
ENDCHAR
STARTCHAR uni0922094D092F
ENCODING -1
SWIDTH 981 0
DWIDTH 14 0
BBX 14 9 0 0
BITMAP
AABAAAE0
00500140
1AAA9140
20002140
21A02140
22229140
21220140
1AA1AA40
00000040
ENDCHAR
STARTCHAR uni0923094D091F
ENCODING -1
SWIDTH 908 0
DWIDTH 13 0
BBX 13 8 0 1
BITMAP
BAEAAE80
20500500
2051A900
20520000
20820000
1A820200
00020200
0001A900
ENDCHAR
STARTCHAR uni0923094D0920
ENCODING -1
SWIDTH 936 0
DWIDTH 13 0
BBX 14 8 0 1
BITMAP
BAEAAB90
20500500
2051AD00
20520200
20820200
1A820200
00020200
0001A900
ENDCHAR
STARTCHAR uni0923094D0921
ENCODING -1
SWIDTH 892 0
DWIDTH 12 0
BBX 13 9 0 0
BITMAP
BAEAAE40
20500500
2052A800
20520000
2082A800
1A800600
00010200
00025900
00015400
ENDCHAR
STARTCHAR uni0923094D0922
ENCODING -1
SWIDTH 908 0
DWIDTH 13 0
BBX 13 8 0 1
BITMAP
BAEAAF80
20500500
2051A900
20520000
20821A00
1A822200
00020200
0001A900
ENDCHAR
STARTCHAR uni0923094D0923
ENCODING -1
SWIDTH 1127 0
DWIDTH 16 0
BBX 16 9 0 0
BITMAP
BAEBABAE
20520518
20520518
20520518
20824518
1A80A818
00000018
00000018
00000004
ENDCHAR
STARTCHAR uni0923094D092E
ENCODING -1
SWIDTH 932 0
DWIDTH 13 0
BBX 13 9 0 0
BITMAP
BAEBAB80
20520200
20520200
2052AA00
20820200
1A820200
00000200
00000200
00000100
ENDCHAR
STARTCHAR uni0923094D092F
ENCODING -1
SWIDTH 998 0
DWIDTH 14 0
BBX 14 9 0 0
BITMAP
BAEAFAE0
20502080
20502080
20529080
20820080
1A820180
0001A980
00000080
00000040
ENDCHAR
STARTCHAR uni0923094D0935
ENCODING -1
SWIDTH 923 0
DWIDTH 13 0
BBX 13 9 0 0
BITMAP
BAEAAB80
2051A200
20520200
20520200
20820200
1A420600
0001AA00
00000200
00000100
ENDCHAR
STARTCHAR uni0924094D0915
ENCODING -1
SWIDTH 992 0
DWIDTH 14 0
BBX 14 9 0 0
BITMAP
AAAAEAA0
0019AA40
1AA09080
20508080
20508080
20608080
202A8A40
24008000
04004000
ENDCHAR
STARTCHAR uni0924094D0916
ENCODING -1
SWIDTH 1014 0
DWIDTH 14 0
BBX 15 9 0 0
BITMAP
AAABAAE4
00020080
1A821880
20522080
20392080
20242080
20081A80
24020080
04010040
ENDCHAR
STARTCHAR uni0924094D0924
ENCODING -1
SWIDTH 542 0
DWIDTH 8 0
BBX 8 9 0 0
BITMAP
AABE
0014
6EB4
1414
1414
1414
1414
1914
0510
ENDCHAR
STARTCHAR uni0924094D0925
ENCODING -1
SWIDTH 869 0
DWIDTH 12 0
BBX 13 9 0 0
BITMAP
AA1A0A40
00214800
00014800
1AAA0800
20500800
20200C00
201AA800
24000800
04000400
ENDCHAR
STARTCHAR uni0924094D092A
ENCODING -1
SWIDTH 757 0
DWIDTH 11 0
BBX 11 9 0 0
BITMAP
AAFAF8
005050
1A9050
205050
206090
201A90
200050
240050
040000
ENDCHAR
STARTCHAR uni0924094D092B
ENCODING -1
SWIDTH 992 0
DWIDTH 14 0
BBX 14 9 0 0
BITMAP
AABAEAA0
0050AA40
1A909080
20508080
20608080
201A8080
20008A40
24008000
04004000
ENDCHAR
STARTCHAR uni0924094D092E
ENCODING -1
SWIDTH 764 0
DWIDTH 11 0
BBX 11 9 0 0
BITMAP
AABAB8
002050
1AA050
203AD0
202050
201050
200050
240050
040010
ENDCHAR
STARTCHAR uni0924094D092F
ENCODING -1
SWIDTH 830 0
DWIDTH 12 0
BBX 12 9 0 0
BITMAP
AAAEBE
000514
000514
1AA814
205014
206024
201AA4
240014
040000
ENDCHAR
STARTCHAR uni0924094D0932
ENCODING -1
SWIDTH 957 0
DWIDTH 13 0
BBX 14 9 0 0
BITMAP
AAAAAB90
00000200
1A9A6A00
2060C200
20208200
20204200
20200200
241A0200
04000100
ENDCHAR
STARTCHAR uni0924094D0935
ENCODING -1
SWIDTH 751 0
DWIDTH 11 0
BBX 11 9 0 0
BITMAP
AAAAE4
001950
1AA050
205050
205050
206090
202A90
240050
040040
ENDCHAR
STARTCHAR uni0924094D0938
ENCODING -1
SWIDTH 876 0
DWIDTH 12 0
BBX 13 9 0 0
BITMAP
AAABAE40
00060800
1A850800
20550800
207EAC00
20200800
20180800
24090800
04010400
ENDCHAR
STARTCHAR uni0925094D092F
ENCODING -1
SWIDTH 931 0
DWIDTH 13 0
BBX 12 9 1 0
BITMAP
696FAE
820208
460208
A82908
802008
802018
6A9AA8
000008
000004
ENDCHAR
STARTCHAR uni0925094D0935
ENCODING -1
SWIDTH 862 0
DWIDTH 12 0
BBX 11 9 1 0
BITMAP
696AB8
420A20
062020
A82020
802020
803020
6A9AA0
000020
000010
ENDCHAR
STARTCHAR uni0926094D0917
ENCODING -1
SWIDTH 489 0
DWIDTH 7 0
BBX 7 10 0 -1
BITMAP
AAB8
1AA0
2000
2000
2010
2020
1AA0
0820
0810
2400
ENDCHAR
STARTCHAR uni0926094D0918
ENCODING -1
SWIDTH 686 0
DWIDTH 10 0
BBX 10 9 0 0
BITMAP
AAABE0
000140
006A40
2A8000
514040
298180
50AA80
505080
2A8040
ENDCHAR
STARTCHAR uni0926094D0926
ENCODING -1
SWIDTH 506 0
DWIDTH 7 0
BBX 7 9 0 0
BITMAP
AAB8
1AA0
2000
2000
1E40
2020
2020
1AA0
0020
ENDCHAR
STARTCHAR uni0926094D0927
ENCODING -1
SWIDTH 686 0
DWIDTH 10 0
BBX 10 9 0 0
BITMAP
AAABE0
000140
00AA40
298000
514040
298180
50AA80
505080
2A8040
ENDCHAR
STARTCHAR uni0926094D092C
ENCODING -1
SWIDTH 481 0
DWIDTH 7 0
BBX 7 11 0 -2
BITMAP
AAB8
0020
1A90
2000
2000
2010
2020
1EA0
2520
21A0
1A80
ENDCHAR
STARTCHAR uni0926094D092D
ENCODING -1
SWIDTH 499 0
DWIDTH 7 0
BBX 7 12 0 -3
BITMAP
AAB8
0020
1AA0
2000
2010
2020
1AA0
6020
1420
1EA0
1420
0010
ENDCHAR
STARTCHAR uni0926094D092E
ENCODING -1
SWIDTH 706 0
DWIDTH 10 0
BBX 10 9 0 0
BITMAP
AAEAE0
1A8080
200080
500080
205080
1A9080
007A80
005080
000040
ENDCHAR
STARTCHAR uni0926094D092F
ENCODING -1
SWIDTH 583 0
DWIDTH 8 0
BBX 9 9 0 0
BITMAP
ABAE40
1A0800
200800
200800
1E0800
200800
200800
1AA800
000400
ENDCHAR
STARTCHAR uni0926094D0935
ENCODING -1
SWIDTH 483 0
DWIDTH 7 0
BBX 7 11 0 -2
BITMAP
AAB8
0020
1A90
2000
2000
2010
2020
1EA0
2020
2020
1A80
ENDCHAR
STARTCHAR uni0927094D092E
ENCODING -1
SWIDTH 817 0
DWIDTH 11 0
BBX 12 9 0 0
BITMAP
B92EB9
201414
201414
101EB4
201414
201414
201414
1AA014
000010
ENDCHAR
STARTCHAR uni0927094D092F
ENCODING -1
SWIDTH 886 0
DWIDTH 12 0
BBX 13 9 0 0
BITMAP
B92BAE40
20020800
20020800
1E1A0800
20200800
20140800
202AA800
1A900800
00000400
ENDCHAR
STARTCHAR uni0927094D0935
ENCODING -1
SWIDTH 810 0
DWIDTH 11 0
BBX 12 9 0 0
BITMAP
B92AB9
200A60
201420
1E2020
202020
201420
202AA0
1A9020
000010
ENDCHAR
STARTCHAR uni0928094D0915
ENCODING -1
SWIDTH 973 0
DWIDTH 14 0
BBX 14 9 0 0
BITMAP
AAAAEAA0
0028AA00
00508180
6AC08080
50808080
00908180
002A8A00
00008000
00004000
ENDCHAR
STARTCHAR uni0928094D091A
ENCODING -1
SWIDTH 820 0
DWIDTH 11 0
BBX 12 9 0 0
BITMAP
AAAAB9
000014
00AE14
002014
6A6014
502024
001AA4
000014
000010
ENDCHAR
STARTCHAR uni0928094D091B
ENCODING -1
SWIDTH 781 0
DWIDTH 11 0
BBX 11 8 0 1
BITMAP
AAEAB8
008020
008190
2AE420
508020
108020
008020
00AA90
ENDCHAR
STARTCHAR uni0928094D091F
ENCODING -1
SWIDTH 715 0
DWIDTH 10 0
BBX 10 8 0 1
BITMAP
AAAAE0
000080
002A40
2AC000
508000
508050
008090
006A80
ENDCHAR
STARTCHAR uni0928094D0921
ENCODING -1
SWIDTH 705 0
DWIDTH 10 0
BBX 10 9 0 0
BITMAP
AAAAE0
000080
006A40
6AC000
506A40
000080
004080
009580
001900
ENDCHAR
STARTCHAR uni0928094D0924
ENCODING -1
SWIDTH 717 0
DWIDTH 10 0
BBX 10 9 0 0
BITMAP
AAAAE0
000080
002A80
2A8080
508080
508080
008080
009080
001440
ENDCHAR
STARTCHAR uni0928094D0925
ENCODING -1
SWIDTH 804 0
DWIDTH 11 0
BBX 12 9 0 0
BITMAP
A86929
008220
000620
2AA820
514020
508030
006AA0
000020
000010
ENDCHAR
STARTCHAR uni0928094D0926
ENCODING -1
SWIDTH 724 0
DWIDTH 10 0
BBX 11 9 0 0
BITMAP
AAAAE4
000080
006A80
6AC000
508040
008080
006A80
000080
000040
ENDCHAR
STARTCHAR uni0928094D0927
ENCODING -1
SWIDTH 753 0
DWIDTH 11 0
BBX 11 9 0 0
BITMAP
AAE2E8
014050
018050
2AE450
508050
514050
008090
006A90
000040
ENDCHAR
STARTCHAR uni0928094D092A
ENCODING -1
SWIDTH 742 0
DWIDTH 10 0
BBX 11 9 0 0
BITMAP
AAEAE4
009080
009080
2AD080
505080
502A80
000080
000080
000040
ENDCHAR
STARTCHAR uni0928094D092B
ENCODING -1
SWIDTH 970 0
DWIDTH 14 0
BBX 14 9 0 0
BITMAP
AAEAEAA0
0080AA00
00808180
2AC08080
50908080
502A8180
00008A00
00008000
00004000
ENDCHAR
STARTCHAR uni0928094D092D
ENCODING -1
SWIDTH 739 0
DWIDTH 10 0
BBX 11 9 0 0
BITMAP
AA82E4
005080
005080
2AFAC0
505080
105080
000080
000080
000040
ENDCHAR
STARTCHAR uni0928094D092E
ENCODING -1
SWIDTH 735 0
DWIDTH 10 0
BBX 11 9 0 0
BITMAP
AAEAE4
005080
005080
2AEAC0
505080
104080
000080
000080
000040
ENDCHAR
STARTCHAR uni0928094D092F
ENCODING -1
SWIDTH 801 0
DWIDTH 11 0
BBX 12 9 0 0
BITMAP
AAAEB9
000820
000820
6AE420
508020
009030
002AA0
000020
000010
ENDCHAR
STARTCHAR uni0928094D0935
ENCODING -1
SWIDTH 732 0
DWIDTH 10 0
BBX 11 9 0 0
BITMAP
AAAAE4
002880
005080
6AC080
508080
009080
002A80
000080
000040
ENDCHAR
STARTCHAR uni0928094D0938
ENCODING -1
SWIDTH 867 0
DWIDTH 12 0
BBX 13 9 0 0
BITMAP
AAAFAE40
00050800
00050800
2A850800
50AEA800
50200800
00140800
00080800
00010400
ENDCHAR
STARTCHAR uni0928094D0939
ENCODING -1
SWIDTH 714 0
DWIDTH 10 0
BBX 10 10 0 -1
BITMAP
AAAAE0
000080
002A80
005000
2AD000
507A40
009080
008040
009000
002A80
ENDCHAR
STARTCHAR uni092A094D091F
ENCODING -1
SWIDTH 489 0
DWIDTH 7 0
BBX 7 9 0 0
BITMAP
BAB8
2020
2020
1EA0
2000
2010
2020
2560
0640
ENDCHAR
STARTCHAR uni092A094D0920
ENCODING -1
SWIDTH 506 0
DWIDTH 7 0
BBX 8 9 0 0
BITMAP
BAB9
2020
2020
1EE0
2020
2020
2020
2560
0640
ENDCHAR
STARTCHAR uni092A094D0924
ENCODING -1
SWIDTH 495 0
DWIDTH 7 0
BBX 7 9 0 0
BITMAP
BAB8
2020
2020
1EA0
2020
2020
2020
2420
0410
ENDCHAR
STARTCHAR uni092A094D092A
ENCODING -1
SWIDTH 770 0
DWIDTH 11 0
BBX 11 9 0 0
BITMAP
BABAB8
202060
202060
202060
202060
1A9AA0
000060
000060
000010
ENDCHAR
STARTCHAR uni092A094D092B
ENCODING -1
SWIDTH 1003 0
DWIDTH 14 0
BBX 14 9 0 0
BITMAP
BABAEAA0
20206A40
20206080
20205090
20609090
1A9A9080
00005640
00005000
00004000
ENDCHAR
STARTCHAR uni092A094D092E
ENCODING -1
SWIDTH 774 0
DWIDTH 11 0
BBX 11 9 0 0
BITMAP
BABAB8
202020
202020
203AA0
206020
1AA020
000020
000020
000010
ENDCHAR
STARTCHAR uni092A094D092F
ENCODING -1
SWIDTH 855 0
DWIDTH 12 0
BBX 12 9 0 0
BITMAP
BAAFAE
200208
200208
202908
202008
1AA018
001A98
000008
000004
ENDCHAR
STARTCHAR uni092A094D0932
ENCODING -1
SWIDTH 960 0
DWIDTH 13 0
BBX 14 9 0 0
BITMAP
BAAAAB90
20000200
201A6A00
2020C200
20208200
1AA04200
00200200
001A0200
00000100
ENDCHAR
STARTCHAR uni092A094D0935
ENCODING -1
SWIDTH 780 0
DWIDTH 11 0
BBX 11 9 0 0
BITMAP
BAAAB8
201A20
202020
202020
206020
1AA060
001AA0
000020
000010
ENDCHAR
STARTCHAR uni092A094D0938
ENCODING -1
SWIDTH 880 0
DWIDTH 12 0
BBX 13 9 0 0
BITMAP
BAABAE40
20020800
20020800
20050800
206EAC00
1A900800
00080800
00050800
00010400
ENDCHAR
STARTCHAR uni092B094D091C
ENCODING -1
SWIDTH 1100 0
DWIDTH 15 0
BBX 16 9 0 0
BITMAP
BABAAAB9
20200020
202A2EB0
20200520
20600220
1AA00220
00200620
0020A820
00100010
ENDCHAR
STARTCHAR uni092B094D091F
ENCODING -1
SWIDTH 1006 0
DWIDTH 14 0
BBX 15 9 0 0
BITMAP
BABAAAE4
202A8080
2020AA40
20208000
20608000
1AA08050
00208050
00206A80
00100000
ENDCHAR
STARTCHAR uni092B094D0924
ENCODING -1
SWIDTH 1034 0
DWIDTH 14 0
BBX 15 9 0 0
BITMAP
BABAAAE4
20200050
20306AD0
20205050
20608050
1AA08050
00208050
00206450
00101440
ENDCHAR
STARTCHAR uni092B094D092A
ENCODING -1
SWIDTH 1021 0
DWIDTH 14 0
BBX 15 9 0 0
BITMAP
BABAEAE4
20208080
202AC080
20208080
206090C0
1AA02A80
00200080
00200080
00100040
ENDCHAR
STARTCHAR uni092B094D092B
ENCODING -1
SWIDTH 1256 0
DWIDTH 18 0
BBX 18 9 0 0
BITMAP
BABAEAEAA0
202080AA00
202AC08180
2020808080
2060908080
1AA02A8180
0020008A00
0020008000
0010004000
ENDCHAR
STARTCHAR uni092B094D092F
ENCODING -1
SWIDTH 1120 0
DWIDTH 16 0
BBX 16 9 0 0
BITMAP
BABAAEB9
20200820
202AE820
20208020
20608020
1AA05030
00202AA0
00200020
00100010
ENDCHAR
STARTCHAR uni092B094D0932
ENCODING -1
SWIDTH 1202 0
DWIDTH 17 0
BBX 17 9 0 0
BITMAP
BABAAAAB80
202A800200
2020A9AA00
2020924600
2060814200
1AA0810200
0020900200
0020280200
0010000100
ENDCHAR
STARTCHAR uni092B094D0936
ENCODING -1
SWIDTH 1211 0
DWIDTH 17 0
BBX 17 9 0 0
BITMAP
BABA9A8380
2020208200
202A508200
2020808200
2060AA4200
1AA0200200
0020140200
0020080200
0010010100
ENDCHAR
STARTCHAR uni092C094D091C
ENCODING -1
SWIDTH 883 0
DWIDTH 12 0
BBX 13 9 0 0
BITMAP
AAAAAE40
00000800
101BAC00
28014800
26008800
21408800
20814800
1AAA0800
00000400
ENDCHAR
STARTCHAR uni092C094D091D
ENCODING -1
SWIDTH 962 0
DWIDTH 13 0
BBX 14 10 0 -1
BITMAP
AAAAEB90
1A1A8140
34200140
25200140
217AEB40
20905140
1A805140
00259140
00254100
00200000
ENDCHAR
STARTCHAR uni092C094D0924
ENCODING -1
SWIDTH 786 0
DWIDTH 11 0
BBX 11 9 0 0
BITMAP
AAAAB8
1A0020
341AA0
252020
216020
20A020
1AA020
002420
000510
ENDCHAR
STARTCHAR uni092C094D0926
ENCODING -1
SWIDTH 775 0
DWIDTH 11 0
BBX 11 9 0 0
BITMAP
AAAAB8
1A0020
341AA0
282000
226010
20A020
1A9AA0
000020
000010
ENDCHAR
STARTCHAR uni092C094D0927
ENCODING -1
SWIDTH 844 0
DWIDTH 12 0
BBX 12 9 0 0
BITMAP
AAB86E
1A2008
342008
291E08
226008
20A008
1AA018
000A98
000004
ENDCHAR
STARTCHAR uni092C094D092C
ENCODING -1
SWIDTH 783 0
DWIDTH 11 0
BBX 11 9 0 0
BITMAP
AAAAB8
1A1A20
342420
252520
216160
20A060
1A9AA0
000020
000010
ENDCHAR
STARTCHAR uni092C094D092D
ENCODING -1
SWIDTH 764 0
DWIDTH 11 0
BBX 11 9 0 0
BITMAP
AA91B8
1A2050
342050
253A90
216050
209050
1A8050
000050
000010
ENDCHAR
STARTCHAR uni092C094D092F
ENCODING -1
SWIDTH 852 0
DWIDTH 12 0
BBX 12 9 0 0
BITMAP
AAAEAE
1A0208
340208
282908
222008
20B018
1A9A98
000008
000004
ENDCHAR
STARTCHAR uni092C094D0932
ENCODING -1
SWIDTH 961 0
DWIDTH 13 0
BBX 14 9 0 0
BITMAP
AAAAAB90
1A000240
341A6A40
28208240
22608240
20A00240
1AA00240
001A0240
00000100
ENDCHAR
STARTCHAR uni092C094D0935
ENCODING -1
SWIDTH 776 0
DWIDTH 11 0
BBX 11 9 0 0
BITMAP
AAAAB8
1A1A20
342020
252020
216020
20B060
1A9AA0
000020
000010
ENDCHAR
STARTCHAR uni092C094D0936
ENCODING -1
SWIDTH 926 0
DWIDTH 13 0
BBX 13 9 0 0
BITMAP
AA5A8380
1A208200
34008200
28008200
213A4200
20640200
1A880200
00020200
00010100
ENDCHAR
STARTCHAR uni092C094D0938
ENCODING -1
SWIDTH 897 0
DWIDTH 13 0
BBX 13 9 0 0
BITMAP
AAABAE80
1A020500
34020500
28020500
213EAD00
20640500
1A880500
00050500
00010400
ENDCHAR
STARTCHAR uni092D094D092F
ENCODING -1
SWIDTH 827 0
DWIDTH 12 0
BBX 12 9 0 0
BITMAP
91AEBE
200514
200514
3A9014
205014
102024
001AA4
000014
000010
ENDCHAR
STARTCHAR uni092D094D0932
ENCODING -1
SWIDTH 941 0
DWIDTH 13 0
BBX 14 9 0 0
BITMAP
91AAAB90
20000200
202A6A00
3AA18200
20508200
10504200
00600200
00290200
00000100
ENDCHAR
STARTCHAR uni092D094D0935
ENCODING -1
SWIDTH 755 0
DWIDTH 11 0
BBX 11 9 0 0
BITMAP
91AAE8
201950
206050
3A9050
205050
106090
001A90
000050
000040
ENDCHAR
STARTCHAR uni092E094D0924
ENCODING -1
SWIDTH 765 0
DWIDTH 11 0
BBX 11 9 0 0
BITMAP
BAAAB8
200050
202A90
3AA050
205050
105050
005050
002450
000410
ENDCHAR
STARTCHAR uni092E094D0926
ENCODING -1
SWIDTH 766 0
DWIDTH 11 0
BBX 11 9 0 0
BITMAP
BAAAB8
200050
202A90
3AA000
206010
102020
001AA0
000020
000010
ENDCHAR
STARTCHAR uni092E094D092A
ENCODING -1
SWIDTH 762 0
DWIDTH 11 0
BBX 11 9 0 0
BITMAP
BABAB8
205050
205050
3A9050
202050
201A90
000050
000050
000010
ENDCHAR
STARTCHAR uni092E094D092C
ENCODING -1
SWIDTH 768 0
DWIDTH 11 0
BBX 11 9 0 0
BITMAP
BAAAB8
201A50
202450
3A9550
205150
102090
001A90
000050
000010
ENDCHAR
STARTCHAR uni092E094D092D
ENCODING -1
SWIDTH 768 0
DWIDTH 11 0
BBX 11 9 0 0
BITMAP
BA91B8
202050
202050
3ABA90
202050
101050
000050
000050
000010
ENDCHAR
STARTCHAR uni092E094D092E
ENCODING -1
SWIDTH 759 0
DWIDTH 11 0
BBX 11 8 0 1
BITMAP
BABAF8
202050
202050
3ABAD0
202050
101050
000050
000050
ENDCHAR
STARTCHAR uni092E094D092F
ENCODING -1
SWIDTH 834 0
DWIDTH 12 0
BBX 12 9 0 0
BITMAP
BAAEAE
200514
200514
3A9014
205014
102024
001AA4
000014
000004
ENDCHAR
STARTCHAR uni092E094D0932
ENCODING -1
SWIDTH 945 0
DWIDTH 13 0
BBX 14 9 0 0
BITMAP
BAAAAB90
20000200
202A6A00
3AA08300
20508200
10504200
00200200
00290200
00000100
ENDCHAR
STARTCHAR uni092E094D0935
ENCODING -1
SWIDTH 761 0
DWIDTH 11 0
BBX 11 9 0 0
BITMAP
BAAAB8
201950
202050
3A9050
205050
102050
001A90
000050
000010
ENDCHAR
STARTCHAR uni092E094D0936
ENCODING -1
SWIDTH 884 0
DWIDTH 12 0
BBX 13 9 0 0
BITMAP
BA2A0A40
20214800
20114800
20014800
3AAA0800
20200800
10140800
00080800
00010400
ENDCHAR
STARTCHAR uni092E094D0938
ENCODING -1
SWIDTH 816 0
DWIDTH 11 0
BBX 12 9 0 0
BITMAP
BAAEB9
200820
200820
201820
3AFAB0
208020
102020
001420
000410
ENDCHAR
STARTCHAR uni092E094D0939
ENCODING -1
SWIDTH 758 0
DWIDTH 11 0
BBX 11 10 0 -1
BITMAP
BAAAF8
200050
201A90
202000
3AA000
201E80
102060
002010
002000
001A90
ENDCHAR
STARTCHAR uni092F094D092F
ENCODING -1
SWIDTH 897 0
DWIDTH 13 0
BBX 13 9 0 0
BITMAP
AEABAE80
02014500
02014500
291A0500
20140500
20180900
1A96A900
00000500
00000400
ENDCHAR
STARTCHAR uni0930094D092F
ENCODING -1
SWIDTH 713 0
DWIDTH 10 0
BBX 10 9 0 0
BITMAP
AAFAE0
002080
402080
6B9080
020080
020180
01A980
000080
000040
ENDCHAR
STARTCHAR uni0930094D0939
ENCODING -1
SWIDTH 619 0
DWIDTH 9 0
BBX 9 10 0 -1
BITMAP
AAAB80
000500
41A900
6A0000
020000
01E800
020200
020100
020000
01A900
ENDCHAR
STARTCHAR uni0932094D0915
ENCODING -1
SWIDTH 1182 0
DWIDTH 17 0
BBX 17 9 0 0
BITMAP
AAAAABAA80
0000A2A800
1A6A420600
2082020200
2082020200
2042420600
2000AA2800
1A00020000
0000010000
ENDCHAR
STARTCHAR uni0932094D0916
ENCODING -1
SWIDTH 1195 0
DWIDTH 17 0
BBX 17 9 0 0
BITMAP
AAAAAEAB80
0000080500
1A6908A500
20C2154500
2082A20500
2080814500
200050A900
1A00240500
0000040100
ENDCHAR
STARTCHAR uni0932094D0917
ENCODING -1
SWIDTH 950 0
DWIDTH 13 0
BBX 14 9 0 0
BITMAP
AAAAEB90
00008200
1A688200
20C08200
20808200
20864200
20000200
1A000200
00000100
ENDCHAR
STARTCHAR uni0932094D091C
ENCODING -1
SWIDTH 1035 0
DWIDTH 14 0
BBX 15 9 0 0
BITMAP
AAAAAAE4
00000050
1A68BAD0
20C00850
20800850
20800850
20000850
1A02A050
00000040
ENDCHAR
STARTCHAR uni0932094D091F
ENCODING -1
SWIDTH 929 0
DWIDTH 13 0
BBX 13 8 0 1
BITMAP
AAAAAB80
00000200
1A69A900
20C20000
20820000
20420140
20020240
1A01AA00
ENDCHAR
STARTCHAR uni0932094D0920
ENCODING -1
SWIDTH 953 0
DWIDTH 13 0
BBX 14 8 0 1
BITMAP
AAAAAB90
00000200
1A69AD00
20C20200
20820140
20420140
20020240
1A01AA00
ENDCHAR
STARTCHAR uni0932094D0921
ENCODING -1
SWIDTH 916 0
DWIDTH 13 0
BBX 13 9 0 0
BITMAP
AAAAAB80
00000200
1A69A900
20C20000
2081A900
20400200
20010200
1A025600
00006400
ENDCHAR
STARTCHAR uni0932094D0922
ENCODING -1
SWIDTH 924 0
DWIDTH 13 0
BBX 13 8 0 1
BITMAP
AAAAAB80
00000200
1A69A900
20C20000
20820A00
20421140
20020140
1A01AA00
ENDCHAR
STARTCHAR uni0932094D0924
ENCODING -1
SWIDTH 929 0
DWIDTH 13 0
BBX 13 9 0 0
BITMAP
AAAAAB80
00000200
1A69AA00
20C20200
20820200
20420200
20020200
1A024200
00005100
ENDCHAR
STARTCHAR uni0932094D0925
ENCODING -1
SWIDTH 1061 0
DWIDTH 15 0
BBX 15 9 0 0
BITMAP
AAA8A838
00014820
1A690820
20C2A820
20820020
20424060
2000AA60
1A000020
00000010
ENDCHAR
STARTCHAR uni0932094D0926
ENCODING -1
SWIDTH 939 0
DWIDTH 13 0
BBX 14 9 0 0
BITMAP
AAAAAB90
00000200
1A69AA00
20820000
20820100
20020200
2000AA00
1A000200
00000100
ENDCHAR
STARTCHAR uni0932094D092A
ENCODING -1
SWIDTH 939 0
DWIDTH 13 0
BBX 14 9 0 0
BITMAP
AAABAB90
00020200
1A6B0200
20C20200
20820200
2040AA00
20000200
1A000200
00000100
ENDCHAR
STARTCHAR uni0932094D092B
ENCODING -1
SWIDTH 1176 0
DWIDTH 16 0
BBX 17 9 0 0
BITMAP
AAABABAA40
000202A800
1A6B030500
20C2020200
2082020200
2040AA0500
2000022800
1A00020000
0000010000
ENDCHAR
STARTCHAR uni0932094D092C
ENCODING -1
SWIDTH 949 0
DWIDTH 13 0
BBX 14 9 0 0
BITMAP
AAAAAB90
0000A600
1A6A8200
20825200
20821600
20024700
2000AA00
1A000200
00000100
ENDCHAR
STARTCHAR uni0932094D092D
ENCODING -1
SWIDTH 931 0
DWIDTH 13 0
BBX 13 9 0 0
BITMAP
AAAA1B80
00020200
1A6B0200
20C2AA00
20820200
20410200
20000200
1A000200
00000100
ENDCHAR
STARTCHAR uni0932094D092E
ENCODING -1
SWIDTH 931 0
DWIDTH 13 0
BBX 13 9 0 0
BITMAP
AAABAB80
00020200
1A6B0200
20C2AA00
20820200
20410200
20000200
1A000200
00000100
ENDCHAR
STARTCHAR uni0932094D092F
ENCODING -1
SWIDTH 1033 0
DWIDTH 14 0
BBX 15 9 0 0
BITMAP
AAAABAE4
00001490
1A6A1490
20C2A090
20814090
20014090
2000AA90
1A000090
00000040
ENDCHAR
STARTCHAR uni0932094D0932
ENCODING -1
SWIDTH 1112 0
DWIDTH 16 0
BBX 16 9 0 0
BITMAP
AAAAAABE
00000014
1A69A6A4
20C20924
20820814
20420414
20020014
1A01A014
00000010
ENDCHAR
STARTCHAR uni0932094D0935
ENCODING -1
SWIDTH 940 0
DWIDTH 13 0
BBX 14 9 0 0
BITMAP
AAAAAB90
0000A200
1A6A4200
20820200
20820200
20424200
2000AA00
1A000200
00000100
ENDCHAR
STARTCHAR uni0932094D0938
ENCODING -1
SWIDTH 1068 0
DWIDTH 15 0
BBX 15 9 0 0
BITMAP
AAAABAB8
00002420
1A692420
20C22020
2082BAA0
20818020
20009020
1A002020
00001010
ENDCHAR
STARTCHAR uni0932094D0939
ENCODING -1
SWIDTH 922 0
DWIDTH 13 0
BBX 13 9 0 0
BITMAP
AAAAAB80
00000200
1A69AA00
20C20000
2081E900
20420200
20020200
1A020000
0000AA00
ENDCHAR
STARTCHAR uni0933094D092F
ENCODING -1
SWIDTH 1050 0
DWIDTH 15 0
BBX 15 9 0 0
BITMAP
AAAABAB8
1A691450
20921450
2081E050
20814050
20818090
20916A90
1A290050
00000010
ENDCHAR
STARTCHAR uni0935094D092F
ENCODING -1
SWIDTH 852 0
DWIDTH 12 0
BBX 12 9 0 0
BITMAP
AAAEAE
1A0208
200208
202908
202008
207018
1A9A98
000008
000004
ENDCHAR
STARTCHAR uni0935094D0932
ENCODING -1
SWIDTH 961 0
DWIDTH 13 0
BBX 14 9 0 0
BITMAP
AAAAAB90
1A000240
201A6A40
20208240
20208240
20600240
1AA00240
001A0240
00000100
ENDCHAR
STARTCHAR uni0935094D0935
ENCODING -1
SWIDTH 776 0
DWIDTH 11 0
BBX 11 9 0 0
BITMAP
AAAAB8
1A1A20
202020
202020
202020
207060
1A9A60
000020
000010
ENDCHAR
STARTCHAR uni0935094D0939
ENCODING -1
SWIDTH 754 0
DWIDTH 11 0
BBX 11 10 0 -1
BITMAP
AAAAF8
000050
1A1A90
202000
202000
202E80
206050
1AA010
002000
001A90
ENDCHAR
STARTCHAR uni0936094D0915
ENCODING -1
SWIDTH 1093 0
DWIDTH 15 0
BBX 16 9 0 0
BITMAP
2A4AAEA9
20868AA0
00880814
00880814
6A080814
20081814
1806A9A0
05000800
01000400
ENDCHAR
STARTCHAR uni0936094D091A
ENCODING -1
SWIDTH 950 0
DWIDTH 13 0
BBX 14 9 0 0
BITMAP
2A4AAB90
20800200
008AA200
00820200
6A020200
20020300
1801AA00
05000200
01000100
ENDCHAR
STARTCHAR uni0936094D091B
ENCODING -1
SWIDTH 968 0
DWIDTH 14 0
BBX 14 9 0 0
BITMAP
2A5BABA0
20850240
00850B00
01838140
6A050080
20050080
18050140
0502AA00
01000000
ENDCHAR
STARTCHAR uni0936094D091F
ENCODING -1
SWIDTH 854 0
DWIDTH 12 0
BBX 12 9 0 0
BITMAP
2A5AAE
208014
0086A4
008800
6A0800
200804
180809
0506A8
010000
ENDCHAR
STARTCHAR uni0936094D0924
ENCODING -1
SWIDTH 864 0
DWIDTH 12 0
BBX 13 9 0 0
BITMAP
2A5AAE40
20800800
0086A800
00880800
6A080800
20080800
18080800
05090800
01014400
ENDCHAR
STARTCHAR uni0936094D092E
ENCODING -1
SWIDTH 885 0
DWIDTH 12 0
BBX 13 9 0 0
BITMAP
2A5FAE40
20850800
00850800
0087AC00
6A050800
20050800
18000800
05000800
01000400
ENDCHAR
STARTCHAR uni0936094D092F
ENCODING -1
SWIDTH 940 0
DWIDTH 13 0
BBX 14 9 0 0
BITMAP
1A5AEB90
20808200
10808200
008A4200
6A080200
20080300
1802AA00
05000200
01000100
ENDCHAR
STARTCHAR uni0936094D0932
ENCODING -1
SWIDTH 1039 0
DWIDTH 15 0
BBX 15 9 0 0
BITMAP
2A4AAAE8
20800050
00869A90
00882490
6A082050
20081050
18080050
05068050
01000040
ENDCHAR
STARTCHAR uni0936094D0935
ENCODING -1
SWIDTH 850 0
DWIDTH 12 0
BBX 12 9 0 0
BITMAP
2A4AAE
208688
008808
008808
6A0808
200818
1806A8
050008
010004
ENDCHAR
STARTCHAR uni0936094D0936
ENCODING -1
SWIDTH 1009 0
DWIDTH 14 0
BBX 15 9 0 0
BITMAP
1A42A0A4
20852480
10841480
00802080
6A0A9080
20050080
18020080
05008080
01005040
ENDCHAR
STARTCHAR uni0937094D0915
ENCODING -1
SWIDTH 1039 0
DWIDTH 15 0
BBX 15 9 0 0
BITMAP
BAAABAA8
240A2A80
21202060
20A02020
20702020
1AA02060
000AA280
00002000
00001000
ENDCHAR
STARTCHAR uni0937094D091F
ENCODING -1
SWIDTH 493 0
DWIDTH 7 0
BBX 7 9 0 0
BITMAP
BAB8
2520
2160
1EA0
2000
2010
2020
2560
0640
ENDCHAR
STARTCHAR uni0937094D0920
ENCODING -1
SWIDTH 511 0
DWIDTH 7 0
BBX 8 9 0 0
BITMAP
BFF9
2FF0
3FF0
2FE0
2560
2020
2020
2560
0640
ENDCHAR
STARTCHAR uni0937094D0923
ENCODING -1
SWIDTH 980 0
DWIDTH 14 0
BBX 14 9 0 0
BITMAP
BABABAE0
24205140
25205140
20605140
20705140
1A9A8140
00000140
00000140
00000040
ENDCHAR
STARTCHAR uni0937094D092A
ENCODING -1
SWIDTH 980 0
DWIDTH 14 0
BBX 14 9 0 0
BITMAP
BABABAE0
24205140
25205140
20605140
20705140
1A9A8140
00000140
00000140
00000040
ENDCHAR
STARTCHAR uni0937094D092B
ENCODING -1
SWIDTH 1036 0
DWIDTH 15 0
BBX 15 9 0 0
BITMAP
BABABAA4
24202A80
21202060
20A02020
20742020
1A8AA060
00002280
00002000
00001000
ENDCHAR
STARTCHAR uni0937094D092E
ENCODING -1
SWIDTH 791 0
DWIDTH 11 0
BBX 11 9 0 0
BITMAP
BABAB8
242020
222020
20AAA0
207020
1AA020
000020
000020
000010
ENDCHAR
STARTCHAR uni0937094D092F
ENCODING -1
SWIDTH 877 0
DWIDTH 12 0
BBX 13 9 0 0
BITMAP
BAABAE40
24020800
25020800
21690800
20700800
1AA40C00
000AA800
00000800
00000400
ENDCHAR
STARTCHAR uni0937094D0935
ENCODING -1
SWIDTH 802 0
DWIDTH 11 0
BBX 12 9 0 0
BITMAP
BAAAB9
240A20
212420
20A020
207020
1AA420
000AA0
000020
000010
ENDCHAR
STARTCHAR uni0937094D0937
ENCODING -1
SWIDTH 804 0
DWIDTH 11 0
BBX 12 9 0 0
BITMAP
BABAB9
242820
252220
2060A0
207430
1A8AA0
000020
000020
000010
ENDCHAR
STARTCHAR uni0938094D0915
ENCODING -1
SWIDTH 1089 0
DWIDTH 15 0
BBX 16 9 0 0
BITMAP
AFAAAEA9
05068AA0
05080824
08080814
6EA80814
20081824
1406A9A0
08000800
01000400
ENDCHAR
STARTCHAR uni0938094D0916
ENCODING -1
SWIDTH 990 0
DWIDTH 14 0
BBX 14 9 0 0
BITMAP
AFABAAE0
05020080
05022880
08025080
6EA95080
20205180
14182A80
08050080
01010040
ENDCHAR
STARTCHAR uni0938094D091C
ENCODING -1
SWIDTH 970 0
DWIDTH 14 0
BBX 14 9 0 0
BITMAP
AFAAABE0
05000140
0502EB40
08002140
6EA42140
20002140
14002140
080A9140
01000100
ENDCHAR
STARTCHAR uni0938094D091F
ENCODING -1
SWIDTH 844 0
DWIDTH 12 0
BBX 12 9 0 0
BITMAP
AFAABE
050014
0506A4
080800
6EA800
200804
140808
0806A4
010000
ENDCHAR
STARTCHAR uni0938094D0924
ENCODING -1
SWIDTH 852 0
DWIDTH 12 0
BBX 12 9 0 0
BITMAP
AFAAAE
050008
0506A8
080808
6EA808
200808
140808
080908
010104
ENDCHAR
STARTCHAR uni0938094D0925
ENCODING -1
SWIDTH 960 0
DWIDTH 13 0
BBX 14 9 0 0
BITMAP
AE969190
05082240
05042240
6EAE9240
60080240
20080240
1806AA40
08000240
01000100
ENDCHAR
STARTCHAR uni0938094D0926
ENCODING -1
SWIDTH 851 0
DWIDTH 12 0
BBX 12 9 0 0
BITMAP
AFAAAE
050008
0506A8
080800
655804
200808
1406A8
080008
010004
ENDCHAR
STARTCHAR uni0938094D092A
ENCODING -1
SWIDTH 857 0
DWIDTH 12 0
BBX 12 9 0 0
BITMAP
AFAEAE
050808
050808
080808
6EAC08
2006A8
140008
080008
010004
ENDCHAR
STARTCHAR uni0938094D092B
ENCODING -1
SWIDTH 1092 0
DWIDTH 15 0
BBX 16 9 0 0
BITMAP
AFAEAEA9
05080AA0
05080814
08080814
6EAC1814
2006A814
140009A0
08000800
01000400
ENDCHAR
STARTCHAR uni0938094D092C
ENCODING -1
SWIDTH 857 0
DWIDTH 12 0
BBX 12 9 0 0
BITMAP
AFAAAE
050688
050908
080A48
6EA858
200818
1406A8
080008
010004
ENDCHAR
STARTCHAR uni0938094D092E
ENCODING -1
SWIDTH 850 0
DWIDTH 12 0
BBX 12 9 0 0
BITMAP
AFAEAE
050808
050808
080808
6EAEA8
200808
140408
080008
010004
ENDCHAR
STARTCHAR uni0938094D092F
ENCODING -1
SWIDTH 920 0
DWIDTH 13 0
BBX 13 9 0 0
BITMAP
AFABAB80
05008200
05008200
080A4200
6EA80200
20080600
1406A600
08000200
01000100
ENDCHAR
STARTCHAR uni0938094D0932
ENCODING -1
SWIDTH 1027 0
DWIDTH 14 0
BBX 15 9 0 0
BITMAP
AFAAAAE4
05000080
05069A80
08083080
6EA82080
20082080
14080080
080A8080
01000040
ENDCHAR
STARTCHAR uni0938094D0935
ENCODING -1
SWIDTH 842 0
DWIDTH 12 0
BBX 12 9 0 0
BITMAP
AFAAAE
050688
050808
080808
6EA808
200818
1406A8
080008
010004
ENDCHAR
STARTCHAR uni0938094D0938
ENCODING -1
SWIDTH 871 0
DWIDTH 12 0
BBX 13 9 0 0
BITMAP
AFABAE40
05050800
05050800
08050800
6EAEAC00
20200800
14140800
08080800
01010400
ENDCHAR
STARTCHAR uni0939094D0923
ENCODING -1
SWIDTH 1136 0
DWIDTH 16 0
BBX 16 13 0 -4
BITMAP
AABBABAE
00524208
1A924208
20024208
20014208
1E914508
2020A808
20100008
20000004
1A900000
01000000
00800000
00500000
ENDCHAR
STARTCHAR uni0939094D092E
ENCODING -1
SWIDTH 746 0
DWIDTH 10 0
BBX 11 10 0 -1
BITMAP
AABAE4
002080
1A9080
200080
200080
1E9080
203AC0
202080
201080
1A9040
ENDCHAR
STARTCHAR uni0939094D092F
ENCODING -1
SWIDTH 785 0
DWIDTH 11 0
BBX 11 11 0 -2
BITMAP
AABAB8
002020
1A9020
200020
200020
1EA820
200920
206820
205060
202A60
1A4010
ENDCHAR
STARTCHAR uni0939094D0932
ENCODING -1
SWIDTH 1110 0
DWIDTH 16 0
BBX 16 13 0 -4
BITMAP
AABAAABA
00500014
1A900014
2001A6A4
20020824
1E920814
20220014
2001A014
20000010
1A900000
00000000
01400000
00800000
ENDCHAR
STARTCHAR uni0939094D0935
ENCODING -1
SWIDTH 920 0
DWIDTH 13 0
BBX 13 13 0 -4
BITMAP
AABAAB80
00500200
1A91A200
20020200
20020200
1E920200
20220600
2011AA00
20000100
1A900000
01000000
01800000
00900000
ENDCHAR
STARTCHAR uni0915093C094D0915093C
ENCODING -1
SWIDTH 1275 0
DWIDTH 18 0
BBX 18 9 0 0
BITMAP
AABAAAEAA0
196A59AA40
2060909080
2050508080
2050508080
2050508080
1A902A8A40
0050008000
0410144000
ENDCHAR
STARTCHAR uni0915093C094D0924
ENCODING -1
SWIDTH 1016 0
DWIDTH 14 0
BBX 15 9 0 0
BITMAP
AABAAAE4
196A4080
2060AAC0
20508080
20508080
20508080
1A908080
00509080
04101440
ENDCHAR
STARTCHAR uni0915093C094D092B
ENCODING -1
SWIDTH 1246 0
DWIDTH 17 0
BBX 18 9 0 0
BITMAP
AABAEAEA90
195080AA00
206AC0C140
2060808080
2050808080
20502A8140
1A90008A00
0050008000
0410004000
ENDCHAR
STARTCHAR uni0915093C094D092B093C
ENCODING -1
SWIDTH 1247 0
DWIDTH 17 0
BBX 18 9 0 0
BITMAP
AABAEAEA90
195080AA00
206AC0C140
2060808080
2050808080
20502A8140
1A90008A00
0050008000
0410204000
ENDCHAR
STARTCHAR uni0915093C094D092C
ENCODING -1
SWIDTH 1043 0
DWIDTH 15 0
BBX 15 9 0 0
BITMAP
AABAAAF8
196A5950
2060A050
20505850
20505250
20506090
1A902A90
00500050
04100000
ENDCHAR
STARTCHAR uni0915093C094D092E
ENCODING -1
SWIDTH 998 0
DWIDTH 14 0
BBX 14 9 0 0
BITMAP
AABAEAE0
19508080
206AC080
2060AA80
20508080
20504080
1A900080
00500080
04100040
ENDCHAR
STARTCHAR uni0916093C094D0924
ENCODING -1
SWIDTH 984 0
DWIDTH 14 0
BBX 14 9 0 0
BITMAP
ABAAAAE0
02000180
02286A80
06508180
68814180
20514180
142A4180
09009180
01085040
ENDCHAR
STARTCHAR uni0916093C094D092E
ENCODING -1
SWIDTH 965 0
DWIDTH 14 0
BBX 14 9 0 0
BITMAP
ABAAEB90
02014140
02294140
0651EB40
68814140
20514140
142A0140
09000140
01080100
ENDCHAR
STARTCHAR uni0916093C094D092F
ENCODING -1
SWIDTH 1045 0
DWIDTH 15 0
BBX 15 9 0 0
BITMAP
ABAABAF8
02001450
02281450
0651A050
68814050
20518090
1429AA90
09000050
01080000
ENDCHAR
STARTCHAR uni0916093C094D0935
ENCODING -1
SWIDTH 972 0
DWIDTH 14 0
BBX 14 9 0 0
BITMAP
ABAAABE0
02006540
02288140
06514140
68814140
20518240
1400AA40
09000140
01080000
ENDCHAR
STARTCHAR uni0916093C094D0936
ENCODING -1
SWIDTH 1123 0
DWIDTH 16 0
BBX 16 9 0 0
BITMAP
ABA8691E
02008214
02284214
06500214
6882A914
20528014
14299014
09002014
01080404
ENDCHAR
STARTCHAR uni0916093C094D0938
ENCODING -1
SWIDTH 1066 0
DWIDTH 15 0
BBX 15 9 0 0
BITMAP
ABAABAB8
02002020
02282020
06502020
6882BAA0
20518020
14299020
09002020
01081010
ENDCHAR
STARTCHAR uni091C093C094D091C093C
ENCODING -1
SWIDTH 934 0
DWIDTH 13 0
BBX 13 9 0 0
BITMAP
AAAAAF80
00000500
2E97AD00
02008500
02008500
02008500
02008500
692A4500
20050000
ENDCHAR
STARTCHAR uni091C093C094D092F
ENCODING -1
SWIDTH 893 0
DWIDTH 13 0
BBX 13 9 0 0
BITMAP
AAABAE40
00014500
2EA14500
021A0500
02140500
02140900
0206A900
69000500
20000400
ENDCHAR
STARTCHAR uni092B093C094D091C093C
ENCODING -1
SWIDTH 1100 0
DWIDTH 15 0
BBX 16 9 0 0
BITMAP
BABAAAB9
20200020
202A2EB0
20200520
20600220
1AA00220
00200620
0020A820
14102010
ENDCHAR
STARTCHAR uni092B093C094D0924
ENCODING -1
SWIDTH 1036 0
DWIDTH 15 0
BBX 15 9 0 0
BITMAP
BABAAAE4
20200050
20306AD0
20205050
20608050
1AA08050
00205050
00206450
14101440
ENDCHAR
STARTCHAR uni092B093C094D092B093C
ENCODING -1
SWIDTH 1256 0
DWIDTH 18 0
BBX 18 9 0 0
BITMAP
BABAEAEAA0
202080AA00
202AC08180
2020808080
2060908080
1AA02A8180
0020008A00
0020008000
1410204000
ENDCHAR
STARTCHAR uni092B093C094D0938
ENCODING -1
SWIDTH 1141 0
DWIDTH 16 0
BBX 16 9 0 0
BITMAP
BABAAEAE
20200508
202A4508
20208808
2060AEA8
1AA06008
00202408
00200808
14100404
ENDCHAR
STARTCHAR uni092C094D091C093C
ENCODING -1
SWIDTH 883 0
DWIDTH 12 0
BBX 13 9 0 0
BITMAP
AAAAAE40
00000800
101BAC00
28014800
26008800
21408800
20814800
1AAA0800
00040400
ENDCHAR
STARTCHAR uni0932094D091C093C
ENCODING -1
SWIDTH 1062 0
DWIDTH 15 0
BBX 15 10 0 -1
BITMAP
AAAAAAE4
00000050
1A68BAD0
20C00850
20800850
20800850
20000850
1A02A050
00000040
00004000
ENDCHAR
STARTCHAR uni0936094D0915093C
ENCODING -1
SWIDTH 1093 0
DWIDTH 15 0
BBX 16 9 0 0
BITMAP
2A4AAEA9
20868AA0
00880814
00880814
6A080814
20081814
1806A9A0
05000800
01010400
ENDCHAR
STARTCHAR uni0924094D0924094D
ENCODING -1
SWIDTH 309 0
DWIDTH 4 0
BBX 6 9 0 0
BITMAP
AAA0
0000
6EA0
1400
1400
1400
1400
1900
0500
ENDCHAR
STARTCHAR uni0928094D092D094D
ENCODING -1
SWIDTH 505 0
DWIDTH 7 0
BBX 9 7 0 2
BITMAP
AA8240
008000
009000
009000
6AEA40
509000
004000
ENDCHAR
STARTCHAR uni0928094D0938094D
ENCODING -1
SWIDTH 635 0
DWIDTH 9 0
BBX 11 9 0 0
BITMAP
AAABA4
000500
000500
2A8500
507EA4
102000
001800
000900
000100
ENDCHAR
STARTCHAR uni092E094D092D094D
ENCODING -1
SWIDTH 533 0
DWIDTH 7 0
BBX 9 7 0 2
BITMAP
BA9180
202000
202000
202000
3ABA80
202000
101000
ENDCHAR
STARTCHAR uni0932094D092D094D
ENCODING -1
SWIDTH 694 0
DWIDTH 10 0
BBX 12 8 0 1
BITMAP
AAAA19
000200
1A6B00
20C2A9
208200
204100
200000
1A0000
ENDCHAR
STARTCHAR uni0938094D0924094D0930094D
ENCODING -1
SWIDTH 575 0
DWIDTH 8 0
BBX 10 9 0 0
BITMAP
AFAA40
050000
050A80
082420
6EA020
200020
140180
080900
011400
ENDCHAR
STARTCHAR uni0915094D0924094D092F
ENCODING -1
SWIDTH 1356 0
DWIDTH 19 0
BBX 19 9 0 0
BITMAP
AABAAABEB8
196A400820
2060800820
20506AE420
2050808020
2050808060
1A90806A60
0050900020
0010140010
ENDCHAR
STARTCHAR uni0915094D0924094D0930
ENCODING -1
SWIDTH 997 0
DWIDTH 14 0
BBX 14 9 0 0
BITMAP
AABAAAE0
196A4080
2060AA80
20508180
20508080
20500280
1A900880
00506080
00104040
ENDCHAR
STARTCHAR uni0915094D0924094D0935
ENCODING -1
SWIDTH 1242 0
DWIDTH 17 0
BBX 18 9 0 0
BITMAP
AABAAAAB90
196A40A600
2060AA4200
2050814200
2051414200
2051414200
1A9080AA00
0050900200
0010100100
ENDCHAR
STARTCHAR uni0915094D092A094D0930
ENCODING -1
SWIDTH 1007 0
DWIDTH 14 0
BBX 15 9 0 0
BITMAP
AABAEAE4
19508080
206A8080
20608080
20508080
20506A80
1A900880
00502080
00104040
ENDCHAR
STARTCHAR uni0915094D0935094D092F
ENCODING -1
SWIDTH 1384 0
DWIDTH 19 0
BBX 20 9 0 0
BITMAP
AABAAAAEB9
196A690820
2060900820
2050806820
2050808020
2050909020
1A902A6AA0
0050000020
0010000010
ENDCHAR
STARTCHAR uni0915094D0938094D091F
ENCODING -1
SWIDTH 1376 0
DWIDTH 19 0
BBX 20 9 0 0
BITMAP
AABAAFAAB9
196A450020
2060850AA0
2050451400
20507EB000
2050202004
1A90142414
0050080AA0
0010010000
ENDCHAR
STARTCHAR uni0915094D0938094D0921
ENCODING -1
SWIDTH 1388 0
DWIDTH 19 0
BBX 20 9 0 0
BITMAP
AABAAFAAB9
196A450020
2060850AA0
2050450800
2050600AA0
2050200018
1A90081408
0050080964
0010010550
ENDCHAR
STARTCHAR uni0915094D0938094D0924
ENCODING -1
SWIDTH 1423 0
DWIDTH 20 0
BBX 20 9 0 0
BITMAP
AABAAFAAAE
196A450008
20608506A8
2050450808
20507EA808
2050200808
1A90140808
0050080908
0010010104
ENDCHAR
STARTCHAR uni0915094D0938094D092A094D0930
ENCODING -1
SWIDTH 1437 0
DWIDTH 20 0
BBX 21 9 0 0
BITMAP
AABAABAEAE40
196A45080800
206085080800
20507EA80800
205020080800
20502402A800
1A9008008800
005009020800
001001040400
ENDCHAR
STARTCHAR uni0915094D0938094D092A094D0932
ENCODING -1
SWIDTH 1866 0
DWIDTH 26 0
BBX 27 9 0 0
BITMAP
AABAAFAEAAAAE4
196A4508000080
206085080A9A80
20504508186080
20507EAC142080
20502006A41080
1A901400140080
005008000A4080
00100100000040
ENDCHAR
STARTCHAR uni0917094D0927094D092F
ENCODING -1
SWIDTH 1156 0
DWIDTH 16 0
BBX 17 9 0 0
BITMAP
AEB8ABAE40
0850020800
0860020800
0829290800
1420200800
A050240C00
00202AA800
002A900800
0000000400
ENDCHAR
STARTCHAR uni0917094D0927094D0935
ENCODING -1
SWIDTH 1084 0
DWIDTH 15 0
BBX 16 9 0 0
BITMAP
AEB8AAB9
08500A20
08602420
08292020
14202020
A0502420
00202AA0
001A9020
00000010
ENDCHAR
STARTCHAR uni0917094D0928094D092F
ENCODING -1
SWIDTH 1069 0
DWIDTH 15 0
BBX 15 9 0 0
BITMAP
AEAABEB8
08000820
08000820
086AE420
14808020
A0408060
00006A60
00000020
00000010
ENDCHAR
STARTCHAR uni0917094D092D094D092F
ENCODING -1
SWIDTH 1102 0
DWIDTH 15 0
BBX 16 9 0 0
BITMAP
AE91AEB9
08200920
08200420
083A8020
14204020
A0205020
00001AA0
00000020
00000010
ENDCHAR
STARTCHAR uni0917094D0930094D092F
ENCODING -1
SWIDTH 817 0
DWIDTH 11 0
BBX 12 9 0 0
BITMAP
AEAEB9
080420
080920
086820
145020
A05020
002AE0
000220
000810
ENDCHAR
STARTCHAR uni091A094D091B094D0935
ENCODING -1
SWIDTH 913 0
DWIDTH 13 0
BBX 13 11 0 -2
BITMAP
AAAEAB80
00080500
00081900
140A4200
14080200
24140200
14180200
0AABA900
00080500
00080900
0006A800
ENDCHAR
STARTCHAR uni091C094D091C094D091E
ENCODING -1
SWIDTH 945 0
DWIDTH 13 0
BBX 14 10 0 -1
BITMAP
AAAAAB90
00000200
2EA40200
02140200
020A9200
02002200
02202200
692EA200
00200100
00200000
ENDCHAR
STARTCHAR uni091C094D091C094D092F
ENCODING -1
SWIDTH 1252 0
DWIDTH 18 0
BBX 18 9 0 0
BITMAP
AAAAAAEBA0
0000005140
2E97A85140
0200868140
0200850140
0200860240
020081AA40
692A000140
0000000100
ENDCHAR
STARTCHAR uni091C094D091C094D0935
ENCODING -1
SWIDTH 1243 0
DWIDTH 17 0
BBX 17 9 0 0
BITMAP
AAAAAAAE40
0000019500
2E97A90500
0200850500
0200850500
0200850900
020082A900
692A000500
0000000400
ENDCHAR
STARTCHAR uni0924094D0915094D092F
ENCODING -1
SWIDTH 1346 0
DWIDTH 19 0
BBX 19 9 0 0
BITMAP
AAAAEABAB8
0019500820
1AA06AA420
2050508020
2050508020
2060908060
202A906A60
2400500020
0400400010
ENDCHAR
STARTCHAR uni0924094D0915094D0930
ENCODING -1
SWIDTH 995 0
DWIDTH 14 0
BBX 14 9 0 0
BITMAP
AAAAEAA0
00196A40
1AA05080
20505080
20505080
20609080
202B9A40
24055000
04144000
ENDCHAR
STARTCHAR uni0924094D0915094D0935
ENCODING -1
SWIDTH 1282 0
DWIDTH 18 0
BBX 18 9 0 0
BITMAP
AAAAEAAAE0
00196A6880
1AA0508080
2050508080
2050508080
2060908180
202A906A80
2400500080
0400400040
ENDCHAR
STARTCHAR uni0924094D0915094D0937
ENCODING -1
SWIDTH 943 0
DWIDTH 13 0
BBX 14 9 0 0
BITMAP
AA8A9290
00145200
1A9EEB00
20200200
20201200
20205200
201A9200
24005200
04001100
ENDCHAR
STARTCHAR uni0924094D0916094D0930
ENCODING -1
SWIDTH 1008 0
DWIDTH 14 0
BBX 15 9 0 0
BITMAP
AAABAAE4
00020080
1A821880
20522080
20796080
20202080
20081A80
24060880
04012040
ENDCHAR
STARTCHAR uni0924094D0924094D092F
ENCODING -1
SWIDTH 888 0
DWIDTH 12 0
BBX 13 9 0 0
BITMAP
AAABAE40
00010800
6E924800
142A0800
14200800
14140800
140AA800
19000800
05000400
ENDCHAR
STARTCHAR uni0924094D0924094D0935
ENCODING -1
SWIDTH 788 0
DWIDTH 11 0
BBX 11 9 0 0
BITMAP
AAAAB8
000A20
6EB020
142020
142020
142020
141AA0
190020
050010
ENDCHAR
STARTCHAR uni0924094D0928094D092F
ENCODING -1
SWIDTH 1098 0
DWIDTH 15 0
BBX 16 9 0 0
BITMAP
AAAAAEB9
00000820
1A900820
203AA820
20508020
20105030
20002AA0
24000020
04000010
ENDCHAR
STARTCHAR uni0924094D092A094D0930
ENCODING -1
SWIDTH 763 0
DWIDTH 11 0
BBX 11 9 0 0
BITMAP
AABAB8
005050
1A9050
205050
202050
201B90
200550
241850
041010
ENDCHAR
STARTCHAR uni0924094D092A094D0932
ENCODING -1
SWIDTH 1219 0
DWIDTH 17 0
BBX 17 9 0 0
BITMAP
AABAAAAB80
0050000200
1A902A6A00
2050518200
2020908200
201A904200
2000500200
2400290200
0400000100
ENDCHAR
STARTCHAR uni0924094D092E094D092F
ENCODING -1
SWIDTH 1096 0
DWIDTH 15 0
BBX 16 9 0 0
BITMAP
AABAAEB9
00500820
1A900420
207A8020
20508020
20105030
20002AA0
24000020
04000010
ENDCHAR
STARTCHAR uni0924094D0930094D092F
ENCODING -1
SWIDTH 848 0
DWIDTH 12 0
BBX 12 9 0 0
BITMAP
AAAEAE
000208
1A8208
207908
102008
00A018
025A98
180008
100004
ENDCHAR
STARTCHAR uni0924094D0938094D092F
ENCODING -1
SWIDTH 1234 0
DWIDTH 17 0
BBX 18 9 0 0
BITMAP
AAABAAEB90
0002008200
1A82008200
20220A4200
203AAC0200
2024090300
200802AA00
2406000200
0401000100
ENDCHAR
STARTCHAR uni0924094D0938094D0935
ENCODING -1
SWIDTH 1155 0
DWIDTH 16 0
BBX 17 9 0 0
BITMAP
AAABAAAE40
0002028800
1A82050800
2022080800
203AAC0800
2024090800
200806A800
2406000800
0401000400
ENDCHAR
STARTCHAR uni0926094D0917094D0930
ENCODING -1
SWIDTH 493 0
DWIDTH 7 0
BBX 7 12 0 -3
BITMAP
AAB8
0020
1A90
2000
2000
2020
2020
1AA0
0820
0860
2560
0610
ENDCHAR
STARTCHAR uni0926094D092C094D0930
ENCODING -1
SWIDTH 483 0
DWIDTH 7 0
BBX 7 13 0 -4
BITMAP
AAB8
0020
0020
1A90
2000
2000
2010
2020
1EA0
2520
21A0
1A80
0200
ENDCHAR
STARTCHAR uni0926094D092F094D092D
ENCODING -1
SWIDTH 607 0
DWIDTH 9 0
BBX 9 11 0 -2
BITMAP
AAEE40
1A4500
200500
200500
1E0500
200900
1AB900
005500
694500
020500
014500
ENDCHAR
STARTCHAR uni0926094D092F094D0930
ENCODING -1
SWIDTH 595 0
DWIDTH 8 0
BBX 9 10 0 -1
BITMAP
AAEE40
1A4800
200800
200800
1E0800
200800
200800
1AA800
009400
010000
ENDCHAR
STARTCHAR uni0927094D0928094D092F
ENCODING -1
SWIDTH 1138 0
DWIDTH 16 0
BBX 16 9 0 0
BITMAP
B96AAEAE
20000208
2E000208
201AB908
20202008
20202018
1AA41AA8
00000008
00000004
ENDCHAR
STARTCHAR uni0928094D0915094D0938
ENCODING -1
SWIDTH 1384 0
DWIDTH 19 0
BBX 20 9 0 0
BITMAP
AAAAEAAEB9
0028A90820
0050824820
2AC0815420
508081FAB0
5090808020
002A802020
0000801420
0000400410
ENDCHAR
STARTCHAR uni0928094D0924094D092F
ENCODING -1
SWIDTH 1073 0
DWIDTH 15 0
BBX 15 9 0 0
BITMAP
AAAABEB8
00000820
00000820
2ABAE420
50808020
50808060
00806A60
00600020
00140010
ENDCHAR
STARTCHAR uni0928094D0924094D0930
ENCODING -1
SWIDTH 732 0
DWIDTH 10 0
BBX 11 9 0 0
BITMAP
AAAAE4
000080
002A80
2AC0C0
508080
5041C0
000680
002480
005040
ENDCHAR
STARTCHAR uni0928094D0924094D0938
ENCODING -1
SWIDTH 1134 0
DWIDTH 16 0
BBX 16 9 0 0
BITMAP
AAAAAEAE
00000808
002A4808
2AC08808
5080AAA8
50805008
00802008
00600808
00140404
ENDCHAR
STARTCHAR uni0928094D0925094D092F
ENCODING -1
SWIDTH 1168 0
DWIDTH 16 0
BBX 17 9 0 0
BITMAP
A92A2BAE40
0052020800
0002020800
2AE92A0800
5080200800
1090240C00
002A9AA800
0000000800
0000000400
ENDCHAR
STARTCHAR uni0928094D0925094D0935
ENCODING -1
SWIDTH 1089 0
DWIDTH 15 0
BBX 16 9 0 0
BITMAP
A92A2AB9
00520A20
00021420
2AE92020
50802020
10902420
002A9AA0
00000020
00000010
ENDCHAR
STARTCHAR uni0928094D0926094D0930
ENCODING -1
SWIDTH 734 0
DWIDTH 10 0
BBX 11 9 0 0
BITMAP
AAAAE4
000080
002A80
6AD000
508040
009090
002B90
000650
000840
ENDCHAR
STARTCHAR uni0928094D0926094D0935
ENCODING -1
SWIDTH 732 0
DWIDTH 10 0
BBX 11 11 0 -2
BITMAP
AAAAE4
000080
002A80
005000
6AC000
508000
009090
003A90
005050
005080
002A40
ENDCHAR
STARTCHAR uni0928094D0927094D092F
ENCODING -1
SWIDTH 1097 0
DWIDTH 15 0
BBX 16 9 0 0
BITMAP
AAF5AEB9
00800820
00800820
2AF8A820
50808020
10805030
0080AAA0
006A4020
00000010
ENDCHAR
STARTCHAR uni0928094D0927094D0930
ENCODING -1
SWIDTH 783 0
DWIDTH 11 0
BBX 11 9 0 0
BITMAP
AAF5B8
008020
008020
2AF820
508020
008060
006BA0
000620
001810
ENDCHAR
STARTCHAR uni0928094D0927094D0935
ENCODING -1
SWIDTH 1036 0
DWIDTH 15 0
BBX 15 9 0 0
BITMAP
AAF5AAE4
00802950
00806050
2AF85050
50805050
00806090
0080AA90
006A4050
00000040
ENDCHAR
STARTCHAR uni0928094D0928094D092F
ENCODING -1
SWIDTH 1071 0
DWIDTH 15 0
BBX 15 9 0 0
BITMAP
AAAABEB8
00000820
00000820
6AAAE420
50808020
00408060
00006A60
00000020
00000010
ENDCHAR
STARTCHAR uni0928094D092A094D0930
ENCODING -1
SWIDTH 737 0
DWIDTH 10 0
BBX 11 9 0 0
BITMAP
AAEAE4
008080
008080
2AC080
509080
502B80
000580
001480
001040
ENDCHAR
STARTCHAR uni0928094D092B094D0930
ENCODING -1
SWIDTH 975 0
DWIDTH 14 0
BBX 14 9 0 0
BITMAP
AAEAEAA0
0080AA00
00808080
2AC08080
50508080
502A8080
00088A00
00208000
00504000
ENDCHAR
STARTCHAR uni0928094D092D094D092F
ENCODING -1
SWIDTH 1071 0
DWIDTH 15 0
BBX 15 9 0 0
BITMAP
AA82BEB8
00800820
00900420
6AEA8020
50908020
00408060
00002A60
00000020
00000010
ENDCHAR
STARTCHAR uni0928094D092D094D0935
ENCODING -1
SWIDTH 995 0
DWIDTH 14 0
BBX 14 9 0 0
BITMAP
AA82AAE0
00806880
00908080
6AEA8080
50908080
00408180
00006980
00000080
00000040
ENDCHAR
STARTCHAR uni0928094D092E094D092F
ENCODING -1
SWIDTH 1071 0
DWIDTH 15 0
BBX 15 9 0 0
BITMAP
AAEABEB8
00900820
00900420
6AEA8020
50908020
00408060
00002A60
00000020
00000010
ENDCHAR
STARTCHAR uni0928094D0938094D091F
ENCODING -1
SWIDTH 1113 0
DWIDTH 16 0
BBX 16 9 0 0
BITMAP
AAAEAABA
00080020
000806A0
2A480800
50AEA400
10601404
00241808
00080AA4
00040000
ENDCHAR
STARTCHAR uni0928094D0938094D092E094D092F
ENCODING -1
SWIDTH 1453 0
DWIDTH 20 0
BBX 21 9 0 0
BITMAP
AAAEAEABAE40
000808020800
000808020800
2A48082A0800
50AAAEB00800
105008240C00
0020000AA800
000800000800
000400000400
ENDCHAR
STARTCHAR uni0928094D0938094D092F
ENCODING -1
SWIDTH 1194 0
DWIDTH 17 0
BBX 17 9 0 0
BITMAP
AAAEABAF80
0008014500
0008014500
2A481A0500
50AAB40500
1050180900
002006A900
0008000500
0004000000
ENDCHAR
STARTCHAR uni092A094D0924094D092F
ENCODING -1
SWIDTH 1119 0
DWIDTH 16 0
BBX 16 9 0 0
BITMAP
BAAAAEAE
20000514
20000514
201AA814
20205014
1AA02024
00201AA4
00240014
00040004
ENDCHAR
STARTCHAR uni092C094D091C094D092F
ENCODING -1
SWIDTH 1235 0
DWIDTH 17 0
BBX 18 9 0 0
BITMAP
AAAAAAEB90
0000008200
1A1BA88200
24014A4200
2500880200
2100850300
208142AA00
1AAA000200
0000000100
ENDCHAR
STARTCHAR uni092C094D0927094D0935
ENCODING -1
SWIDTH 1097 0
DWIDTH 15 0
BBX 16 9 0 0
BITMAP
AAB92AB9
1A200A60
34201420
291E2020
22602020
20A01420
20A02AA0
1A4A9020
00000010
ENDCHAR
STARTCHAR uni092C094D092D094D0930
ENCODING -1
SWIDTH 764 0
DWIDTH 11 0
BBX 11 9 0 0
BITMAP
AA91B8
1A2050
342050
253A90
216090
20A190
1A8550
001850
001010
ENDCHAR
STARTCHAR uni092C094D0932094D092F
ENCODING -1
SWIDTH 480 0
DWIDTH 7 0
BBX 19 9 0 0
BITMAP
AAAAAABAE4
1A00001480
301A6A2480
2420C2A080
2120814080
20A0014080
1AA000AA80
001A000080
0000000040
ENDCHAR
STARTCHAR uni092D094D0930094D092F
ENCODING -1
SWIDTH 830 0
DWIDTH 12 0
BBX 12 9 0 0
BITMAP
91AEBE
200514
200514
3A9014
209014
11A024
061AA4
080014
100000
ENDCHAR
STARTCHAR uni092E094D092A094D0930
ENCODING -1
SWIDTH 765 0
DWIDTH 11 0
BBX 11 9 0 0
BITMAP
BABAB8
205050
205050
3A9050
202050
201B90
000550
001850
001010
ENDCHAR
STARTCHAR uni092E094D092C094D092F
ENCODING -1
SWIDTH 1124 0
DWIDTH 16 0
BBX 16 9 0 0
BITMAP
BAAAAEAE
20290514
20700514
3AA85014
20525014
1060A024
001A9AA4
00000014
00000004
ENDCHAR
STARTCHAR uni092E094D092C094D0930
ENCODING -1
SWIDTH 768 0
DWIDTH 11 0
BBX 11 9 0 0
BITMAP
BAAAB8
201A50
203450
3A9550
205150
102090
001B90
000650
000810
ENDCHAR
STARTCHAR uni092E094D092D094D092F
ENCODING -1
SWIDTH 1101 0
DWIDTH 15 0
BBX 16 9 0 0
BITMAP
BA91AEB9
20200920
20200420
3ABA8020
20208020
10105020
00001AA0
00000020
00000010
ENDCHAR
STARTCHAR uni092E094D092D094D0930
ENCODING -1
SWIDTH 759 0
DWIDTH 11 0
BBX 11 9 0 0
BITMAP
BA92F8
202050
202050
3ABAD0
202090
101290
000550
001850
001000
ENDCHAR
STARTCHAR uni092E094D092D094D0935
ENCODING -1
SWIDTH 1028 0
DWIDTH 14 0
BBX 15 9 0 0
BITMAP
BA91AAE4
20202980
20205080
3ABAD080
20205080
10105080
00002A80
00000080
00000040
ENDCHAR
STARTCHAR uni0932094D0915094D092F
ENCODING -1
SWIDTH 1534 0
DWIDTH 21 0
BBX 22 9 0 0
BITMAP
AAAAABAAEB90
0000A2005140
1A6B42AA8140
20C202050140
208202050140
204242060240
2000AA01AA40
1A0002000140
000001000100
ENDCHAR
STARTCHAR uni0932094D0925094D092F
ENCODING -1
SWIDTH 1397 0
DWIDTH 20 0
BBX 20 9 0 0
BITMAP
AAA8A8AEBA
0001480514
1A69080414
20C2A85014
2082005014
2042406024
2000AA5AA4
1A00000014
0000000010
ENDCHAR
STARTCHAR uni0932094D0926094D0930
ENCODING -1
SWIDTH 933 0
DWIDTH 13 0
BBX 13 9 0 0
BITMAP
AAAAAB80
00000200
1A69AA00
20820000
20820100
20020200
2001AE00
1A001600
00006100
ENDCHAR
STARTCHAR uni0932094D0932094D092F
ENCODING -1
SWIDTH 1476 0
DWIDTH 21 0
BBX 21 9 0 0
BITMAP
AAAAAAABAB80
000000014500
1A69A6A14500
20C2091E0500
208208140500
200200080900
20020006A900
1A01A0000500
000000000100
ENDCHAR
STARTCHAR uni0932094D0935094D0921
ENCODING -1
SWIDTH 1247 0
DWIDTH 17 0
BBX 18 9 0 0
BITMAP
AAAAAAAB90
0000A00140
1A6A40AA00
20C2008000
208200AA00
2042020180
2001420080
1A00065640
0000006500
ENDCHAR
STARTCHAR uni0937094D0915094D0930
ENCODING -1
SWIDTH 1042 0
DWIDTH 15 0
BBX 15 9 0 0
BITMAP
BAAABAA8
240A2A80
21242060
20A02020
20702020
1AA42060
000AA280
00022000
00091000
ENDCHAR
STARTCHAR uni0937094D091F094D092F
ENCODING -1
SWIDTH 997 0
DWIDTH 14 0
BBX 14 9 0 0
BITMAP
BABAAAE0
252AA080
20A02080
1EA02080
2001A080
20114180
2020A980
25600080
06400040
ENDCHAR
STARTCHAR uni0937094D091F094D0930
ENCODING -1
SWIDTH 493 0
DWIDTH 7 0
BBX 7 11 0 -2
BITMAP
BAB8
2520
2160
1EA0
2000
2000
2010
2560
0B80
0880
1460
ENDCHAR
STARTCHAR uni0937094D091F094D0935
ENCODING -1
SWIDTH 493 0
DWIDTH 7 0
BBX 7 11 0 -2
BITMAP
BAB8
2520
2160
1EA0
2000
2010
2020
1EA0
2020
2020
1A80
ENDCHAR
STARTCHAR uni0937094D0920094D092F
ENCODING -1
SWIDTH 1006 0
DWIDTH 14 0
BBX 15 9 0 0
BITMAP
BFFAAAE4
3FFAA080
2FF01480
1FE01480
2021A080
20154180
2024AA80
25600080
06400040
ENDCHAR
STARTCHAR uni0937094D0920094D0930
ENCODING -1
SWIDTH 512 0
DWIDTH 7 0
BBX 8 11 0 -2
BITMAP
BFF9
2FF0
3FF0
2FE0
2560
2020
2020
2560
0A80
0890
1010
ENDCHAR
STARTCHAR uni0937094D0923094D092F
ENCODING -1
SWIDTH 1273 0
DWIDTH 18 0
BBX 18 9 0 0
BITMAP
BABAEAEAE0
2420502080
2520502080
2160528080
2070920080
1A9A820180
000001AA80
0000000080
0000000040
ENDCHAR
STARTCHAR uni0937094D092A094D0930
ENCODING -1
SWIDTH 798 0
DWIDTH 11 0
BBX 12 9 0 0
BITMAP
BABAB9
242020
252020
206020
207020
1A9AA0
000120
000820
001410
ENDCHAR
STARTCHAR uni0937094D092E094D092F
ENCODING -1
SWIDTH 1121 0
DWIDTH 16 0
BBX 16 9 0 0
BITMAP
BABAAEAE
28200514
22200514
20AA9014
20705014
1AA02024
00001AA4
00000014
00000004
ENDCHAR
STARTCHAR uni0938094D0915094D0930
ENCODING -1
SWIDTH 1084 0
DWIDTH 15 0
BBX 16 9 0 0
BITMAP
AFAAAEA9
05069A90
05081824
08081414
6EA81414
20081424
1406E590
08019400
01020400
ENDCHAR
STARTCHAR uni0938094D0915094D0935
ENCODING -1
SWIDTH 1369 0
DWIDTH 19 0
BBX 20 9 0 0
BITMAP
AFAAAEAAB9
05069A9A20
0508182420
0808142020
6EA8142020
2008142420
1406A40AA0
0800140020
0100040010
ENDCHAR
STARTCHAR uni0938094D0924094D092F
ENCODING -1
SWIDTH 1185 0
DWIDTH 17 0
BBX 17 9 0 0
BITMAP
AFAAABAF80
0500014500
0500014500
0806AA0500
6EA8140500
2008180900
140806A900
0809000500
0101000400
ENDCHAR
STARTCHAR uni0938094D0924094D0930
ENCODING -1
SWIDTH 818 0
DWIDTH 11 0
BBX 12 9 0 0
BITMAP
AFAAB9
050020
050AA0
081420
6EA020
200020
1400A0
080620
010410
ENDCHAR
STARTCHAR uni0938094D0924094D0935
ENCODING -1
SWIDTH 1126 0
DWIDTH 16 0
BBX 16 9 0 0
BITMAP
AFAAAAAE
05000694
0506A814
08080814
6EA80814
20080814
140806A4
08090014
01010004
ENDCHAR
STARTCHAR uni0938094D0925094D092F
ENCODING -1
SWIDTH 1303 0
DWIDTH 18 0
BBX 19 9 0 0
BITMAP
AF9692BAE4
0508202080
0504202080
080A929080
6EA8020080
20080240C0
1406A9AA80
0800000080
0100000040
ENDCHAR
STARTCHAR uni0938094D092A094D0930
ENCODING -1
SWIDTH 850 0
DWIDTH 12 0
BBX 12 9 0 0
BITMAP
AEAEAE
050808
050808
6EA808
600818
2006A8
080088
080208
010404
ENDCHAR
STARTCHAR uni0938094D092E094D092F
ENCODING -1
SWIDTH 1189 0
DWIDTH 17 0
BBX 17 9 0 0
BITMAP
AFAEABAF80
0508014500
0508014500
08081A0500
6EAEA40500
2008180900
140006A900
0800000500
0100000000
ENDCHAR
STARTCHAR uni093F.a01
ENCODING -1
SWIDTH 231 0
DWIDTH 3 0
BBX 7 13 0 0
BITMAP
1AA4
2008
2008
2000
B900
2000
2000
2000
2000
2000
2000
2000
1000
ENDCHAR
STARTCHAR uni093F.a04
ENCODING -1
SWIDTH 231 0
DWIDTH 3 0
BBX 9 13 0 0
BITMAP
1AAA40
200080
200080
200000
B90000
200000
200000
200000
200000
200000
200000
200000
100000
ENDCHAR
STARTCHAR uni093F.a05
ENCODING -1
SWIDTH 231 0
DWIDTH 3 0
BBX 10 13 0 0
BITMAP
1AAA80
200050
200050
200000
B90000
200000
200000
200000
200000
200000
200000
200000
100000
ENDCHAR
STARTCHAR uni093F.a06
ENCODING -1
SWIDTH 231 0
DWIDTH 3 0
BBX 10 13 0 0
BITMAP
1AAA90
200020
200020
200000
B90000
200000
200000
200000
200000
200000
200000
200000
100000
ENDCHAR
STARTCHAR uni093F.a07
ENCODING -1
SWIDTH 231 0
DWIDTH 3 0
BBX 11 13 0 0
BITMAP
1AAAA4
200008
200008
200000
B90000
200000
200000
200000
200000
200000
200000
200000
100000
ENDCHAR
STARTCHAR uni093F.a08
ENCODING -1
SWIDTH 231 0
DWIDTH 3 0
BBX 12 13 0 0
BITMAP
1AAAA8
200005
200005
200000
B90000
200000
200000
200000
200000
200000
200000
200000
100000
ENDCHAR
STARTCHAR uni093F.a09
ENCODING -1
SWIDTH 231 0
DWIDTH 3 0
BBX 12 13 0 0
BITMAP
1AAAA9
200002
200002
200000
B90000
200000
200000
200000
200000
200000
200000
200000
100000
ENDCHAR
STARTCHAR uni093F.a10
ENCODING -1
SWIDTH 231 0
DWIDTH 3 0
BBX 13 13 0 0
BITMAP
1AAAAA40
20000080
20000080
20000000
B9000000
20000000
20000000
20000000
20000000
20000000
20000000
20000000
10000000
ENDCHAR
STARTCHAR uni093F.a11
ENCODING -1
SWIDTH 231 0
DWIDTH 3 0
BBX 14 13 0 0
BITMAP
1AAAAA80
20000050
20000050
20000000
B9000000
20000000
20000000
20000000
20000000
20000000
20000000
20000000
10000000
ENDCHAR
STARTCHAR uni093F.a12
ENCODING -1
SWIDTH 231 0
DWIDTH 3 0
BBX 14 13 0 0
BITMAP
1AAAAA90
20000020
20000020
20000000
B9000000
20000000
20000000
20000000
20000000
20000000
20000000
20000000
10000000
ENDCHAR
STARTCHAR uni093F.a13
ENCODING -1
SWIDTH 231 0
DWIDTH 3 0
BBX 15 13 0 0
BITMAP
1AAAAAA4
20000008
20000008
20000000
B9000000
20000000
20000000
20000000
20000000
20000000
20000000
20000000
10000000
ENDCHAR
STARTCHAR uni093F.a14
ENCODING -1
SWIDTH 231 0
DWIDTH 3 0
BBX 16 13 0 0
BITMAP
1AAAAAA8
20000005
20000005
20000000
B9000000
20000000
20000000
20000000
20000000
20000000
20000000
20000000
10000000
ENDCHAR
STARTCHAR uni093F.a15
ENCODING -1
SWIDTH 231 0
DWIDTH 3 0
BBX 16 13 0 0
BITMAP
1AAAAAA9
20000002
20000002
20000000
B9000000
20000000
20000000
20000000
20000000
20000000
20000000
20000000
10000000
ENDCHAR
STARTCHAR uni093F.a16
ENCODING -1
SWIDTH 231 0
DWIDTH 3 0
BBX 17 13 0 0
BITMAP
1AAAAAAA40
2000000080
2000000080
2000000000
B900000000
2000000000
2000000000
2000000000
2000000000
2000000000
2000000000
2000000000
1000000000
ENDCHAR
STARTCHAR uni093F.a17
ENCODING -1
SWIDTH 231 0
DWIDTH 3 0
BBX 18 13 0 0
BITMAP
1AAAAAAA80
2000000050
2000000050
2000000000
B900000000
2000000000
2000000000
2000000000
2000000000
2000000000
2000000000
2000000000
1000000000
ENDCHAR
STARTCHAR uni093F.a18
ENCODING -1
SWIDTH 231 0
DWIDTH 3 0
BBX 18 13 0 0
BITMAP
1AAAAAAA90
2000000020
2000000020
2000000000
B900000000
2000000000
2000000000
2000000000
2000000000
2000000000
2000000000
2000000000
1000000000
ENDCHAR
STARTCHAR uni093F.a19
ENCODING -1
SWIDTH 231 0
DWIDTH 3 0
BBX 19 13 0 0
BITMAP
1AAAAAAAA0
2000000008
2000000008
2000000000
B900000000
2000000000
2000000000
2000000000
2000000000
2000000000
2000000000
2000000000
1000000000
ENDCHAR
STARTCHAR uni093F.a20
ENCODING -1
SWIDTH 231 0
DWIDTH 3 0
BBX 20 13 0 0
BITMAP
1AAAAAAAA8
2000000005
2000000005
2000000000
B900000000
2000000000
2000000000
2000000000
2000000000
2000000000
2000000000
2000000000
1000000000
ENDCHAR
STARTCHAR uni093F.a21
ENCODING -1
SWIDTH 231 0
DWIDTH 3 0
BBX 20 13 0 0
BITMAP
1AAAAAAAA9
2000000002
2000000002
2000000000
B900000000
2000000000
2000000000
2000000000
2000000000
2000000000
2000000000
2000000000
1000000000
ENDCHAR
STARTCHAR uni093F.a22
ENCODING -1
SWIDTH 231 0
DWIDTH 3 0
BBX 21 13 0 0
BITMAP
1AAAAAAAAA00
200000000080
200000000080
200000000000
B90000000000
200000000000
200000000000
200000000000
200000000000
200000000000
200000000000
200000000000
100000000000
ENDCHAR
STARTCHAR uni093F.a23
ENCODING -1
SWIDTH 231 0
DWIDTH 3 0
BBX 22 13 0 0
BITMAP
1AAAAAAAAA80
200000000050
200000000050
200000000000
B90000000000
200000000000
200000000000
200000000000
200000000000
200000000000
200000000000
200000000000
100000000000
ENDCHAR
STARTCHAR uni093F.a24
ENCODING -1
SWIDTH 231 0
DWIDTH 3 0
BBX 22 13 0 0
BITMAP
1AAAAAAAAA90
200000000020
200000000020
200000000000
B90000000000
200000000000
200000000000
200000000000
200000000000
200000000000
200000000000
200000000000
100000000000
ENDCHAR
STARTCHAR uni093F.a25
ENCODING -1
SWIDTH 231 0
DWIDTH 3 0
BBX 23 13 0 0
BITMAP
1AAAAAAAAAA0
200000000008
200000000008
200000000000
B90000000000
200000000000
200000000000
200000000000
200000000000
200000000000
200000000000
200000000000
100000000000
ENDCHAR
STARTCHAR uni093F.a26
ENCODING -1
SWIDTH 231 0
DWIDTH 3 0
BBX 24 13 0 0
BITMAP
1AAAAAAAAAA8
200000000009
200000000005
200000000000
B90000000000
200000000000
200000000000
200000000000
200000000000
200000000000
200000000000
200000000000
100000000000
ENDCHAR
STARTCHAR uni093F.a32
ENCODING -1
SWIDTH 231 0
DWIDTH 3 0
BBX 29 13 0 0
BITMAP
1AAAAAAAAAAAAA00
2000000000000240
2000000000000140
2000000000000000
B900000000000000
2000000000000000
2000000000000000
2000000000000000
2000000000000000
2000000000000000
2000000000000000
2000000000000000
1000000000000000
ENDCHAR
STARTCHAR uni093E0901
ENCODING -1
SWIDTH 231 0
DWIDTH 3 0
BBX 5 13 -1 0
BITMAP
0400
8080
2A40
0000
2E40
0800
0800
0800
0800
0800
0800
0800
0400
ENDCHAR
STARTCHAR dvNG_GA
ENCODING -1
SWIDTH 562 0
DWIDTH 8 0
BBX 8 13 0 -4
BITMAP
AABA
1AA0
2000
2005
1AA0
0014
2014
2AA0
0820
0820
6420
0020
0010
ENDCHAR
STARTCHAR dvNG_MA
ENCODING -1
SWIDTH 728 0
DWIDTH 10 0
BBX 11 13 0 -4
BITMAP
AABAE4
005080
1A9080
200080
200880
1A9080
102080
2A9080
008080
00AAC0
008080
004080
000080
ENDCHAR
STARTCHAR dvNY_CA
ENCODING -1
SWIDTH 963 0
DWIDTH 13 0
BBX 14 9 0 0
BITMAP
AAAAAB90
00000140
290AE140
02020140
02A20140
02020240
6901AA40
00000140
00000100
ENDCHAR
STARTCHAR dvTT_GA
ENCODING -1
SWIDTH 510 0
DWIDTH 7 0
BBX 8 13 0 -4
BITMAP
AAB9
0020
0020
1AA0
2000
2004
2014
1EA0
0820
0820
0820
6420
0020
ENDCHAR
STARTCHAR dvTTH_TTHA
ENCODING -1
SWIDTH 511 0
DWIDTH 7 0
BBX 8 13 0 -4
BITMAP
AAB9
0050
1AD0
2020
2020
2020
1AA0
0590
2AA0
2020
2020
2020
1A90
ENDCHAR
STARTCHAR dvDD_GA
ENCODING -1
SWIDTH 541 0
DWIDTH 8 0
BBX 8 13 0 -4
BITMAP
AABA
1AA0
2000
2000
1AA0
0014
2014
2AA0
0820
0820
6420
0020
0010
ENDCHAR
STARTCHAR dvDDH_DDHA
ENCODING -1
SWIDTH 487 0
DWIDTH 7 0
BBX 7 12 0 -3
BITMAP
AAB8
0050
1A90
21A0
2220
2020
1E90
2040
21A0
2210
2020
1A90
ENDCHAR
STARTCHAR dvSHA_MatraVocalicR
ENCODING -1
SWIDTH 558 0
DWIDTH 8 0
BBX 8 13 0 -4
BITMAP
2A4E
2088
2088
1A08
2658
4068
0008
0018
00A4
0080
0080
0082
0069
ENDCHAR
STARTCHAR dvT_KH_NA
ENCODING -1
SWIDTH 1341 0
DWIDTH 19 0
BBX 19 9 0 0
BITMAP
AAABAAAAB8
0002000050
1A821A0050
205220AA90
207950A050
202020A050
20081A4050
2406000050
0401000010
ENDCHAR
STARTCHAR dvT_S_NA
ENCODING -1
SWIDTH 1169 0
DWIDTH 16 0
BBX 17 9 0 0
BITMAP
AAABAAAE40
0002000800
1A82000800
202202AC00
203AAC0800
2024040800
2008000800
2406000800
0401000400
ENDCHAR
ENDFONT
